<?xml version="1.0" encoding="utf-8" standalone="no"?>
<!DOCTYPE svg PUBLIC "-//W3C//DTD SVG 1.1//EN"
  "http://www.w3.org/Graphics/SVG/1.1/DTD/svg11.dtd">
<svg xmlns:xlink="http://www.w3.org/1999/xlink" width="792pt" height="360pt" viewBox="0 0 792 360" xmlns="http://www.w3.org/2000/svg" version="1.1">
 <metadata>
  <rdf:RDF xmlns:dc="http://purl.org/dc/elements/1.1/" xmlns:cc="http://creativecommons.org/ns#" xmlns:rdf="http://www.w3.org/1999/02/22-rdf-syntax-ns#">
   <cc:Work>
    <dc:type rdf:resource="http://purl.org/dc/dcmitype/StillImage"/>
    <dc:date>2024-02-26T13:44:01.321031</dc:date>
    <dc:format>image/svg+xml</dc:format>
    <dc:creator>
     <cc:Agent>
      <dc:title>Matplotlib v3.5.3, https://matplotlib.org/</dc:title>
     </cc:Agent>
    </dc:creator>
   </cc:Work>
  </rdf:RDF>
 </metadata>
 <defs>
  <style type="text/css">*{stroke-linejoin: round; stroke-linecap: butt}</style>
 </defs>
 <g id="figure_1">
  <g id="patch_1">
   <path d="M 0 360 
L 792 360 
L 792 0 
L 0 0 
z
" style="fill: #ffffff"/>
  </g>
  <g id="axes_1">
   <g id="patch_2">
    <path d="M 41.15 315.16 
L 385.875 315.16 
L 385.875 26.88 
L 41.15 26.88 
z
" style="fill: #ffffff"/>
   </g>
   <g id="matplotlib.axis_1">
    <g id="xtick_1">
     <g id="line2d_1">
      <defs>
       <path id="m94f4c4e88f" d="M 0 0 
L 0 3.5 
" style="stroke: #000000; stroke-width: 0.8"/>
      </defs>
      <g>
       <use xlink:href="#m94f4c4e88f" x="86.142019" y="315.16" style="stroke: #000000; stroke-width: 0.8"/>
      </g>
     </g>
     <g id="text_1">
      <!-- 400 -->
      <g transform="translate(76.598269 329.758438)scale(0.1 -0.1)">
       <defs>
        <path id="DejaVuSans-34" d="M 2419 4116 
L 825 1625 
L 2419 1625 
L 2419 4116 
z
M 2253 4666 
L 3047 4666 
L 3047 1625 
L 3713 1625 
L 3713 1100 
L 3047 1100 
L 3047 0 
L 2419 0 
L 2419 1100 
L 313 1100 
L 313 1709 
L 2253 4666 
z
" transform="scale(0.015625)"/>
        <path id="DejaVuSans-30" d="M 2034 4250 
Q 1547 4250 1301 3770 
Q 1056 3291 1056 2328 
Q 1056 1369 1301 889 
Q 1547 409 2034 409 
Q 2525 409 2770 889 
Q 3016 1369 3016 2328 
Q 3016 3291 2770 3770 
Q 2525 4250 2034 4250 
z
M 2034 4750 
Q 2819 4750 3233 4129 
Q 3647 3509 3647 2328 
Q 3647 1150 3233 529 
Q 2819 -91 2034 -91 
Q 1250 -91 836 529 
Q 422 1150 422 2328 
Q 422 3509 836 4129 
Q 1250 4750 2034 4750 
z
" transform="scale(0.015625)"/>
       </defs>
       <use xlink:href="#DejaVuSans-34"/>
       <use xlink:href="#DejaVuSans-30" x="63.623047"/>
       <use xlink:href="#DejaVuSans-30" x="127.246094"/>
      </g>
     </g>
    </g>
    <g id="xtick_2">
     <g id="line2d_2">
      <g>
       <use xlink:href="#m94f4c4e88f" x="131.958739" y="315.16" style="stroke: #000000; stroke-width: 0.8"/>
      </g>
     </g>
     <g id="text_2">
      <!-- 500 -->
      <g transform="translate(122.414989 329.758438)scale(0.1 -0.1)">
       <defs>
        <path id="DejaVuSans-35" d="M 691 4666 
L 3169 4666 
L 3169 4134 
L 1269 4134 
L 1269 2991 
Q 1406 3038 1543 3061 
Q 1681 3084 1819 3084 
Q 2600 3084 3056 2656 
Q 3513 2228 3513 1497 
Q 3513 744 3044 326 
Q 2575 -91 1722 -91 
Q 1428 -91 1123 -41 
Q 819 9 494 109 
L 494 744 
Q 775 591 1075 516 
Q 1375 441 1709 441 
Q 2250 441 2565 725 
Q 2881 1009 2881 1497 
Q 2881 1984 2565 2268 
Q 2250 2553 1709 2553 
Q 1456 2553 1204 2497 
Q 953 2441 691 2322 
L 691 4666 
z
" transform="scale(0.015625)"/>
       </defs>
       <use xlink:href="#DejaVuSans-35"/>
       <use xlink:href="#DejaVuSans-30" x="63.623047"/>
       <use xlink:href="#DejaVuSans-30" x="127.246094"/>
      </g>
     </g>
    </g>
    <g id="xtick_3">
     <g id="line2d_3">
      <g>
       <use xlink:href="#m94f4c4e88f" x="177.775459" y="315.16" style="stroke: #000000; stroke-width: 0.8"/>
      </g>
     </g>
     <g id="text_3">
      <!-- 600 -->
      <g transform="translate(168.231709 329.758438)scale(0.1 -0.1)">
       <defs>
        <path id="DejaVuSans-36" d="M 2113 2584 
Q 1688 2584 1439 2293 
Q 1191 2003 1191 1497 
Q 1191 994 1439 701 
Q 1688 409 2113 409 
Q 2538 409 2786 701 
Q 3034 994 3034 1497 
Q 3034 2003 2786 2293 
Q 2538 2584 2113 2584 
z
M 3366 4563 
L 3366 3988 
Q 3128 4100 2886 4159 
Q 2644 4219 2406 4219 
Q 1781 4219 1451 3797 
Q 1122 3375 1075 2522 
Q 1259 2794 1537 2939 
Q 1816 3084 2150 3084 
Q 2853 3084 3261 2657 
Q 3669 2231 3669 1497 
Q 3669 778 3244 343 
Q 2819 -91 2113 -91 
Q 1303 -91 875 529 
Q 447 1150 447 2328 
Q 447 3434 972 4092 
Q 1497 4750 2381 4750 
Q 2619 4750 2861 4703 
Q 3103 4656 3366 4563 
z
" transform="scale(0.015625)"/>
       </defs>
       <use xlink:href="#DejaVuSans-36"/>
       <use xlink:href="#DejaVuSans-30" x="63.623047"/>
       <use xlink:href="#DejaVuSans-30" x="127.246094"/>
      </g>
     </g>
    </g>
    <g id="xtick_4">
     <g id="line2d_4">
      <g>
       <use xlink:href="#m94f4c4e88f" x="223.592178" y="315.16" style="stroke: #000000; stroke-width: 0.8"/>
      </g>
     </g>
     <g id="text_4">
      <!-- 700 -->
      <g transform="translate(214.048428 329.758438)scale(0.1 -0.1)">
       <defs>
        <path id="DejaVuSans-37" d="M 525 4666 
L 3525 4666 
L 3525 4397 
L 1831 0 
L 1172 0 
L 2766 4134 
L 525 4134 
L 525 4666 
z
" transform="scale(0.015625)"/>
       </defs>
       <use xlink:href="#DejaVuSans-37"/>
       <use xlink:href="#DejaVuSans-30" x="63.623047"/>
       <use xlink:href="#DejaVuSans-30" x="127.246094"/>
      </g>
     </g>
    </g>
    <g id="xtick_5">
     <g id="line2d_5">
      <g>
       <use xlink:href="#m94f4c4e88f" x="269.408898" y="315.16" style="stroke: #000000; stroke-width: 0.8"/>
      </g>
     </g>
     <g id="text_5">
      <!-- 800 -->
      <g transform="translate(259.865148 329.758438)scale(0.1 -0.1)">
       <defs>
        <path id="DejaVuSans-38" d="M 2034 2216 
Q 1584 2216 1326 1975 
Q 1069 1734 1069 1313 
Q 1069 891 1326 650 
Q 1584 409 2034 409 
Q 2484 409 2743 651 
Q 3003 894 3003 1313 
Q 3003 1734 2745 1975 
Q 2488 2216 2034 2216 
z
M 1403 2484 
Q 997 2584 770 2862 
Q 544 3141 544 3541 
Q 544 4100 942 4425 
Q 1341 4750 2034 4750 
Q 2731 4750 3128 4425 
Q 3525 4100 3525 3541 
Q 3525 3141 3298 2862 
Q 3072 2584 2669 2484 
Q 3125 2378 3379 2068 
Q 3634 1759 3634 1313 
Q 3634 634 3220 271 
Q 2806 -91 2034 -91 
Q 1263 -91 848 271 
Q 434 634 434 1313 
Q 434 1759 690 2068 
Q 947 2378 1403 2484 
z
M 1172 3481 
Q 1172 3119 1398 2916 
Q 1625 2713 2034 2713 
Q 2441 2713 2670 2916 
Q 2900 3119 2900 3481 
Q 2900 3844 2670 4047 
Q 2441 4250 2034 4250 
Q 1625 4250 1398 4047 
Q 1172 3844 1172 3481 
z
" transform="scale(0.015625)"/>
       </defs>
       <use xlink:href="#DejaVuSans-38"/>
       <use xlink:href="#DejaVuSans-30" x="63.623047"/>
       <use xlink:href="#DejaVuSans-30" x="127.246094"/>
      </g>
     </g>
    </g>
    <g id="xtick_6">
     <g id="line2d_6">
      <g>
       <use xlink:href="#m94f4c4e88f" x="315.225618" y="315.16" style="stroke: #000000; stroke-width: 0.8"/>
      </g>
     </g>
     <g id="text_6">
      <!-- 900 -->
      <g transform="translate(305.681868 329.758438)scale(0.1 -0.1)">
       <defs>
        <path id="DejaVuSans-39" d="M 703 97 
L 703 672 
Q 941 559 1184 500 
Q 1428 441 1663 441 
Q 2288 441 2617 861 
Q 2947 1281 2994 2138 
Q 2813 1869 2534 1725 
Q 2256 1581 1919 1581 
Q 1219 1581 811 2004 
Q 403 2428 403 3163 
Q 403 3881 828 4315 
Q 1253 4750 1959 4750 
Q 2769 4750 3195 4129 
Q 3622 3509 3622 2328 
Q 3622 1225 3098 567 
Q 2575 -91 1691 -91 
Q 1453 -91 1209 -44 
Q 966 3 703 97 
z
M 1959 2075 
Q 2384 2075 2632 2365 
Q 2881 2656 2881 3163 
Q 2881 3666 2632 3958 
Q 2384 4250 1959 4250 
Q 1534 4250 1286 3958 
Q 1038 3666 1038 3163 
Q 1038 2656 1286 2365 
Q 1534 2075 1959 2075 
z
" transform="scale(0.015625)"/>
       </defs>
       <use xlink:href="#DejaVuSans-39"/>
       <use xlink:href="#DejaVuSans-30" x="63.623047"/>
       <use xlink:href="#DejaVuSans-30" x="127.246094"/>
      </g>
     </g>
    </g>
    <g id="xtick_7">
     <g id="line2d_7">
      <g>
       <use xlink:href="#m94f4c4e88f" x="361.042338" y="315.16" style="stroke: #000000; stroke-width: 0.8"/>
      </g>
     </g>
     <g id="text_7">
      <!-- 1000 -->
      <g transform="translate(348.317338 329.758438)scale(0.1 -0.1)">
       <defs>
        <path id="DejaVuSans-31" d="M 794 531 
L 1825 531 
L 1825 4091 
L 703 3866 
L 703 4441 
L 1819 4666 
L 2450 4666 
L 2450 531 
L 3481 531 
L 3481 0 
L 794 0 
L 794 531 
z
" transform="scale(0.015625)"/>
       </defs>
       <use xlink:href="#DejaVuSans-31"/>
       <use xlink:href="#DejaVuSans-30" x="63.623047"/>
       <use xlink:href="#DejaVuSans-30" x="127.246094"/>
       <use xlink:href="#DejaVuSans-30" x="190.869141"/>
      </g>
     </g>
    </g>
    <g id="text_8">
     <!-- Wavelength [nm] -->
     <g transform="translate(161.681875 344.95625)scale(0.12 -0.12)">
      <defs>
       <path id="DejaVuSans-57" d="M 213 4666 
L 850 4666 
L 1831 722 
L 2809 4666 
L 3519 4666 
L 4500 722 
L 5478 4666 
L 6119 4666 
L 4947 0 
L 4153 0 
L 3169 4050 
L 2175 0 
L 1381 0 
L 213 4666 
z
" transform="scale(0.015625)"/>
       <path id="DejaVuSans-61" d="M 2194 1759 
Q 1497 1759 1228 1600 
Q 959 1441 959 1056 
Q 959 750 1161 570 
Q 1363 391 1709 391 
Q 2188 391 2477 730 
Q 2766 1069 2766 1631 
L 2766 1759 
L 2194 1759 
z
M 3341 1997 
L 3341 0 
L 2766 0 
L 2766 531 
Q 2569 213 2275 61 
Q 1981 -91 1556 -91 
Q 1019 -91 701 211 
Q 384 513 384 1019 
Q 384 1609 779 1909 
Q 1175 2209 1959 2209 
L 2766 2209 
L 2766 2266 
Q 2766 2663 2505 2880 
Q 2244 3097 1772 3097 
Q 1472 3097 1187 3025 
Q 903 2953 641 2809 
L 641 3341 
Q 956 3463 1253 3523 
Q 1550 3584 1831 3584 
Q 2591 3584 2966 3190 
Q 3341 2797 3341 1997 
z
" transform="scale(0.015625)"/>
       <path id="DejaVuSans-76" d="M 191 3500 
L 800 3500 
L 1894 563 
L 2988 3500 
L 3597 3500 
L 2284 0 
L 1503 0 
L 191 3500 
z
" transform="scale(0.015625)"/>
       <path id="DejaVuSans-65" d="M 3597 1894 
L 3597 1613 
L 953 1613 
Q 991 1019 1311 708 
Q 1631 397 2203 397 
Q 2534 397 2845 478 
Q 3156 559 3463 722 
L 3463 178 
Q 3153 47 2828 -22 
Q 2503 -91 2169 -91 
Q 1331 -91 842 396 
Q 353 884 353 1716 
Q 353 2575 817 3079 
Q 1281 3584 2069 3584 
Q 2775 3584 3186 3129 
Q 3597 2675 3597 1894 
z
M 3022 2063 
Q 3016 2534 2758 2815 
Q 2500 3097 2075 3097 
Q 1594 3097 1305 2825 
Q 1016 2553 972 2059 
L 3022 2063 
z
" transform="scale(0.015625)"/>
       <path id="DejaVuSans-6c" d="M 603 4863 
L 1178 4863 
L 1178 0 
L 603 0 
L 603 4863 
z
" transform="scale(0.015625)"/>
       <path id="DejaVuSans-6e" d="M 3513 2113 
L 3513 0 
L 2938 0 
L 2938 2094 
Q 2938 2591 2744 2837 
Q 2550 3084 2163 3084 
Q 1697 3084 1428 2787 
Q 1159 2491 1159 1978 
L 1159 0 
L 581 0 
L 581 3500 
L 1159 3500 
L 1159 2956 
Q 1366 3272 1645 3428 
Q 1925 3584 2291 3584 
Q 2894 3584 3203 3211 
Q 3513 2838 3513 2113 
z
" transform="scale(0.015625)"/>
       <path id="DejaVuSans-67" d="M 2906 1791 
Q 2906 2416 2648 2759 
Q 2391 3103 1925 3103 
Q 1463 3103 1205 2759 
Q 947 2416 947 1791 
Q 947 1169 1205 825 
Q 1463 481 1925 481 
Q 2391 481 2648 825 
Q 2906 1169 2906 1791 
z
M 3481 434 
Q 3481 -459 3084 -895 
Q 2688 -1331 1869 -1331 
Q 1566 -1331 1297 -1286 
Q 1028 -1241 775 -1147 
L 775 -588 
Q 1028 -725 1275 -790 
Q 1522 -856 1778 -856 
Q 2344 -856 2625 -561 
Q 2906 -266 2906 331 
L 2906 616 
Q 2728 306 2450 153 
Q 2172 0 1784 0 
Q 1141 0 747 490 
Q 353 981 353 1791 
Q 353 2603 747 3093 
Q 1141 3584 1784 3584 
Q 2172 3584 2450 3431 
Q 2728 3278 2906 2969 
L 2906 3500 
L 3481 3500 
L 3481 434 
z
" transform="scale(0.015625)"/>
       <path id="DejaVuSans-74" d="M 1172 4494 
L 1172 3500 
L 2356 3500 
L 2356 3053 
L 1172 3053 
L 1172 1153 
Q 1172 725 1289 603 
Q 1406 481 1766 481 
L 2356 481 
L 2356 0 
L 1766 0 
Q 1100 0 847 248 
Q 594 497 594 1153 
L 594 3053 
L 172 3053 
L 172 3500 
L 594 3500 
L 594 4494 
L 1172 4494 
z
" transform="scale(0.015625)"/>
       <path id="DejaVuSans-68" d="M 3513 2113 
L 3513 0 
L 2938 0 
L 2938 2094 
Q 2938 2591 2744 2837 
Q 2550 3084 2163 3084 
Q 1697 3084 1428 2787 
Q 1159 2491 1159 1978 
L 1159 0 
L 581 0 
L 581 4863 
L 1159 4863 
L 1159 2956 
Q 1366 3272 1645 3428 
Q 1925 3584 2291 3584 
Q 2894 3584 3203 3211 
Q 3513 2838 3513 2113 
z
" transform="scale(0.015625)"/>
       <path id="DejaVuSans-20" transform="scale(0.015625)"/>
       <path id="DejaVuSans-5b" d="M 550 4863 
L 1875 4863 
L 1875 4416 
L 1125 4416 
L 1125 -397 
L 1875 -397 
L 1875 -844 
L 550 -844 
L 550 4863 
z
" transform="scale(0.015625)"/>
       <path id="DejaVuSans-6d" d="M 3328 2828 
Q 3544 3216 3844 3400 
Q 4144 3584 4550 3584 
Q 5097 3584 5394 3201 
Q 5691 2819 5691 2113 
L 5691 0 
L 5113 0 
L 5113 2094 
Q 5113 2597 4934 2840 
Q 4756 3084 4391 3084 
Q 3944 3084 3684 2787 
Q 3425 2491 3425 1978 
L 3425 0 
L 2847 0 
L 2847 2094 
Q 2847 2600 2669 2842 
Q 2491 3084 2119 3084 
Q 1678 3084 1418 2786 
Q 1159 2488 1159 1978 
L 1159 0 
L 581 0 
L 581 3500 
L 1159 3500 
L 1159 2956 
Q 1356 3278 1631 3431 
Q 1906 3584 2284 3584 
Q 2666 3584 2933 3390 
Q 3200 3197 3328 2828 
z
" transform="scale(0.015625)"/>
       <path id="DejaVuSans-5d" d="M 1947 4863 
L 1947 -844 
L 622 -844 
L 622 -397 
L 1369 -397 
L 1369 4416 
L 622 4416 
L 622 4863 
L 1947 4863 
z
" transform="scale(0.015625)"/>
      </defs>
      <use xlink:href="#DejaVuSans-57"/>
      <use xlink:href="#DejaVuSans-61" x="92.501953"/>
      <use xlink:href="#DejaVuSans-76" x="153.78125"/>
      <use xlink:href="#DejaVuSans-65" x="212.960938"/>
      <use xlink:href="#DejaVuSans-6c" x="274.484375"/>
      <use xlink:href="#DejaVuSans-65" x="302.267578"/>
      <use xlink:href="#DejaVuSans-6e" x="363.791016"/>
      <use xlink:href="#DejaVuSans-67" x="427.169922"/>
      <use xlink:href="#DejaVuSans-74" x="490.646484"/>
      <use xlink:href="#DejaVuSans-68" x="529.855469"/>
      <use xlink:href="#DejaVuSans-20" x="593.234375"/>
      <use xlink:href="#DejaVuSans-5b" x="625.021484"/>
      <use xlink:href="#DejaVuSans-6e" x="664.035156"/>
      <use xlink:href="#DejaVuSans-6d" x="727.414062"/>
      <use xlink:href="#DejaVuSans-5d" x="824.826172"/>
     </g>
    </g>
   </g>
   <g id="matplotlib.axis_2">
    <g id="ytick_1">
     <g id="line2d_8">
      <defs>
       <path id="m710c602e25" d="M 0 0 
L -3.5 0 
" style="stroke: #000000; stroke-width: 0.8"/>
      </defs>
      <g>
       <use xlink:href="#m710c602e25" x="41.15" y="301.359311" style="stroke: #000000; stroke-width: 0.8"/>
      </g>
     </g>
     <g id="text_9">
      <!-- 0 -->
      <g transform="translate(27.7875 305.15853)scale(0.1 -0.1)">
       <use xlink:href="#DejaVuSans-30"/>
      </g>
     </g>
    </g>
    <g id="ytick_2">
     <g id="line2d_9">
      <g>
       <use xlink:href="#m710c602e25" x="41.15" y="260.799795" style="stroke: #000000; stroke-width: 0.8"/>
      </g>
     </g>
     <g id="text_10">
      <!-- 1 -->
      <g transform="translate(27.7875 264.599014)scale(0.1 -0.1)">
       <use xlink:href="#DejaVuSans-31"/>
      </g>
     </g>
    </g>
    <g id="ytick_3">
     <g id="line2d_10">
      <g>
       <use xlink:href="#m710c602e25" x="41.15" y="220.240279" style="stroke: #000000; stroke-width: 0.8"/>
      </g>
     </g>
     <g id="text_11">
      <!-- 2 -->
      <g transform="translate(27.7875 224.039498)scale(0.1 -0.1)">
       <defs>
        <path id="DejaVuSans-32" d="M 1228 531 
L 3431 531 
L 3431 0 
L 469 0 
L 469 531 
Q 828 903 1448 1529 
Q 2069 2156 2228 2338 
Q 2531 2678 2651 2914 
Q 2772 3150 2772 3378 
Q 2772 3750 2511 3984 
Q 2250 4219 1831 4219 
Q 1534 4219 1204 4116 
Q 875 4013 500 3803 
L 500 4441 
Q 881 4594 1212 4672 
Q 1544 4750 1819 4750 
Q 2544 4750 2975 4387 
Q 3406 4025 3406 3419 
Q 3406 3131 3298 2873 
Q 3191 2616 2906 2266 
Q 2828 2175 2409 1742 
Q 1991 1309 1228 531 
z
" transform="scale(0.015625)"/>
       </defs>
       <use xlink:href="#DejaVuSans-32"/>
      </g>
     </g>
    </g>
    <g id="ytick_4">
     <g id="line2d_11">
      <g>
       <use xlink:href="#m710c602e25" x="41.15" y="179.680763" style="stroke: #000000; stroke-width: 0.8"/>
      </g>
     </g>
     <g id="text_12">
      <!-- 3 -->
      <g transform="translate(27.7875 183.479982)scale(0.1 -0.1)">
       <defs>
        <path id="DejaVuSans-33" d="M 2597 2516 
Q 3050 2419 3304 2112 
Q 3559 1806 3559 1356 
Q 3559 666 3084 287 
Q 2609 -91 1734 -91 
Q 1441 -91 1130 -33 
Q 819 25 488 141 
L 488 750 
Q 750 597 1062 519 
Q 1375 441 1716 441 
Q 2309 441 2620 675 
Q 2931 909 2931 1356 
Q 2931 1769 2642 2001 
Q 2353 2234 1838 2234 
L 1294 2234 
L 1294 2753 
L 1863 2753 
Q 2328 2753 2575 2939 
Q 2822 3125 2822 3475 
Q 2822 3834 2567 4026 
Q 2313 4219 1838 4219 
Q 1578 4219 1281 4162 
Q 984 4106 628 3988 
L 628 4550 
Q 988 4650 1302 4700 
Q 1616 4750 1894 4750 
Q 2613 4750 3031 4423 
Q 3450 4097 3450 3541 
Q 3450 3153 3228 2886 
Q 3006 2619 2597 2516 
z
" transform="scale(0.015625)"/>
       </defs>
       <use xlink:href="#DejaVuSans-33"/>
      </g>
     </g>
    </g>
    <g id="ytick_5">
     <g id="line2d_12">
      <g>
       <use xlink:href="#m710c602e25" x="41.15" y="139.121247" style="stroke: #000000; stroke-width: 0.8"/>
      </g>
     </g>
     <g id="text_13">
      <!-- 4 -->
      <g transform="translate(27.7875 142.920466)scale(0.1 -0.1)">
       <use xlink:href="#DejaVuSans-34"/>
      </g>
     </g>
    </g>
    <g id="ytick_6">
     <g id="line2d_13">
      <g>
       <use xlink:href="#m710c602e25" x="41.15" y="98.561731" style="stroke: #000000; stroke-width: 0.8"/>
      </g>
     </g>
     <g id="text_14">
      <!-- 5 -->
      <g transform="translate(27.7875 102.36095)scale(0.1 -0.1)">
       <use xlink:href="#DejaVuSans-35"/>
      </g>
     </g>
    </g>
    <g id="ytick_7">
     <g id="line2d_14">
      <g>
       <use xlink:href="#m710c602e25" x="41.15" y="58.002215" style="stroke: #000000; stroke-width: 0.8"/>
      </g>
     </g>
     <g id="text_15">
      <!-- 6 -->
      <g transform="translate(27.7875 61.801434)scale(0.1 -0.1)">
       <use xlink:href="#DejaVuSans-36"/>
      </g>
     </g>
    </g>
    <g id="text_16">
     <!-- Flux [W nm^-1 m^-2] -->
     <g transform="translate(21.291875 237.337812)rotate(-90)scale(0.12 -0.12)">
      <defs>
       <path id="DejaVuSans-46" d="M 628 4666 
L 3309 4666 
L 3309 4134 
L 1259 4134 
L 1259 2759 
L 3109 2759 
L 3109 2228 
L 1259 2228 
L 1259 0 
L 628 0 
L 628 4666 
z
" transform="scale(0.015625)"/>
       <path id="DejaVuSans-75" d="M 544 1381 
L 544 3500 
L 1119 3500 
L 1119 1403 
Q 1119 906 1312 657 
Q 1506 409 1894 409 
Q 2359 409 2629 706 
Q 2900 1003 2900 1516 
L 2900 3500 
L 3475 3500 
L 3475 0 
L 2900 0 
L 2900 538 
Q 2691 219 2414 64 
Q 2138 -91 1772 -91 
Q 1169 -91 856 284 
Q 544 659 544 1381 
z
M 1991 3584 
L 1991 3584 
z
" transform="scale(0.015625)"/>
       <path id="DejaVuSans-78" d="M 3513 3500 
L 2247 1797 
L 3578 0 
L 2900 0 
L 1881 1375 
L 863 0 
L 184 0 
L 1544 1831 
L 300 3500 
L 978 3500 
L 1906 2253 
L 2834 3500 
L 3513 3500 
z
" transform="scale(0.015625)"/>
       <path id="DejaVuSans-5e" d="M 2988 4666 
L 4684 2925 
L 4056 2925 
L 2681 4159 
L 1306 2925 
L 678 2925 
L 2375 4666 
L 2988 4666 
z
" transform="scale(0.015625)"/>
       <path id="DejaVuSans-2d" d="M 313 2009 
L 1997 2009 
L 1997 1497 
L 313 1497 
L 313 2009 
z
" transform="scale(0.015625)"/>
      </defs>
      <use xlink:href="#DejaVuSans-46"/>
      <use xlink:href="#DejaVuSans-6c" x="57.519531"/>
      <use xlink:href="#DejaVuSans-75" x="85.302734"/>
      <use xlink:href="#DejaVuSans-78" x="148.681641"/>
      <use xlink:href="#DejaVuSans-20" x="207.861328"/>
      <use xlink:href="#DejaVuSans-5b" x="239.648438"/>
      <use xlink:href="#DejaVuSans-57" x="278.662109"/>
      <use xlink:href="#DejaVuSans-20" x="377.539062"/>
      <use xlink:href="#DejaVuSans-6e" x="409.326172"/>
      <use xlink:href="#DejaVuSans-6d" x="472.705078"/>
      <use xlink:href="#DejaVuSans-5e" x="570.117188"/>
      <use xlink:href="#DejaVuSans-2d" x="653.90625"/>
      <use xlink:href="#DejaVuSans-31" x="689.990234"/>
      <use xlink:href="#DejaVuSans-20" x="753.613281"/>
      <use xlink:href="#DejaVuSans-6d" x="785.400391"/>
      <use xlink:href="#DejaVuSans-5e" x="882.8125"/>
      <use xlink:href="#DejaVuSans-2d" x="966.601562"/>
      <use xlink:href="#DejaVuSans-32" x="1002.685547"/>
      <use xlink:href="#DejaVuSans-5d" x="1066.308594"/>
     </g>
    </g>
    <g id="text_17">
     <!-- 1e−16 -->
     <g transform="translate(41.15 23.88)scale(0.1 -0.1)">
      <defs>
       <path id="DejaVuSans-2212" d="M 678 2272 
L 4684 2272 
L 4684 1741 
L 678 1741 
L 678 2272 
z
" transform="scale(0.015625)"/>
      </defs>
      <use xlink:href="#DejaVuSans-31"/>
      <use xlink:href="#DejaVuSans-65" x="63.623047"/>
      <use xlink:href="#DejaVuSans-2212" x="125.146484"/>
      <use xlink:href="#DejaVuSans-31" x="208.935547"/>
      <use xlink:href="#DejaVuSans-36" x="272.558594"/>
     </g>
    </g>
   </g>
   <g id="line2d_15">
    <path d="M 56.819318 279.605293 
L 57.735653 281.059592 
L 58.651987 286.348024 
L 59.568321 287.923943 
L 60.484656 284.974433 
L 61.40099 282.531667 
L 62.317325 283.113246 
L 63.233659 283.985946 
L 64.149993 281.782492 
L 65.066328 279.249876 
L 65.982662 281.142669 
L 66.898997 283.958451 
L 67.815331 283.175164 
L 68.731665 280.991731 
L 69.648 280.77384 
L 70.564334 282.592343 
L 71.480669 283.923838 
L 73.313337 283.179711 
L 74.229672 284.217097 
L 75.146006 285.77439 
L 76.062341 285.788848 
L 76.978675 284.717503 
L 77.895009 284.727308 
L 78.811344 285.916535 
L 79.727678 286.370352 
L 80.644012 285.613879 
L 81.560347 285.543104 
L 82.476681 287.465038 
L 83.393016 290.386184 
L 84.30935 291.945638 
L 85.225684 290.794646 
L 87.058353 284.927235 
L 87.974688 283.950617 
L 88.891022 284.65991 
L 89.807356 285.563664 
L 90.723691 285.28044 
L 91.640025 283.688657 
L 92.55636 281.849208 
L 93.472694 281.216233 
L 94.389028 282.274457 
L 95.305363 284.257727 
L 96.221697 285.728914 
L 97.138032 285.590962 
L 98.054366 283.770263 
L 98.9707 281.251683 
L 99.887035 279.221656 
L 100.803369 278.467014 
L 101.719704 278.992433 
L 103.552372 281.105824 
L 104.468707 281.618125 
L 105.385041 281.701464 
L 106.301376 281.66419 
L 107.21771 281.747326 
L 108.134044 281.944393 
L 109.050379 282.01711 
L 109.966713 281.661018 
L 110.883048 280.769558 
L 112.715716 278.484963 
L 113.632051 278.05841 
L 114.548385 278.564206 
L 115.46472 279.958891 
L 117.297388 283.656883 
L 118.213723 284.785312 
L 119.130057 284.887821 
L 120.046392 283.952686 
L 122.795395 278.761762 
L 123.711729 277.768627 
L 124.628064 277.488524 
L 125.544398 277.899813 
L 127.377067 279.473103 
L 128.293401 280.024041 
L 129.209736 280.20996 
L 130.12607 280.01197 
L 131.042404 279.505018 
L 132.875073 278.365069 
L 133.791407 277.99359 
L 134.707742 277.844956 
L 137.456745 277.699351 
L 138.373079 277.352481 
L 139.289414 276.736233 
L 141.122083 274.979985 
L 142.954751 273.267521 
L 143.871086 272.803001 
L 144.78742 272.680534 
L 145.703755 272.901814 
L 146.620089 273.472416 
L 149.369092 275.592904 
L 150.285427 276.028985 
L 151.201761 276.137529 
L 152.118095 275.895394 
L 153.03443 275.429004 
L 154.867099 273.968966 
L 155.783433 273.190748 
L 156.699767 272.626888 
L 157.616102 272.227315 
L 158.532436 272.099206 
L 159.448771 272.268797 
L 160.365105 272.67784 
L 164.030443 274.996367 
L 164.946777 275.251773 
L 165.863111 275.355576 
L 166.779446 275.242992 
L 167.69578 274.983658 
L 169.528449 274.028113 
L 171.361118 272.94243 
L 174.110121 271.268718 
L 175.026455 270.897942 
L 176.859124 270.429947 
L 177.775459 270.315788 
L 178.691793 270.314561 
L 180.524462 270.723471 
L 182.357131 271.314187 
L 183.273465 271.497752 
L 184.189799 271.552834 
L 185.106134 271.44989 
L 186.938802 270.700605 
L 187.855137 270.014552 
L 189.687806 267.789835 
L 191.520474 264.989897 
L 193.353143 262.0387 
L 194.269478 261.800668 
L 195.185812 261.949455 
L 196.102146 261.878561 
L 197.018481 263.456127 
L 197.934815 267.66979 
L 198.85115 270.387574 
L 199.767484 268.488577 
L 200.683818 260.405127 
L 202.516487 234.779483 
L 203.432822 226.119321 
L 204.349156 225.010302 
L 205.26549 231.547965 
L 208.014494 266.118971 
L 208.930828 272.186718 
L 209.847162 274.122939 
L 210.763497 273.337933 
L 213.5125 267.828401 
L 215.345169 265.400395 
L 217.177838 263.181593 
L 218.094172 261.818036 
L 219.010506 259.976527 
L 219.926841 257.508677 
L 221.75951 251.05599 
L 222.675844 248.55165 
L 223.592178 247.659495 
L 224.508513 248.591457 
L 225.424847 251.408988 
L 227.257516 258.918151 
L 228.17385 261.995166 
L 229.090185 264.012426 
L 230.006519 265.054115 
L 230.922854 265.394953 
L 231.839188 265.298199 
L 232.755522 264.796912 
L 233.671857 263.405355 
L 234.588191 260.996624 
L 235.504526 257.303863 
L 237.337194 246.828859 
L 240.086198 230.612808 
L 241.918866 220.114256 
L 244.667869 202.878882 
L 245.584204 198.786846 
L 246.500538 196.508081 
L 247.416873 196.944272 
L 248.333207 199.685419 
L 249.249541 204.778555 
L 251.08221 218.106125 
L 252.914879 232.010654 
L 253.831213 237.964318 
L 254.747548 243.001889 
L 255.663882 246.773496 
L 256.580217 249.301626 
L 257.496551 250.282009 
L 258.412885 249.55109 
L 259.32922 247.321055 
L 261.161889 240.327673 
L 262.078223 236.558578 
L 262.994557 233.432204 
L 263.910892 231.090286 
L 265.743561 227.526418 
L 266.659895 225.106303 
L 267.576229 221.503129 
L 268.492564 216.606702 
L 270.325233 203.151463 
L 272.157901 188.935105 
L 273.074236 183.154738 
L 273.99057 178.756186 
L 274.906905 175.570066 
L 276.739573 171.920124 
L 279.488577 168.215679 
L 280.404911 167.643778 
L 281.321245 167.618072 
L 282.23758 168.926077 
L 283.153914 171.831225 
L 284.070249 176.140642 
L 285.902917 188.255515 
L 287.735586 200.375909 
L 288.651921 205.247759 
L 289.568255 209.298323 
L 290.484589 211.246939 
L 291.400924 211.912755 
L 292.317258 211.39287 
L 293.233593 210.265419 
L 294.149927 208.204356 
L 295.066261 205.536129 
L 296.89893 198.319704 
L 297.815264 194.014695 
L 299.647933 183.271697 
L 300.564268 176.625003 
L 301.480602 171.45942 
L 302.396936 165.584202 
L 303.313271 161.122826 
L 304.229605 157.434434 
L 305.14594 154.927821 
L 306.062274 152.831469 
L 306.978608 152.709521 
L 307.894943 153.434222 
L 308.811277 154.767052 
L 309.727612 155.832988 
L 310.643946 156.184881 
L 311.56028 156.050474 
L 312.476615 155.038109 
L 314.309284 149.169113 
L 315.225618 144.855101 
L 317.058287 135.460889 
L 318.890956 126.463333 
L 319.80729 123.593154 
L 320.723624 121.379797 
L 321.639959 119.76519 
L 322.556293 119.015179 
L 324.388962 122.028107 
L 325.305296 122.891372 
L 327.137965 129.190666 
L 328.0543 131.096297 
L 329.886968 136.588895 
L 330.803303 138.071305 
L 331.719637 139.000584 
L 332.635972 138.98631 
L 333.552306 139.087592 
L 334.46864 138.468668 
L 335.384975 135.275233 
L 336.301309 134.065507 
L 337.217644 131.867072 
L 338.133978 127.616992 
L 339.050312 125.841547 
L 339.966647 123.162002 
L 340.882981 119.323319 
L 342.71565 114.634222 
L 343.631984 112.335604 
L 344.548319 109.661292 
L 345.464653 109.10233 
L 346.380988 107.133952 
L 347.297322 104.539309 
L 348.213656 104.835605 
L 349.129991 101.957582 
L 350.046325 100.526217 
L 350.962659 101.14806 
L 351.878994 97.712067 
L 352.795328 98.904534 
L 353.711663 97.488381 
L 354.627997 96.867513 
L 355.544331 98.320409 
L 356.460666 95.441839 
L 357.377 96.600905 
L 359.209669 92.183884 
L 360.126003 91.554185 
L 361.958672 85.305812 
L 362.875007 82.903689 
L 363.791341 76.768806 
L 364.707675 73.889078 
L 365.62401 67.742059 
L 366.540344 60.154123 
L 367.456679 56.963201 
L 368.373013 47.479012 
L 369.289347 46.693743 
L 370.205682 39.983636 
L 370.205682 39.983636 
" clip-path="url(#p7fdfcddaf0)" style="fill: none; stroke: #0000ff; stroke-width: 1.5; stroke-linecap: square"/>
   </g>
   <g id="line2d_16">
    <path d="M 56.819318 301.11541 
L 57.735653 299.735527 
L 58.651987 298.815827 
L 59.568321 299.49806 
L 60.484656 300.578275 
L 61.40099 300.47816 
L 62.317325 299.467199 
L 63.233659 299.341189 
L 64.149993 300.574621 
L 65.066328 301.362819 
L 65.982662 300.568588 
L 66.898997 299.924839 
L 67.815331 300.40491 
L 68.731665 301.102039 
L 69.648 300.969382 
L 70.564334 300.207073 
L 71.480669 299.769566 
L 72.397003 300.015161 
L 73.313337 300.39761 
L 76.062341 300.772172 
L 76.978675 300.648067 
L 78.811344 299.270662 
L 79.727678 299.178763 
L 81.560347 300.074401 
L 82.476681 300.210929 
L 84.30935 300.306838 
L 86.142019 300.705515 
L 87.974688 300.663455 
L 89.807356 300.686607 
L 91.640025 300.852426 
L 94.389028 300.639459 
L 97.138032 300.890245 
L 98.054366 300.741734 
L 100.803369 299.869612 
L 101.719704 299.853992 
L 105.385041 300.366526 
L 107.21771 300.35976 
L 109.050379 300.640417 
L 110.883048 300.941685 
L 111.799382 300.885733 
L 112.715716 300.654614 
L 115.46472 299.656758 
L 116.381054 299.504762 
L 120.046392 299.294132 
L 120.962726 298.933371 
L 121.87906 298.364909 
L 123.711729 296.735992 
L 126.460732 293.960889 
L 128.293401 292.434453 
L 129.209736 291.879602 
L 130.12607 291.512698 
L 131.042404 291.352785 
L 131.958739 291.433738 
L 132.875073 291.80912 
L 133.791407 292.424778 
L 134.707742 293.272076 
L 139.289414 298.229231 
L 140.205748 298.858155 
L 141.122083 299.291709 
L 142.038417 299.542244 
L 143.871086 299.677732 
L 146.620089 299.701398 
L 148.452758 299.927913 
L 152.118095 300.537813 
L 153.950764 300.582635 
L 155.783433 300.400033 
L 159.448771 299.912278 
L 161.281439 299.884441 
L 164.030443 300.168406 
L 167.69578 300.61737 
L 169.528449 300.641249 
L 172.277452 300.405796 
L 177.775459 299.761379 
L 181.440796 299.635732 
L 184.189799 299.509867 
L 186.022468 299.255458 
L 187.855137 298.81572 
L 189.687806 298.138495 
L 191.520474 297.262125 
L 194.269478 295.833848 
L 195.185812 295.610883 
L 196.102146 295.794333 
L 197.934815 298.049035 
L 198.85115 297.495688 
L 199.767484 294.476223 
L 200.683818 288.871773 
L 202.516487 275.094678 
L 203.432822 270.984709 
L 204.349156 270.742618 
L 205.26549 274.294482 
L 208.014494 292.863506 
L 208.930828 296.656891 
L 209.847162 298.460574 
L 210.763497 298.849571 
L 213.5125 297.998568 
L 215.345169 297.995787 
L 217.177838 298.135195 
L 220.843175 298.702742 
L 221.75951 298.601063 
L 224.508513 297.959557 
L 225.424847 297.937778 
L 229.090185 298.265376 
L 234.588191 297.863376 
L 238.253529 296.954845 
L 239.169863 297.048465 
L 240.086198 297.348045 
L 243.751535 299.047874 
L 245.584204 299.298682 
L 248.333207 299.469235 
L 250.165876 299.63127 
L 251.998545 299.589506 
L 255.663882 299.303077 
L 261.161889 299.435932 
L 262.994557 299.39093 
L 265.743561 299.609577 
L 267.576229 299.724657 
L 269.408898 299.646812 
L 272.157901 299.456636 
L 274.906905 299.554846 
L 276.739573 299.593811 
L 279.488577 299.374159 
L 281.321245 299.245651 
L 283.153914 299.299537 
L 286.819252 299.54474 
L 289.568255 299.401051 
L 292.317258 299.267554 
L 296.89893 299.345409 
L 303.313271 299.020129 
L 306.978608 299.270832 
L 308.811277 299.087677 
L 310.643946 298.602994 
L 314.309284 297.505795 
L 316.141952 297.24832 
L 318.890956 297.289696 
L 327.137965 297.920577 
L 328.970634 297.875701 
L 330.803303 297.558799 
L 332.635972 296.849823 
L 334.46864 295.870631 
L 336.301309 294.753164 
L 338.133978 293.808339 
L 339.966647 293.40364 
L 340.882981 293.318251 
L 342.71565 293.604401 
L 344.548319 294.166211 
L 346.380988 294.909431 
L 351.878994 296.684923 
L 353.711663 297.230718 
L 355.544331 297.703187 
L 357.377 297.91034 
L 358.293335 297.855012 
L 360.126003 297.389923 
L 361.042338 296.905081 
L 362.875007 295.537 
L 365.62401 292.635948 
L 366.540344 291.578195 
L 368.373013 289.903976 
L 370.205682 289.241003 
L 370.205682 289.241003 
" clip-path="url(#p7fdfcddaf0)" style="fill: none; stroke: #008000; stroke-width: 1.5; stroke-linecap: square"/>
   </g>
   <g id="line2d_17">
    <path d="M 56.819318 299.913507 
L 57.735653 300.100507 
L 62.317325 302.056364 
L 63.233659 301.516148 
L 64.149993 300.451006 
L 65.066328 300.146873 
L 65.982662 300.992351 
L 66.898997 301.578824 
L 67.815331 301.252696 
L 68.731665 300.632818 
L 69.648 300.493918 
L 71.480669 301.494081 
L 72.397003 301.677523 
L 73.313337 301.419422 
L 75.146006 300.370037 
L 76.062341 300.171048 
L 76.978675 300.609761 
L 77.895009 301.472593 
L 78.811344 302.013382 
L 79.727678 301.790821 
L 80.644012 301.197674 
L 81.560347 300.917331 
L 82.476681 301.131002 
L 83.393016 301.46808 
L 84.30935 301.492409 
L 87.058353 300.423339 
L 87.974688 300.592962 
L 88.891022 300.946431 
L 89.807356 301.147641 
L 90.723691 301.006745 
L 92.55636 300.27277 
L 93.472694 300.217126 
L 94.389028 300.483307 
L 95.305363 300.874437 
L 96.221697 301.116251 
L 97.138032 301.045687 
L 99.887035 300.042929 
L 100.803369 300.035604 
L 103.552372 300.57832 
L 104.468707 300.521513 
L 108.134044 299.811495 
L 111.799382 299.713598 
L 114.548385 299.280773 
L 116.381054 299.255754 
L 119.130057 299.385818 
L 121.87906 299.169954 
L 123.711729 299.052831 
L 126.460732 299.166531 
L 128.293401 299.201449 
L 130.12607 299.0574 
L 133.791407 298.648605 
L 136.540411 298.692173 
L 139.289414 298.773702 
L 142.038417 298.589075 
L 147.536423 298.023783 
L 154.867099 297.433203 
L 158.532436 297.186352 
L 164.946777 296.914404 
L 171.361118 296.426187 
L 191.520474 295.559323 
L 195.185812 295.358756 
L 197.018481 295.664122 
L 197.934815 295.649048 
L 200.683818 295.04996 
L 201.600153 295.206362 
L 202.516487 295.49012 
L 203.432822 295.656188 
L 204.349156 295.514877 
L 207.098159 294.305183 
L 208.014494 294.392261 
L 209.847162 295.098596 
L 210.763497 295.236079 
L 211.679831 295.072512 
L 213.5125 294.393767 
L 214.428834 294.313476 
L 216.261503 294.760412 
L 217.177838 294.934655 
L 218.094172 294.864141 
L 220.843175 294.085522 
L 221.75951 294.150844 
L 223.592178 294.661798 
L 224.508513 294.736534 
L 225.424847 294.583099 
L 227.257516 293.895234 
L 228.17385 293.712097 
L 229.090185 293.761612 
L 231.839188 294.357926 
L 232.755522 294.319907 
L 235.504526 293.823502 
L 236.42086 293.859722 
L 239.169863 294.287889 
L 240.086198 294.193726 
L 242.835201 293.538444 
L 243.751535 293.498328 
L 247.416873 293.876527 
L 249.249541 293.492884 
L 251.08221 293.071222 
L 251.998545 293.049892 
L 255.663882 293.492856 
L 257.496551 293.308109 
L 259.32922 292.994108 
L 261.161889 292.970544 
L 264.827226 293.130708 
L 268.492564 292.944478 
L 273.074236 293.255414 
L 277.655908 292.781209 
L 279.488577 293.030245 
L 281.321245 293.336547 
L 283.153914 293.323127 
L 287.735586 292.529378 
L 288.651921 292.569413 
L 292.317258 293.192112 
L 293.233593 293.250815 
L 295.066261 293.064373 
L 297.815264 292.584353 
L 299.647933 292.524006 
L 300.564268 292.537493 
L 302.396936 292.732705 
L 304.229605 292.729616 
L 306.062274 292.362444 
L 308.811277 291.799323 
L 310.643946 291.71401 
L 312.476615 291.981073 
L 316.141952 292.515728 
L 317.974621 292.499702 
L 320.723624 292.163369 
L 322.556293 292.017 
L 330.803303 292.542099 
L 336.301309 292.217571 
L 345.464653 292.571048 
L 350.962659 292.372523 
L 351.878994 292.17744 
L 352.795328 292.163085 
L 354.627997 291.86158 
L 355.544331 291.807519 
L 356.460666 291.556465 
L 357.377 291.523343 
L 359.209669 291.295039 
L 361.958672 291.586078 
L 365.62401 292.627391 
L 367.456679 292.903359 
L 369.289347 292.548572 
L 370.205682 291.972931 
L 370.205682 291.972931 
" clip-path="url(#p7fdfcddaf0)" style="fill: none; stroke: #ff0000; stroke-width: 1.5; stroke-linecap: square"/>
   </g>
   <g id="patch_3">
    <path d="M 41.15 315.16 
L 41.15 26.88 
" style="fill: none; stroke: #000000; stroke-width: 0.8; stroke-linejoin: miter; stroke-linecap: square"/>
   </g>
   <g id="patch_4">
    <path d="M 385.875 315.16 
L 385.875 26.88 
" style="fill: none; stroke: #000000; stroke-width: 0.8; stroke-linejoin: miter; stroke-linecap: square"/>
   </g>
   <g id="patch_5">
    <path d="M 41.15 315.16 
L 385.875 315.16 
" style="fill: none; stroke: #000000; stroke-width: 0.8; stroke-linejoin: miter; stroke-linecap: square"/>
   </g>
   <g id="patch_6">
    <path d="M 41.15 26.88 
L 385.875 26.88 
" style="fill: none; stroke: #000000; stroke-width: 0.8; stroke-linejoin: miter; stroke-linecap: square"/>
   </g>
   <g id="text_18">
    <!-- Stars -->
    <g transform="translate(198.082187 20.88)scale(0.12 -0.12)">
     <defs>
      <path id="DejaVuSans-53" d="M 3425 4513 
L 3425 3897 
Q 3066 4069 2747 4153 
Q 2428 4238 2131 4238 
Q 1616 4238 1336 4038 
Q 1056 3838 1056 3469 
Q 1056 3159 1242 3001 
Q 1428 2844 1947 2747 
L 2328 2669 
Q 3034 2534 3370 2195 
Q 3706 1856 3706 1288 
Q 3706 609 3251 259 
Q 2797 -91 1919 -91 
Q 1588 -91 1214 -16 
Q 841 59 441 206 
L 441 856 
Q 825 641 1194 531 
Q 1563 422 1919 422 
Q 2459 422 2753 634 
Q 3047 847 3047 1241 
Q 3047 1584 2836 1778 
Q 2625 1972 2144 2069 
L 1759 2144 
Q 1053 2284 737 2584 
Q 422 2884 422 3419 
Q 422 4038 858 4394 
Q 1294 4750 2059 4750 
Q 2388 4750 2728 4690 
Q 3069 4631 3425 4513 
z
" transform="scale(0.015625)"/>
      <path id="DejaVuSans-72" d="M 2631 2963 
Q 2534 3019 2420 3045 
Q 2306 3072 2169 3072 
Q 1681 3072 1420 2755 
Q 1159 2438 1159 1844 
L 1159 0 
L 581 0 
L 581 3500 
L 1159 3500 
L 1159 2956 
Q 1341 3275 1631 3429 
Q 1922 3584 2338 3584 
Q 2397 3584 2469 3576 
Q 2541 3569 2628 3553 
L 2631 2963 
z
" transform="scale(0.015625)"/>
      <path id="DejaVuSans-73" d="M 2834 3397 
L 2834 2853 
Q 2591 2978 2328 3040 
Q 2066 3103 1784 3103 
Q 1356 3103 1142 2972 
Q 928 2841 928 2578 
Q 928 2378 1081 2264 
Q 1234 2150 1697 2047 
L 1894 2003 
Q 2506 1872 2764 1633 
Q 3022 1394 3022 966 
Q 3022 478 2636 193 
Q 2250 -91 1575 -91 
Q 1294 -91 989 -36 
Q 684 19 347 128 
L 347 722 
Q 666 556 975 473 
Q 1284 391 1588 391 
Q 1994 391 2212 530 
Q 2431 669 2431 922 
Q 2431 1156 2273 1281 
Q 2116 1406 1581 1522 
L 1381 1569 
Q 847 1681 609 1914 
Q 372 2147 372 2553 
Q 372 3047 722 3315 
Q 1072 3584 1716 3584 
Q 2034 3584 2315 3537 
Q 2597 3491 2834 3397 
z
" transform="scale(0.015625)"/>
     </defs>
     <use xlink:href="#DejaVuSans-53"/>
     <use xlink:href="#DejaVuSans-74" x="63.476562"/>
     <use xlink:href="#DejaVuSans-61" x="102.685547"/>
     <use xlink:href="#DejaVuSans-72" x="163.964844"/>
     <use xlink:href="#DejaVuSans-73" x="205.078125"/>
    </g>
   </g>
   <g id="legend_1">
    <g id="patch_7">
     <path d="M 46.05 63.304062 
L 187.556094 63.304062 
Q 188.956094 63.304062 188.956094 61.904063 
L 188.956094 31.78 
Q 188.956094 30.38 187.556094 30.38 
L 46.05 30.38 
Q 44.65 30.38 44.65 31.78 
L 44.65 61.904063 
Q 44.65 63.304062 46.05 63.304062 
z
" style="fill: #ffffff; opacity: 0.8; stroke: #cccccc; stroke-linejoin: miter"/>
    </g>
    <g id="line2d_18">
     <path d="M 47.45 36.048906 
L 54.45 36.048906 
L 61.45 36.048906 
" style="fill: none; stroke: #0000ff; stroke-width: 1.5; stroke-linecap: square"/>
    </g>
    <g id="text_19">
     <!-- SY (EM* AS 323) -->
     <g transform="translate(67.05 38.498906)scale(0.07 -0.07)">
      <defs>
       <path id="DejaVuSans-59" d="M -13 4666 
L 666 4666 
L 1959 2747 
L 3244 4666 
L 3922 4666 
L 2272 2222 
L 2272 0 
L 1638 0 
L 1638 2222 
L -13 4666 
z
" transform="scale(0.015625)"/>
       <path id="DejaVuSans-28" d="M 1984 4856 
Q 1566 4138 1362 3434 
Q 1159 2731 1159 2009 
Q 1159 1288 1364 580 
Q 1569 -128 1984 -844 
L 1484 -844 
Q 1016 -109 783 600 
Q 550 1309 550 2009 
Q 550 2706 781 3412 
Q 1013 4119 1484 4856 
L 1984 4856 
z
" transform="scale(0.015625)"/>
       <path id="DejaVuSans-45" d="M 628 4666 
L 3578 4666 
L 3578 4134 
L 1259 4134 
L 1259 2753 
L 3481 2753 
L 3481 2222 
L 1259 2222 
L 1259 531 
L 3634 531 
L 3634 0 
L 628 0 
L 628 4666 
z
" transform="scale(0.015625)"/>
       <path id="DejaVuSans-4d" d="M 628 4666 
L 1569 4666 
L 2759 1491 
L 3956 4666 
L 4897 4666 
L 4897 0 
L 4281 0 
L 4281 4097 
L 3078 897 
L 2444 897 
L 1241 4097 
L 1241 0 
L 628 0 
L 628 4666 
z
" transform="scale(0.015625)"/>
       <path id="DejaVuSans-2a" d="M 3009 3897 
L 1888 3291 
L 3009 2681 
L 2828 2375 
L 1778 3009 
L 1778 1831 
L 1422 1831 
L 1422 3009 
L 372 2375 
L 191 2681 
L 1313 3291 
L 191 3897 
L 372 4206 
L 1422 3572 
L 1422 4750 
L 1778 4750 
L 1778 3572 
L 2828 4206 
L 3009 3897 
z
" transform="scale(0.015625)"/>
       <path id="DejaVuSans-41" d="M 2188 4044 
L 1331 1722 
L 3047 1722 
L 2188 4044 
z
M 1831 4666 
L 2547 4666 
L 4325 0 
L 3669 0 
L 3244 1197 
L 1141 1197 
L 716 0 
L 50 0 
L 1831 4666 
z
" transform="scale(0.015625)"/>
       <path id="DejaVuSans-29" d="M 513 4856 
L 1013 4856 
Q 1481 4119 1714 3412 
Q 1947 2706 1947 2009 
Q 1947 1309 1714 600 
Q 1481 -109 1013 -844 
L 513 -844 
Q 928 -128 1133 580 
Q 1338 1288 1338 2009 
Q 1338 2731 1133 3434 
Q 928 4138 513 4856 
z
" transform="scale(0.015625)"/>
      </defs>
      <use xlink:href="#DejaVuSans-53"/>
      <use xlink:href="#DejaVuSans-59" x="63.476562"/>
      <use xlink:href="#DejaVuSans-20" x="124.560547"/>
      <use xlink:href="#DejaVuSans-28" x="156.347656"/>
      <use xlink:href="#DejaVuSans-45" x="195.361328"/>
      <use xlink:href="#DejaVuSans-4d" x="258.544922"/>
      <use xlink:href="#DejaVuSans-2a" x="344.824219"/>
      <use xlink:href="#DejaVuSans-20" x="394.824219"/>
      <use xlink:href="#DejaVuSans-41" x="426.611328"/>
      <use xlink:href="#DejaVuSans-53" x="495.019531"/>
      <use xlink:href="#DejaVuSans-20" x="558.496094"/>
      <use xlink:href="#DejaVuSans-33" x="590.283203"/>
      <use xlink:href="#DejaVuSans-32" x="653.90625"/>
      <use xlink:href="#DejaVuSans-33" x="717.529297"/>
      <use xlink:href="#DejaVuSans-29" x="781.152344"/>
     </g>
    </g>
    <g id="line2d_19">
     <path d="M 47.45 46.323594 
L 54.45 46.323594 
L 61.45 46.323594 
" style="fill: none; stroke: #008000; stroke-width: 1.5; stroke-linecap: square"/>
    </g>
    <g id="text_20">
     <!-- PN (Hen 2-442) -->
     <g transform="translate(67.05 48.773594)scale(0.07 -0.07)">
      <defs>
       <path id="DejaVuSans-50" d="M 1259 4147 
L 1259 2394 
L 2053 2394 
Q 2494 2394 2734 2622 
Q 2975 2850 2975 3272 
Q 2975 3691 2734 3919 
Q 2494 4147 2053 4147 
L 1259 4147 
z
M 628 4666 
L 2053 4666 
Q 2838 4666 3239 4311 
Q 3641 3956 3641 3272 
Q 3641 2581 3239 2228 
Q 2838 1875 2053 1875 
L 1259 1875 
L 1259 0 
L 628 0 
L 628 4666 
z
" transform="scale(0.015625)"/>
       <path id="DejaVuSans-4e" d="M 628 4666 
L 1478 4666 
L 3547 763 
L 3547 4666 
L 4159 4666 
L 4159 0 
L 3309 0 
L 1241 3903 
L 1241 0 
L 628 0 
L 628 4666 
z
" transform="scale(0.015625)"/>
       <path id="DejaVuSans-48" d="M 628 4666 
L 1259 4666 
L 1259 2753 
L 3553 2753 
L 3553 4666 
L 4184 4666 
L 4184 0 
L 3553 0 
L 3553 2222 
L 1259 2222 
L 1259 0 
L 628 0 
L 628 4666 
z
" transform="scale(0.015625)"/>
      </defs>
      <use xlink:href="#DejaVuSans-50"/>
      <use xlink:href="#DejaVuSans-4e" x="60.302734"/>
      <use xlink:href="#DejaVuSans-20" x="135.107422"/>
      <use xlink:href="#DejaVuSans-28" x="166.894531"/>
      <use xlink:href="#DejaVuSans-48" x="205.908203"/>
      <use xlink:href="#DejaVuSans-65" x="281.103516"/>
      <use xlink:href="#DejaVuSans-6e" x="342.626953"/>
      <use xlink:href="#DejaVuSans-20" x="406.005859"/>
      <use xlink:href="#DejaVuSans-32" x="437.792969"/>
      <use xlink:href="#DejaVuSans-2d" x="501.416016"/>
      <use xlink:href="#DejaVuSans-34" x="537.5"/>
      <use xlink:href="#DejaVuSans-34" x="601.123047"/>
      <use xlink:href="#DejaVuSans-32" x="664.746094"/>
      <use xlink:href="#DejaVuSans-29" x="728.369141"/>
     </g>
    </g>
    <g id="line2d_20">
     <path d="M 47.45 56.598281 
L 54.45 56.598281 
L 61.45 56.598281 
" style="fill: none; stroke: #ff0000; stroke-width: 1.5; stroke-linecap: square"/>
    </g>
    <g id="text_21">
     <!-- RG (2MASS J04390924+2847545) -->
     <g transform="translate(67.05 59.048281)scale(0.07 -0.07)">
      <defs>
       <path id="DejaVuSans-52" d="M 2841 2188 
Q 3044 2119 3236 1894 
Q 3428 1669 3622 1275 
L 4263 0 
L 3584 0 
L 2988 1197 
Q 2756 1666 2539 1819 
Q 2322 1972 1947 1972 
L 1259 1972 
L 1259 0 
L 628 0 
L 628 4666 
L 2053 4666 
Q 2853 4666 3247 4331 
Q 3641 3997 3641 3322 
Q 3641 2881 3436 2590 
Q 3231 2300 2841 2188 
z
M 1259 4147 
L 1259 2491 
L 2053 2491 
Q 2509 2491 2742 2702 
Q 2975 2913 2975 3322 
Q 2975 3731 2742 3939 
Q 2509 4147 2053 4147 
L 1259 4147 
z
" transform="scale(0.015625)"/>
       <path id="DejaVuSans-47" d="M 3809 666 
L 3809 1919 
L 2778 1919 
L 2778 2438 
L 4434 2438 
L 4434 434 
Q 4069 175 3628 42 
Q 3188 -91 2688 -91 
Q 1594 -91 976 548 
Q 359 1188 359 2328 
Q 359 3472 976 4111 
Q 1594 4750 2688 4750 
Q 3144 4750 3555 4637 
Q 3966 4525 4313 4306 
L 4313 3634 
Q 3963 3931 3569 4081 
Q 3175 4231 2741 4231 
Q 1884 4231 1454 3753 
Q 1025 3275 1025 2328 
Q 1025 1384 1454 906 
Q 1884 428 2741 428 
Q 3075 428 3337 486 
Q 3600 544 3809 666 
z
" transform="scale(0.015625)"/>
       <path id="DejaVuSans-4a" d="M 628 4666 
L 1259 4666 
L 1259 325 
Q 1259 -519 939 -900 
Q 619 -1281 -91 -1281 
L -331 -1281 
L -331 -750 
L -134 -750 
Q 284 -750 456 -515 
Q 628 -281 628 325 
L 628 4666 
z
" transform="scale(0.015625)"/>
       <path id="DejaVuSans-2b" d="M 2944 4013 
L 2944 2272 
L 4684 2272 
L 4684 1741 
L 2944 1741 
L 2944 0 
L 2419 0 
L 2419 1741 
L 678 1741 
L 678 2272 
L 2419 2272 
L 2419 4013 
L 2944 4013 
z
" transform="scale(0.015625)"/>
      </defs>
      <use xlink:href="#DejaVuSans-52"/>
      <use xlink:href="#DejaVuSans-47" x="69.482422"/>
      <use xlink:href="#DejaVuSans-20" x="146.972656"/>
      <use xlink:href="#DejaVuSans-28" x="178.759766"/>
      <use xlink:href="#DejaVuSans-32" x="217.773438"/>
      <use xlink:href="#DejaVuSans-4d" x="281.396484"/>
      <use xlink:href="#DejaVuSans-41" x="367.675781"/>
      <use xlink:href="#DejaVuSans-53" x="436.083984"/>
      <use xlink:href="#DejaVuSans-53" x="499.560547"/>
      <use xlink:href="#DejaVuSans-20" x="563.037109"/>
      <use xlink:href="#DejaVuSans-4a" x="594.824219"/>
      <use xlink:href="#DejaVuSans-30" x="624.316406"/>
      <use xlink:href="#DejaVuSans-34" x="687.939453"/>
      <use xlink:href="#DejaVuSans-33" x="751.5625"/>
      <use xlink:href="#DejaVuSans-39" x="815.185547"/>
      <use xlink:href="#DejaVuSans-30" x="878.808594"/>
      <use xlink:href="#DejaVuSans-39" x="942.431641"/>
      <use xlink:href="#DejaVuSans-32" x="1006.054688"/>
      <use xlink:href="#DejaVuSans-34" x="1069.677734"/>
      <use xlink:href="#DejaVuSans-2b" x="1133.300781"/>
      <use xlink:href="#DejaVuSans-32" x="1217.089844"/>
      <use xlink:href="#DejaVuSans-38" x="1280.712891"/>
      <use xlink:href="#DejaVuSans-34" x="1344.335938"/>
      <use xlink:href="#DejaVuSans-37" x="1407.958984"/>
      <use xlink:href="#DejaVuSans-35" x="1471.582031"/>
      <use xlink:href="#DejaVuSans-34" x="1535.205078"/>
      <use xlink:href="#DejaVuSans-35" x="1598.828125"/>
      <use xlink:href="#DejaVuSans-29" x="1662.451172"/>
     </g>
    </g>
   </g>
  </g>
  <g id="axes_2">
   <g id="patch_8">
    <path d="M 436.475 315.16 
L 781.2 315.16 
L 781.2 26.88 
L 436.475 26.88 
z
" style="fill: #ffffff"/>
   </g>
   <g id="matplotlib.axis_3">
    <g id="xtick_8">
     <g id="line2d_21">
      <g>
       <use xlink:href="#m94f4c4e88f" x="481.467019" y="315.16" style="stroke: #000000; stroke-width: 0.8"/>
      </g>
     </g>
     <g id="text_22">
      <!-- 400 -->
      <g transform="translate(471.923269 329.758438)scale(0.1 -0.1)">
       <use xlink:href="#DejaVuSans-34"/>
       <use xlink:href="#DejaVuSans-30" x="63.623047"/>
       <use xlink:href="#DejaVuSans-30" x="127.246094"/>
      </g>
     </g>
    </g>
    <g id="xtick_9">
     <g id="line2d_22">
      <g>
       <use xlink:href="#m94f4c4e88f" x="527.283739" y="315.16" style="stroke: #000000; stroke-width: 0.8"/>
      </g>
     </g>
     <g id="text_23">
      <!-- 500 -->
      <g transform="translate(517.739989 329.758438)scale(0.1 -0.1)">
       <use xlink:href="#DejaVuSans-35"/>
       <use xlink:href="#DejaVuSans-30" x="63.623047"/>
       <use xlink:href="#DejaVuSans-30" x="127.246094"/>
      </g>
     </g>
    </g>
    <g id="xtick_10">
     <g id="line2d_23">
      <g>
       <use xlink:href="#m94f4c4e88f" x="573.100459" y="315.16" style="stroke: #000000; stroke-width: 0.8"/>
      </g>
     </g>
     <g id="text_24">
      <!-- 600 -->
      <g transform="translate(563.556709 329.758438)scale(0.1 -0.1)">
       <use xlink:href="#DejaVuSans-36"/>
       <use xlink:href="#DejaVuSans-30" x="63.623047"/>
       <use xlink:href="#DejaVuSans-30" x="127.246094"/>
      </g>
     </g>
    </g>
    <g id="xtick_11">
     <g id="line2d_24">
      <g>
       <use xlink:href="#m94f4c4e88f" x="618.917178" y="315.16" style="stroke: #000000; stroke-width: 0.8"/>
      </g>
     </g>
     <g id="text_25">
      <!-- 700 -->
      <g transform="translate(609.373428 329.758438)scale(0.1 -0.1)">
       <use xlink:href="#DejaVuSans-37"/>
       <use xlink:href="#DejaVuSans-30" x="63.623047"/>
       <use xlink:href="#DejaVuSans-30" x="127.246094"/>
      </g>
     </g>
    </g>
    <g id="xtick_12">
     <g id="line2d_25">
      <g>
       <use xlink:href="#m94f4c4e88f" x="664.733898" y="315.16" style="stroke: #000000; stroke-width: 0.8"/>
      </g>
     </g>
     <g id="text_26">
      <!-- 800 -->
      <g transform="translate(655.190148 329.758438)scale(0.1 -0.1)">
       <use xlink:href="#DejaVuSans-38"/>
       <use xlink:href="#DejaVuSans-30" x="63.623047"/>
       <use xlink:href="#DejaVuSans-30" x="127.246094"/>
      </g>
     </g>
    </g>
    <g id="xtick_13">
     <g id="line2d_26">
      <g>
       <use xlink:href="#m94f4c4e88f" x="710.550618" y="315.16" style="stroke: #000000; stroke-width: 0.8"/>
      </g>
     </g>
     <g id="text_27">
      <!-- 900 -->
      <g transform="translate(701.006868 329.758438)scale(0.1 -0.1)">
       <use xlink:href="#DejaVuSans-39"/>
       <use xlink:href="#DejaVuSans-30" x="63.623047"/>
       <use xlink:href="#DejaVuSans-30" x="127.246094"/>
      </g>
     </g>
    </g>
    <g id="xtick_14">
     <g id="line2d_27">
      <g>
       <use xlink:href="#m94f4c4e88f" x="756.367338" y="315.16" style="stroke: #000000; stroke-width: 0.8"/>
      </g>
     </g>
     <g id="text_28">
      <!-- 1000 -->
      <g transform="translate(743.642338 329.758438)scale(0.1 -0.1)">
       <use xlink:href="#DejaVuSans-31"/>
       <use xlink:href="#DejaVuSans-30" x="63.623047"/>
       <use xlink:href="#DejaVuSans-30" x="127.246094"/>
       <use xlink:href="#DejaVuSans-30" x="190.869141"/>
      </g>
     </g>
    </g>
    <g id="text_29">
     <!-- Wavelength [nm] -->
     <g transform="translate(557.006875 344.95625)scale(0.12 -0.12)">
      <use xlink:href="#DejaVuSans-57"/>
      <use xlink:href="#DejaVuSans-61" x="92.501953"/>
      <use xlink:href="#DejaVuSans-76" x="153.78125"/>
      <use xlink:href="#DejaVuSans-65" x="212.960938"/>
      <use xlink:href="#DejaVuSans-6c" x="274.484375"/>
      <use xlink:href="#DejaVuSans-65" x="302.267578"/>
      <use xlink:href="#DejaVuSans-6e" x="363.791016"/>
      <use xlink:href="#DejaVuSans-67" x="427.169922"/>
      <use xlink:href="#DejaVuSans-74" x="490.646484"/>
      <use xlink:href="#DejaVuSans-68" x="529.855469"/>
      <use xlink:href="#DejaVuSans-20" x="593.234375"/>
      <use xlink:href="#DejaVuSans-5b" x="625.021484"/>
      <use xlink:href="#DejaVuSans-6e" x="664.035156"/>
      <use xlink:href="#DejaVuSans-6d" x="727.414062"/>
      <use xlink:href="#DejaVuSans-5d" x="824.826172"/>
     </g>
    </g>
   </g>
   <g id="matplotlib.axis_4">
    <g id="ytick_8">
     <g id="line2d_28">
      <g>
       <use xlink:href="#m710c602e25" x="436.475" y="302.056364" style="stroke: #000000; stroke-width: 0.8"/>
      </g>
     </g>
     <g id="text_30">
      <!-- 0.0 -->
      <g transform="translate(413.571875 305.855582)scale(0.1 -0.1)">
       <defs>
        <path id="DejaVuSans-2e" d="M 684 794 
L 1344 794 
L 1344 0 
L 684 0 
L 684 794 
z
" transform="scale(0.015625)"/>
       </defs>
       <use xlink:href="#DejaVuSans-30"/>
       <use xlink:href="#DejaVuSans-2e" x="63.623047"/>
       <use xlink:href="#DejaVuSans-30" x="95.410156"/>
      </g>
     </g>
    </g>
    <g id="ytick_9">
     <g id="line2d_29">
      <g>
       <use xlink:href="#m710c602e25" x="436.475" y="249.641818" style="stroke: #000000; stroke-width: 0.8"/>
      </g>
     </g>
     <g id="text_31">
      <!-- 0.2 -->
      <g transform="translate(413.571875 253.441037)scale(0.1 -0.1)">
       <use xlink:href="#DejaVuSans-30"/>
       <use xlink:href="#DejaVuSans-2e" x="63.623047"/>
       <use xlink:href="#DejaVuSans-32" x="95.410156"/>
      </g>
     </g>
    </g>
    <g id="ytick_10">
     <g id="line2d_30">
      <g>
       <use xlink:href="#m710c602e25" x="436.475" y="197.227273" style="stroke: #000000; stroke-width: 0.8"/>
      </g>
     </g>
     <g id="text_32">
      <!-- 0.4 -->
      <g transform="translate(413.571875 201.026491)scale(0.1 -0.1)">
       <use xlink:href="#DejaVuSans-30"/>
       <use xlink:href="#DejaVuSans-2e" x="63.623047"/>
       <use xlink:href="#DejaVuSans-34" x="95.410156"/>
      </g>
     </g>
    </g>
    <g id="ytick_11">
     <g id="line2d_31">
      <g>
       <use xlink:href="#m710c602e25" x="436.475" y="144.812727" style="stroke: #000000; stroke-width: 0.8"/>
      </g>
     </g>
     <g id="text_33">
      <!-- 0.6 -->
      <g transform="translate(413.571875 148.611946)scale(0.1 -0.1)">
       <use xlink:href="#DejaVuSans-30"/>
       <use xlink:href="#DejaVuSans-2e" x="63.623047"/>
       <use xlink:href="#DejaVuSans-36" x="95.410156"/>
      </g>
     </g>
    </g>
    <g id="ytick_12">
     <g id="line2d_32">
      <g>
       <use xlink:href="#m710c602e25" x="436.475" y="92.398182" style="stroke: #000000; stroke-width: 0.8"/>
      </g>
     </g>
     <g id="text_34">
      <!-- 0.8 -->
      <g transform="translate(413.571875 96.197401)scale(0.1 -0.1)">
       <use xlink:href="#DejaVuSans-30"/>
       <use xlink:href="#DejaVuSans-2e" x="63.623047"/>
       <use xlink:href="#DejaVuSans-38" x="95.410156"/>
      </g>
     </g>
    </g>
    <g id="ytick_13">
     <g id="line2d_33">
      <g>
       <use xlink:href="#m710c602e25" x="436.475" y="39.983636" style="stroke: #000000; stroke-width: 0.8"/>
      </g>
     </g>
     <g id="text_35">
      <!-- 1.0 -->
      <g transform="translate(413.571875 43.782855)scale(0.1 -0.1)">
       <use xlink:href="#DejaVuSans-31"/>
       <use xlink:href="#DejaVuSans-2e" x="63.623047"/>
       <use xlink:href="#DejaVuSans-30" x="95.410156"/>
      </g>
     </g>
    </g>
    <g id="text_36">
     <!-- Scaled Flux -->
     <g transform="translate(407.07625 205.35125)rotate(-90)scale(0.12 -0.12)">
      <defs>
       <path id="DejaVuSans-63" d="M 3122 3366 
L 3122 2828 
Q 2878 2963 2633 3030 
Q 2388 3097 2138 3097 
Q 1578 3097 1268 2742 
Q 959 2388 959 1747 
Q 959 1106 1268 751 
Q 1578 397 2138 397 
Q 2388 397 2633 464 
Q 2878 531 3122 666 
L 3122 134 
Q 2881 22 2623 -34 
Q 2366 -91 2075 -91 
Q 1284 -91 818 406 
Q 353 903 353 1747 
Q 353 2603 823 3093 
Q 1294 3584 2113 3584 
Q 2378 3584 2631 3529 
Q 2884 3475 3122 3366 
z
" transform="scale(0.015625)"/>
       <path id="DejaVuSans-64" d="M 2906 2969 
L 2906 4863 
L 3481 4863 
L 3481 0 
L 2906 0 
L 2906 525 
Q 2725 213 2448 61 
Q 2172 -91 1784 -91 
Q 1150 -91 751 415 
Q 353 922 353 1747 
Q 353 2572 751 3078 
Q 1150 3584 1784 3584 
Q 2172 3584 2448 3432 
Q 2725 3281 2906 2969 
z
M 947 1747 
Q 947 1113 1208 752 
Q 1469 391 1925 391 
Q 2381 391 2643 752 
Q 2906 1113 2906 1747 
Q 2906 2381 2643 2742 
Q 2381 3103 1925 3103 
Q 1469 3103 1208 2742 
Q 947 2381 947 1747 
z
" transform="scale(0.015625)"/>
      </defs>
      <use xlink:href="#DejaVuSans-53"/>
      <use xlink:href="#DejaVuSans-63" x="63.476562"/>
      <use xlink:href="#DejaVuSans-61" x="118.457031"/>
      <use xlink:href="#DejaVuSans-6c" x="179.736328"/>
      <use xlink:href="#DejaVuSans-65" x="207.519531"/>
      <use xlink:href="#DejaVuSans-64" x="269.042969"/>
      <use xlink:href="#DejaVuSans-20" x="332.519531"/>
      <use xlink:href="#DejaVuSans-46" x="364.306641"/>
      <use xlink:href="#DejaVuSans-6c" x="421.826172"/>
      <use xlink:href="#DejaVuSans-75" x="449.609375"/>
      <use xlink:href="#DejaVuSans-78" x="512.988281"/>
     </g>
    </g>
   </g>
   <g id="line2d_34">
    <path d="M 452.144318 289.220825 
L 453.060653 290.733482 
L 453.976987 296.234128 
L 454.893321 297.873286 
L 455.809656 294.805418 
L 456.72599 292.264629 
L 457.642325 292.869545 
L 458.558659 293.777265 
L 459.474993 291.485391 
L 460.391328 288.851146 
L 461.307662 290.819893 
L 462.223997 293.748666 
L 463.140331 292.933948 
L 464.056665 290.662898 
L 464.973 290.436264 
L 465.889334 292.32774 
L 466.805669 293.712665 
L 468.638337 292.938677 
L 469.554672 294.017691 
L 470.471006 295.637475 
L 471.387341 295.652513 
L 472.303675 294.538177 
L 473.220009 294.548376 
L 474.136344 295.785325 
L 475.052678 296.257352 
L 475.969012 295.470523 
L 476.885347 295.396909 
L 477.801681 297.395966 
L 478.718016 300.434331 
L 479.63435 302.056364 
L 480.550684 300.859184 
L 482.383353 294.756325 
L 483.299688 293.740519 
L 484.216022 294.478274 
L 485.132356 295.418294 
L 486.048691 295.123705 
L 486.965025 293.468047 
L 487.88136 291.554784 
L 488.797694 290.896408 
L 489.714028 291.997098 
L 490.630363 294.059951 
L 491.546697 295.590175 
L 492.463032 295.446687 
L 493.379366 293.552927 
L 494.2957 290.933281 
L 495.212035 288.821793 
L 496.128369 288.036869 
L 497.044704 288.583372 
L 498.877372 290.781569 
L 499.793707 291.314428 
L 500.710041 291.401111 
L 501.626376 291.362342 
L 502.54271 291.448813 
L 503.459044 291.653788 
L 504.375379 291.729424 
L 505.291713 291.359042 
L 506.208048 290.43181 
L 508.040716 288.055539 
L 508.957051 287.611869 
L 509.873385 288.137962 
L 510.78972 289.588612 
L 512.622388 293.434997 
L 513.538723 294.608707 
L 514.455057 294.71533 
L 515.371392 293.74267 
L 518.120395 288.343445 
L 519.036729 287.310457 
L 519.953064 287.019114 
L 520.869398 287.446908 
L 522.702067 289.083331 
L 523.618401 289.656376 
L 524.534736 289.849756 
L 525.45107 289.643821 
L 526.367404 289.116526 
L 528.200073 287.930833 
L 529.116407 287.544448 
L 530.032742 287.389849 
L 532.781745 287.238401 
L 533.698079 286.877612 
L 534.614414 286.236635 
L 536.447083 284.409913 
L 538.279751 282.628731 
L 539.196086 282.14557 
L 540.11242 282.01819 
L 541.028755 282.248349 
L 541.945089 282.841848 
L 544.694092 285.047427 
L 545.610427 285.501008 
L 546.526761 285.613907 
L 547.443095 285.362056 
L 548.35943 284.87695 
L 550.192099 283.358324 
L 551.108433 282.548878 
L 552.024767 281.96239 
L 552.941102 281.546784 
L 553.857436 281.413534 
L 554.773771 281.589931 
L 555.690105 282.015388 
L 557.522774 283.275126 
L 558.439108 283.934937 
L 559.355443 284.426952 
L 560.271777 284.692607 
L 561.188111 284.800576 
L 562.104446 284.683474 
L 563.02078 284.413733 
L 564.853449 283.419844 
L 566.686118 282.290595 
L 569.435121 280.54972 
L 570.351455 280.164066 
L 572.184124 279.677291 
L 573.100459 279.558551 
L 574.016793 279.557275 
L 575.849462 279.982593 
L 577.682131 280.597014 
L 578.598465 280.787945 
L 579.514799 280.845237 
L 580.431134 280.738163 
L 582.263802 279.95881 
L 583.180137 279.245227 
L 585.012806 276.931236 
L 586.845474 274.018943 
L 588.678143 270.94932 
L 589.594478 270.701737 
L 590.510812 270.856495 
L 591.427146 270.782755 
L 592.343481 272.423625 
L 593.259815 276.806375 
L 594.17615 279.633218 
L 595.092484 277.658017 
L 596.008818 269.250195 
L 597.841487 242.596246 
L 598.757822 233.588569 
L 599.674156 232.435047 
L 600.59049 239.235054 
L 603.339494 275.193325 
L 604.255828 281.504557 
L 605.172162 283.518475 
L 606.088497 282.701968 
L 608.8375 276.97135 
L 610.670169 274.445913 
L 612.502838 272.138076 
L 613.419172 270.719801 
L 614.335506 268.804397 
L 615.251841 266.237516 
L 617.08451 259.525896 
L 618.000844 256.921062 
L 618.917178 255.993107 
L 619.833513 256.962467 
L 620.749847 259.89306 
L 622.582516 267.70355 
L 623.49885 270.904039 
L 624.415185 273.002248 
L 625.331519 274.085737 
L 626.247854 274.440253 
L 627.164188 274.339617 
L 628.080522 273.818214 
L 628.996857 272.370816 
L 629.913191 269.865428 
L 630.829526 266.024483 
L 632.662194 255.129139 
L 635.411198 238.26237 
L 637.243866 227.342534 
L 639.992869 209.415538 
L 640.909204 205.159297 
L 641.825538 202.78909 
L 642.741873 203.242785 
L 643.658207 206.093929 
L 644.574541 211.391441 
L 646.40721 225.25382 
L 648.239879 239.716309 
L 649.156213 245.908882 
L 650.072548 251.148601 
L 650.988882 255.071555 
L 651.905217 257.701133 
L 652.821551 258.720857 
L 653.737885 257.960608 
L 654.65422 255.641086 
L 656.486889 248.367074 
L 657.403223 244.446733 
L 658.319557 241.194903 
L 659.235892 238.759009 
L 661.068561 235.05213 
L 661.984895 232.534901 
L 662.901229 228.787138 
L 663.817564 223.694228 
L 665.650233 209.699058 
L 667.482901 194.912226 
L 668.399236 188.899904 
L 669.31557 184.324848 
L 670.231905 181.010875 
L 672.064573 177.214468 
L 674.813577 173.361372 
L 675.729911 172.766522 
L 676.646245 172.739783 
L 677.56258 174.100276 
L 678.478914 177.122002 
L 679.395249 181.604348 
L 681.227917 194.205365 
L 683.060586 206.812126 
L 683.976921 211.879474 
L 684.893255 216.092578 
L 685.809589 218.119388 
L 686.725924 218.811922 
L 687.642258 218.271175 
L 688.558593 217.098482 
L 689.474927 214.954713 
L 690.391261 212.179416 
L 692.22393 204.67341 
L 693.140264 200.19565 
L 694.972933 189.021557 
L 695.889268 182.108145 
L 696.805602 176.735277 
L 697.721936 170.624299 
L 698.638271 165.983896 
L 699.554605 162.147497 
L 700.47094 159.540299 
L 701.387274 157.359824 
L 702.303608 157.232982 
L 703.219943 157.986764 
L 704.136277 159.373078 
L 705.052612 160.481788 
L 705.968946 160.847802 
L 706.88528 160.708001 
L 707.801615 159.655012 
L 709.634284 153.550505 
L 710.550618 149.063381 
L 712.383287 139.292198 
L 714.215956 129.933588 
L 715.13229 126.948234 
L 716.048624 124.646061 
L 716.964959 122.966663 
L 717.881293 122.186555 
L 719.713962 125.320385 
L 720.630296 126.218291 
L 722.462965 132.770364 
L 723.3793 134.752463 
L 725.211968 140.465468 
L 726.128303 142.007364 
L 727.044637 142.973934 
L 727.960972 142.959087 
L 728.877306 143.064433 
L 729.79364 142.420673 
L 730.709975 139.099091 
L 731.626309 137.840822 
L 732.542644 135.554169 
L 733.458978 131.133541 
L 734.375312 129.286851 
L 735.291647 126.499782 
L 736.207981 122.50706 
L 738.04065 117.629799 
L 738.956984 115.238942 
L 739.873319 112.457315 
L 740.789653 111.875923 
L 741.705988 109.828558 
L 742.622322 107.129797 
L 743.538656 107.437984 
L 744.454991 104.444471 
L 745.371325 102.955669 
L 746.287659 103.602464 
L 747.203994 100.028592 
L 748.120328 101.26891 
L 749.036663 99.79593 
L 749.952997 99.150148 
L 750.869331 100.661346 
L 751.785666 97.667264 
L 752.702 98.872841 
L 754.534669 94.278574 
L 755.451003 93.623607 
L 757.283672 87.124499 
L 758.200007 84.625984 
L 759.116341 78.244921 
L 760.032675 75.249635 
L 760.94901 68.855948 
L 761.865344 60.963524 
L 762.781679 57.644556 
L 763.698013 47.779786 
L 764.614347 46.963006 
L 765.530682 39.983636 
L 765.530682 39.983636 
" clip-path="url(#p3de79634f3)" style="fill: none; stroke: #0000ff; stroke-width: 1.5; stroke-linecap: square"/>
   </g>
   <g id="line2d_35">
    <path d="M 452.144318 299.938836 
L 453.060653 288.128666 
L 453.976987 280.25712 
L 454.893321 286.096231 
L 455.809656 295.3416 
L 456.72599 294.484732 
L 457.642325 285.832099 
L 458.558659 284.7536 
L 459.474993 295.310326 
L 460.391328 302.056364 
L 461.307662 295.258685 
L 462.223997 289.74896 
L 463.140331 293.857793 
L 464.056665 299.824399 
L 464.973 298.689006 
L 465.889334 292.164548 
L 466.805669 288.420004 
L 467.722003 290.522006 
L 468.638337 293.795315 
L 469.554672 294.843273 
L 470.471006 295.548375 
L 471.387341 297.001122 
L 472.303675 295.93893 
L 474.136344 284.14997 
L 475.052678 283.363424 
L 476.885347 291.02903 
L 477.801681 292.19755 
L 478.718016 292.186752 
L 479.63435 293.018416 
L 480.550684 294.86811 
L 481.467019 296.430619 
L 482.383353 296.692215 
L 483.299688 296.07064 
L 484.216022 295.718482 
L 485.132356 296.268786 
L 486.048691 297.250696 
L 486.965025 297.688001 
L 487.88136 297.144054 
L 488.797694 296.207914 
L 489.714028 295.865257 
L 490.630363 296.550394 
L 491.546697 297.6661 
L 492.463032 298.011692 
L 493.379366 296.740615 
L 495.212035 291.146387 
L 496.128369 289.276278 
L 497.044704 289.142591 
L 497.961038 290.39477 
L 498.877372 292.045086 
L 499.793707 293.204358 
L 500.710041 293.529271 
L 501.626376 293.38376 
L 502.54271 293.471364 
L 503.459044 294.313001 
L 505.291713 297.538139 
L 506.208048 298.451954 
L 507.124382 297.973072 
L 508.040716 295.994968 
L 510.78972 287.454497 
L 511.706054 286.15359 
L 512.622388 285.845799 
L 513.538723 286.003583 
L 514.455057 285.767996 
L 515.371392 284.350851 
L 516.287726 281.263165 
L 517.20406 276.397801 
L 518.120395 269.940946 
L 519.953064 254.374127 
L 521.785732 238.704595 
L 522.702067 231.719986 
L 523.618401 225.640109 
L 524.534736 220.891239 
L 525.45107 217.750974 
L 526.367404 216.382306 
L 527.283739 217.075172 
L 528.200073 220.287996 
L 529.116407 225.5573 
L 530.032742 232.809168 
L 531.865411 250.66169 
L 533.698079 268.210615 
L 534.614414 275.236555 
L 535.530748 280.619399 
L 536.447083 284.330116 
L 537.363417 286.474394 
L 538.279751 287.422232 
L 539.196086 287.634012 
L 541.028755 287.505259 
L 541.945089 287.836566 
L 542.861423 288.611066 
L 543.777758 289.775262 
L 546.526761 294.046831 
L 547.443095 294.995292 
L 548.35943 295.46112 
L 549.275764 295.378911 
L 550.192099 294.792789 
L 551.108433 293.816056 
L 553.857436 290.381816 
L 554.773771 289.641446 
L 555.690105 289.304065 
L 556.606439 289.403196 
L 557.522774 289.912713 
L 558.439108 290.769873 
L 562.104446 295.025153 
L 563.02078 295.676203 
L 563.937115 295.961337 
L 564.853449 295.880581 
L 565.769783 295.472004 
L 566.686118 294.766775 
L 568.518787 292.83882 
L 570.351455 290.721588 
L 572.184124 288.997984 
L 573.100459 288.349932 
L 574.016793 287.872421 
L 575.849462 287.397846 
L 577.682131 287.099168 
L 578.598465 286.768409 
L 579.514799 286.197288 
L 580.431134 285.309809 
L 581.347468 284.019842 
L 582.263802 282.376509 
L 583.180137 280.25621 
L 584.096471 277.567656 
L 585.012806 274.459962 
L 586.845474 266.959275 
L 589.594478 254.734907 
L 590.510812 252.826591 
L 591.427146 254.396704 
L 592.343481 263.458354 
L 593.259815 273.694294 
L 594.17615 268.958296 
L 595.092484 243.115247 
L 596.008818 195.147774 
L 597.841487 77.232124 
L 598.757822 42.055653 
L 599.674156 39.983636 
L 600.59049 70.383397 
L 603.339494 229.312288 
L 604.255828 261.779183 
L 605.172162 277.216578 
L 606.088497 280.545937 
L 607.004831 278.193237 
L 607.921166 275.002941 
L 608.8375 273.262351 
L 609.753834 272.945223 
L 610.670169 273.238553 
L 611.586503 273.70539 
L 612.502838 274.431723 
L 613.419172 275.662025 
L 615.251841 278.820358 
L 616.168175 279.289247 
L 617.08451 278.418999 
L 618.917178 274.384825 
L 619.833513 272.928467 
L 620.749847 272.742059 
L 621.666182 273.544922 
L 622.582516 274.636249 
L 623.49885 275.430329 
L 624.415185 275.545914 
L 625.331519 275.107469 
L 626.247854 274.492836 
L 627.164188 274.048106 
L 628.080522 273.806438 
L 628.996857 273.250825 
L 629.913191 272.10527 
L 630.829526 270.123978 
L 632.662194 265.315739 
L 633.578529 264.329316 
L 634.494863 265.130593 
L 635.411198 267.694647 
L 638.160201 279.591702 
L 639.076535 282.24317 
L 639.992869 283.72228 
L 640.909204 284.389791 
L 641.825538 284.708167 
L 642.741873 285.171551 
L 645.490876 287.236356 
L 646.40721 287.316115 
L 647.323545 286.878898 
L 649.156213 285.180768 
L 650.072548 284.587825 
L 650.988882 284.427404 
L 651.905217 284.752426 
L 653.737885 285.801505 
L 654.65422 286.004161 
L 655.570554 285.872174 
L 657.403223 285.229831 
L 658.319557 285.179325 
L 659.235892 285.530347 
L 660.152226 286.217273 
L 661.068561 287.050685 
L 661.984895 287.72926 
L 662.901229 288.035636 
L 663.817564 287.90478 
L 664.733898 287.369374 
L 666.566567 286.083201 
L 667.482901 285.741696 
L 668.399236 285.78948 
L 671.148239 286.945101 
L 672.064573 286.915752 
L 672.980908 286.544609 
L 675.729911 284.347332 
L 676.646245 283.93591 
L 677.56258 283.95998 
L 678.478914 284.397109 
L 681.227917 286.349066 
L 682.144252 286.495757 
L 683.060586 286.320633 
L 684.893255 285.265947 
L 685.809589 284.642838 
L 686.725924 284.240903 
L 687.642258 284.123373 
L 689.474927 284.646525 
L 690.391261 284.932692 
L 691.307596 284.993241 
L 692.22393 284.789721 
L 693.140264 284.285265 
L 695.889268 281.852264 
L 696.805602 281.575268 
L 697.721936 281.537309 
L 698.638271 282.005711 
L 700.47094 283.494445 
L 701.387274 283.985644 
L 702.303608 284.15143 
L 703.219943 283.703062 
L 704.136277 282.583837 
L 705.052612 280.781286 
L 706.88528 275.867607 
L 708.717949 270.896973 
L 709.634284 269.0448 
L 710.550618 267.660467 
L 711.466952 266.84112 
L 712.383287 266.65442 
L 714.215956 267.195248 
L 716.964959 269.136896 
L 717.881293 269.686822 
L 718.797628 270.468317 
L 719.713962 271.087037 
L 720.630296 271.485253 
L 721.546631 272.130237 
L 722.462965 272.594841 
L 723.3793 272.536224 
L 724.295634 272.210758 
L 725.211968 271.28958 
L 726.128303 269.498452 
L 727.044637 266.897399 
L 727.960972 263.43045 
L 729.79364 255.04973 
L 730.709975 249.825709 
L 732.542644 241.408893 
L 733.458978 237.398943 
L 734.375312 235.295816 
L 735.291647 233.935204 
L 736.207981 233.204371 
L 737.124316 234.068484 
L 738.04065 235.653476 
L 739.873319 240.461908 
L 740.789653 243.859904 
L 743.538656 252.778862 
L 745.371325 257.480789 
L 746.287659 260.218592 
L 747.203994 262.019108 
L 748.120328 264.65436 
L 750.869331 270.73424 
L 752.702 272.507226 
L 753.618335 272.033682 
L 754.534669 270.512324 
L 755.451003 268.053067 
L 756.367338 263.903393 
L 757.283672 258.542892 
L 758.200007 252.194239 
L 760.94901 227.364665 
L 761.865344 218.311545 
L 762.781679 211.656476 
L 763.698013 203.982214 
L 764.614347 201.350754 
L 765.530682 198.307944 
L 765.530682 198.307944 
" clip-path="url(#p3de79634f3)" style="fill: none; stroke: #008000; stroke-width: 1.5; stroke-linecap: square"/>
   </g>
   <g id="line2d_36">
    <path d="M 452.144318 249.870938 
L 453.060653 254.42498 
L 453.976987 263.542736 
L 454.893321 270.137587 
L 455.809656 278.87083 
L 456.72599 293.528032 
L 457.642325 302.056364 
L 458.558659 288.900392 
L 459.474993 262.960764 
L 460.391328 255.554139 
L 461.307662 276.144248 
L 462.223997 290.42675 
L 463.140331 282.484482 
L 464.056665 267.388473 
L 464.973 264.005802 
L 465.889334 274.917309 
L 466.805669 288.362982 
L 467.722003 292.83037 
L 468.638337 286.544804 
L 470.471006 260.988904 
L 471.387341 256.142878 
L 472.303675 266.826953 
L 473.220009 287.839688 
L 474.136344 301.009616 
L 475.052678 295.589552 
L 475.969012 281.144511 
L 476.885347 274.317259 
L 477.801681 279.520832 
L 478.718016 287.729762 
L 479.63435 288.32226 
L 480.550684 279.252592 
L 481.467019 267.611236 
L 482.383353 262.286993 
L 483.299688 266.417849 
L 484.216022 275.02596 
L 485.132356 279.926058 
L 486.048691 276.494798 
L 487.88136 258.620152 
L 488.797694 257.265047 
L 489.714028 263.747384 
L 490.630363 273.272668 
L 491.546697 279.161621 
L 492.463032 277.443152 
L 493.379366 269.178079 
L 494.2957 259.29794 
L 495.212035 253.02279 
L 496.128369 252.844389 
L 497.044704 257.488926 
L 497.961038 263.135376 
L 498.877372 266.061264 
L 499.793707 264.677832 
L 500.710041 259.830762 
L 501.626376 253.953337 
L 502.54271 249.43107 
L 503.459044 247.386611 
L 504.375379 247.364524 
L 505.291713 247.841454 
L 506.208048 247.283112 
L 507.124382 245.002521 
L 508.957051 237.387421 
L 509.873385 234.461851 
L 510.78972 233.274339 
L 511.706054 233.852539 
L 513.538723 236.635838 
L 514.455057 237.020028 
L 515.371392 236.06951 
L 516.287726 234.084969 
L 517.20406 231.763044 
L 518.120395 229.788221 
L 519.036729 228.910721 
L 519.953064 229.106148 
L 520.869398 230.280219 
L 521.785732 231.679688 
L 522.702067 232.616979 
L 523.618401 232.530054 
L 524.534736 231.293438 
L 525.45107 229.022005 
L 527.283739 222.98366 
L 528.200073 220.621844 
L 529.116407 219.066517 
L 530.032742 218.636422 
L 530.949076 219.121939 
L 533.698079 222.045482 
L 534.614414 222.113048 
L 535.530748 221.333825 
L 536.447083 219.849398 
L 537.363417 217.616777 
L 541.028755 207.278034 
L 541.945089 205.41174 
L 544.694092 200.894214 
L 545.610427 199.452913 
L 546.526761 197.743882 
L 551.108433 187.413484 
L 552.941102 184.499415 
L 553.857436 183.455989 
L 554.773771 182.781385 
L 556.606439 181.81163 
L 557.522774 181.157223 
L 558.439108 180.286896 
L 559.355443 178.840697 
L 561.188111 174.767107 
L 563.02078 170.55265 
L 563.937115 168.590189 
L 564.853449 167.02957 
L 568.518787 163.130383 
L 569.435121 161.804565 
L 571.26779 160.198896 
L 574.016793 156.834213 
L 574.933127 156.100699 
L 575.849462 155.526058 
L 579.514799 154.224034 
L 580.431134 153.777534 
L 581.347468 153.035744 
L 582.263802 152.600113 
L 583.180137 151.684933 
L 585.92914 145.977925 
L 586.845474 143.832609 
L 589.594478 138.480883 
L 590.510812 138.948174 
L 591.427146 142.954459 
L 592.343481 146.384804 
L 593.259815 146.017716 
L 594.17615 140.325383 
L 595.092484 133.842219 
L 596.008818 131.427993 
L 596.925153 135.236877 
L 597.841487 142.147302 
L 598.757822 146.191585 
L 599.674156 142.750203 
L 600.59049 132.204021 
L 601.506825 120.093522 
L 602.423159 113.290277 
L 603.339494 115.41092 
L 605.172162 132.61244 
L 606.088497 135.960581 
L 607.004831 131.977204 
L 607.921166 123.045442 
L 608.8375 115.447585 
L 609.753834 113.492247 
L 610.670169 117.579925 
L 611.586503 124.376569 
L 612.502838 128.61994 
L 613.419172 126.902696 
L 615.251841 112.432813 
L 616.168175 107.94084 
L 617.08451 109.531635 
L 618.917178 121.974999 
L 619.833513 123.795061 
L 620.749847 120.058423 
L 622.582516 103.306705 
L 623.49885 98.846741 
L 624.415185 100.052596 
L 626.247854 111.429594 
L 627.164188 114.574736 
L 628.080522 113.648871 
L 629.913191 103.955718 
L 630.829526 101.559811 
L 631.74586 102.441877 
L 632.662194 106.422806 
L 633.578529 110.932019 
L 634.494863 112.869125 
L 635.411198 110.575943 
L 636.327532 105.340563 
L 637.243866 99.220829 
L 638.160201 94.617727 
L 639.076535 93.640793 
L 639.992869 95.967762 
L 640.909204 100.030232 
L 641.825538 102.726486 
L 642.741873 102.851128 
L 643.658207 99.124683 
L 645.490876 87.452933 
L 646.40721 83.239385 
L 647.323545 82.719935 
L 648.239879 85.179002 
L 650.072548 92.522823 
L 650.988882 93.507525 
L 651.905217 92.256638 
L 652.821551 89.008335 
L 653.737885 84.785606 
L 654.65422 81.3614 
L 655.570554 79.838677 
L 656.486889 80.787561 
L 657.403223 82.33818 
L 658.319557 84.202631 
L 659.235892 85.210913 
L 660.152226 84.688058 
L 661.068561 83.131098 
L 661.984895 81.072316 
L 662.901229 79.702176 
L 663.817564 80.15277 
L 664.733898 81.838936 
L 666.566567 87.401793 
L 667.482901 88.399697 
L 668.399236 87.725048 
L 669.31557 85.270175 
L 670.231905 81.602961 
L 672.064573 76.088001 
L 672.980908 76.176649 
L 673.897242 78.146801 
L 675.729911 86.684179 
L 676.646245 89.700907 
L 677.56258 90.754602 
L 678.478914 89.374086 
L 679.395249 85.547631 
L 682.144252 71.367734 
L 683.060586 70.043738 
L 683.976921 71.018729 
L 686.725924 83.391528 
L 687.642258 86.183431 
L 688.558593 87.613041 
L 689.474927 86.295698 
L 690.391261 83.072595 
L 692.22393 74.27851 
L 693.140264 71.382574 
L 694.056599 69.738383 
L 694.972933 69.912915 
L 695.889268 70.241373 
L 696.805602 73.707972 
L 697.721936 74.995415 
L 698.638271 76.072465 
L 699.554605 74.920185 
L 700.47094 71.813133 
L 702.303608 60.689958 
L 703.219943 55.718303 
L 704.136277 52.264569 
L 705.052612 50.340369 
L 705.968946 50.186928 
L 706.88528 52.58135 
L 709.634284 65.102478 
L 710.550618 68.179564 
L 711.466952 69.711333 
L 712.383287 70.237806 
L 713.299621 69.321031 
L 714.215956 66.010791 
L 716.964959 58.868106 
L 717.881293 57.565706 
L 719.713962 60.91389 
L 720.630296 61.840383 
L 722.462965 68.491906 
L 723.3793 69.388936 
L 724.295634 70.828603 
L 725.211968 71.456897 
L 726.128303 70.353541 
L 727.044637 68.669576 
L 727.960972 66.312696 
L 728.877306 65.109314 
L 729.79364 64.227852 
L 730.709975 61.300162 
L 732.542644 63.460401 
L 733.458978 62.69617 
L 734.375312 65.600371 
L 735.291647 67.437502 
L 736.207981 67.651429 
L 737.124316 69.345084 
L 738.04065 70.123885 
L 738.956984 70.470218 
L 739.873319 69.819553 
L 740.789653 71.058557 
L 741.705988 70.347824 
L 742.622322 68.659469 
L 743.538656 69.875486 
L 744.454991 67.300881 
L 745.371325 65.903481 
L 746.287659 66.22382 
L 747.203994 61.472934 
L 748.120328 61.123335 
L 749.952997 53.780729 
L 750.869331 52.464179 
L 751.785666 46.350211 
L 752.702 45.543572 
L 753.618335 41.966559 
L 754.534669 39.983636 
L 755.451003 41.917451 
L 756.367338 43.104618 
L 757.283672 47.071365 
L 758.200007 53.804489 
L 759.116341 58.32513 
L 760.032675 67.04192 
L 760.94901 72.430675 
L 761.865344 75.244369 
L 762.781679 79.151392 
L 763.698013 73.739991 
L 764.614347 70.511183 
L 765.530682 56.492472 
L 765.530682 56.492472 
" clip-path="url(#p3de79634f3)" style="fill: none; stroke: #ff0000; stroke-width: 1.5; stroke-linecap: square"/>
   </g>
   <g id="patch_9">
    <path d="M 436.475 315.16 
L 436.475 26.88 
" style="fill: none; stroke: #000000; stroke-width: 0.8; stroke-linejoin: miter; stroke-linecap: square"/>
   </g>
   <g id="patch_10">
    <path d="M 781.2 315.16 
L 781.2 26.88 
" style="fill: none; stroke: #000000; stroke-width: 0.8; stroke-linejoin: miter; stroke-linecap: square"/>
   </g>
   <g id="patch_11">
    <path d="M 436.475 315.16 
L 781.2 315.16 
" style="fill: none; stroke: #000000; stroke-width: 0.8; stroke-linejoin: miter; stroke-linecap: square"/>
   </g>
   <g id="patch_12">
    <path d="M 436.475 26.88 
L 781.2 26.88 
" style="fill: none; stroke: #000000; stroke-width: 0.8; stroke-linejoin: miter; stroke-linecap: square"/>
   </g>
   <g id="text_37">
    <!-- Normalized Stars -->
    <g transform="translate(557.47375 20.88)scale(0.12 -0.12)">
     <defs>
      <path id="DejaVuSans-6f" d="M 1959 3097 
Q 1497 3097 1228 2736 
Q 959 2375 959 1747 
Q 959 1119 1226 758 
Q 1494 397 1959 397 
Q 2419 397 2687 759 
Q 2956 1122 2956 1747 
Q 2956 2369 2687 2733 
Q 2419 3097 1959 3097 
z
M 1959 3584 
Q 2709 3584 3137 3096 
Q 3566 2609 3566 1747 
Q 3566 888 3137 398 
Q 2709 -91 1959 -91 
Q 1206 -91 779 398 
Q 353 888 353 1747 
Q 353 2609 779 3096 
Q 1206 3584 1959 3584 
z
" transform="scale(0.015625)"/>
      <path id="DejaVuSans-69" d="M 603 3500 
L 1178 3500 
L 1178 0 
L 603 0 
L 603 3500 
z
M 603 4863 
L 1178 4863 
L 1178 4134 
L 603 4134 
L 603 4863 
z
" transform="scale(0.015625)"/>
      <path id="DejaVuSans-7a" d="M 353 3500 
L 3084 3500 
L 3084 2975 
L 922 459 
L 3084 459 
L 3084 0 
L 275 0 
L 275 525 
L 2438 3041 
L 353 3041 
L 353 3500 
z
" transform="scale(0.015625)"/>
     </defs>
     <use xlink:href="#DejaVuSans-4e"/>
     <use xlink:href="#DejaVuSans-6f" x="74.804688"/>
     <use xlink:href="#DejaVuSans-72" x="135.986328"/>
     <use xlink:href="#DejaVuSans-6d" x="175.349609"/>
     <use xlink:href="#DejaVuSans-61" x="272.761719"/>
     <use xlink:href="#DejaVuSans-6c" x="334.041016"/>
     <use xlink:href="#DejaVuSans-69" x="361.824219"/>
     <use xlink:href="#DejaVuSans-7a" x="389.607422"/>
     <use xlink:href="#DejaVuSans-65" x="442.097656"/>
     <use xlink:href="#DejaVuSans-64" x="503.621094"/>
     <use xlink:href="#DejaVuSans-20" x="567.097656"/>
     <use xlink:href="#DejaVuSans-53" x="598.884766"/>
     <use xlink:href="#DejaVuSans-74" x="662.361328"/>
     <use xlink:href="#DejaVuSans-61" x="701.570312"/>
     <use xlink:href="#DejaVuSans-72" x="762.849609"/>
     <use xlink:href="#DejaVuSans-73" x="803.962891"/>
    </g>
   </g>
   <g id="legend_2">
    <g id="patch_13">
     <path d="M 441.375 63.304062 
L 582.881094 63.304062 
Q 584.281094 63.304062 584.281094 61.904063 
L 584.281094 31.78 
Q 584.281094 30.38 582.881094 30.38 
L 441.375 30.38 
Q 439.975 30.38 439.975 31.78 
L 439.975 61.904063 
Q 439.975 63.304062 441.375 63.304062 
z
" style="fill: #ffffff; opacity: 0.8; stroke: #cccccc; stroke-linejoin: miter"/>
    </g>
    <g id="line2d_37">
     <path d="M 442.775 36.048906 
L 449.775 36.048906 
L 456.775 36.048906 
" style="fill: none; stroke: #0000ff; stroke-width: 1.5; stroke-linecap: square"/>
    </g>
    <g id="text_38">
     <!-- SY (EM* AS 323) -->
     <g transform="translate(462.375 38.498906)scale(0.07 -0.07)">
      <use xlink:href="#DejaVuSans-53"/>
      <use xlink:href="#DejaVuSans-59" x="63.476562"/>
      <use xlink:href="#DejaVuSans-20" x="124.560547"/>
      <use xlink:href="#DejaVuSans-28" x="156.347656"/>
      <use xlink:href="#DejaVuSans-45" x="195.361328"/>
      <use xlink:href="#DejaVuSans-4d" x="258.544922"/>
      <use xlink:href="#DejaVuSans-2a" x="344.824219"/>
      <use xlink:href="#DejaVuSans-20" x="394.824219"/>
      <use xlink:href="#DejaVuSans-41" x="426.611328"/>
      <use xlink:href="#DejaVuSans-53" x="495.019531"/>
      <use xlink:href="#DejaVuSans-20" x="558.496094"/>
      <use xlink:href="#DejaVuSans-33" x="590.283203"/>
      <use xlink:href="#DejaVuSans-32" x="653.90625"/>
      <use xlink:href="#DejaVuSans-33" x="717.529297"/>
      <use xlink:href="#DejaVuSans-29" x="781.152344"/>
     </g>
    </g>
    <g id="line2d_38">
     <path d="M 442.775 46.323594 
L 449.775 46.323594 
L 456.775 46.323594 
" style="fill: none; stroke: #008000; stroke-width: 1.5; stroke-linecap: square"/>
    </g>
    <g id="text_39">
     <!-- PN (Hen 2-442) -->
     <g transform="translate(462.375 48.773594)scale(0.07 -0.07)">
      <use xlink:href="#DejaVuSans-50"/>
      <use xlink:href="#DejaVuSans-4e" x="60.302734"/>
      <use xlink:href="#DejaVuSans-20" x="135.107422"/>
      <use xlink:href="#DejaVuSans-28" x="166.894531"/>
      <use xlink:href="#DejaVuSans-48" x="205.908203"/>
      <use xlink:href="#DejaVuSans-65" x="281.103516"/>
      <use xlink:href="#DejaVuSans-6e" x="342.626953"/>
      <use xlink:href="#DejaVuSans-20" x="406.005859"/>
      <use xlink:href="#DejaVuSans-32" x="437.792969"/>
      <use xlink:href="#DejaVuSans-2d" x="501.416016"/>
      <use xlink:href="#DejaVuSans-34" x="537.5"/>
      <use xlink:href="#DejaVuSans-34" x="601.123047"/>
      <use xlink:href="#DejaVuSans-32" x="664.746094"/>
      <use xlink:href="#DejaVuSans-29" x="728.369141"/>
     </g>
    </g>
    <g id="line2d_39">
     <path d="M 442.775 56.598281 
L 449.775 56.598281 
L 456.775 56.598281 
" style="fill: none; stroke: #ff0000; stroke-width: 1.5; stroke-linecap: square"/>
    </g>
    <g id="text_40">
     <!-- RG (2MASS J04390924+2847545) -->
     <g transform="translate(462.375 59.048281)scale(0.07 -0.07)">
      <use xlink:href="#DejaVuSans-52"/>
      <use xlink:href="#DejaVuSans-47" x="69.482422"/>
      <use xlink:href="#DejaVuSans-20" x="146.972656"/>
      <use xlink:href="#DejaVuSans-28" x="178.759766"/>
      <use xlink:href="#DejaVuSans-32" x="217.773438"/>
      <use xlink:href="#DejaVuSans-4d" x="281.396484"/>
      <use xlink:href="#DejaVuSans-41" x="367.675781"/>
      <use xlink:href="#DejaVuSans-53" x="436.083984"/>
      <use xlink:href="#DejaVuSans-53" x="499.560547"/>
      <use xlink:href="#DejaVuSans-20" x="563.037109"/>
      <use xlink:href="#DejaVuSans-4a" x="594.824219"/>
      <use xlink:href="#DejaVuSans-30" x="624.316406"/>
      <use xlink:href="#DejaVuSans-34" x="687.939453"/>
      <use xlink:href="#DejaVuSans-33" x="751.5625"/>
      <use xlink:href="#DejaVuSans-39" x="815.185547"/>
      <use xlink:href="#DejaVuSans-30" x="878.808594"/>
      <use xlink:href="#DejaVuSans-39" x="942.431641"/>
      <use xlink:href="#DejaVuSans-32" x="1006.054688"/>
      <use xlink:href="#DejaVuSans-34" x="1069.677734"/>
      <use xlink:href="#DejaVuSans-2b" x="1133.300781"/>
      <use xlink:href="#DejaVuSans-32" x="1217.089844"/>
      <use xlink:href="#DejaVuSans-38" x="1280.712891"/>
      <use xlink:href="#DejaVuSans-34" x="1344.335938"/>
      <use xlink:href="#DejaVuSans-37" x="1407.958984"/>
      <use xlink:href="#DejaVuSans-35" x="1471.582031"/>
      <use xlink:href="#DejaVuSans-34" x="1535.205078"/>
      <use xlink:href="#DejaVuSans-35" x="1598.828125"/>
      <use xlink:href="#DejaVuSans-29" x="1662.451172"/>
     </g>
    </g>
   </g>
  </g>
 </g>
 <defs>
  <clipPath id="p7fdfcddaf0">
   <rect x="41.15" y="26.88" width="344.725" height="288.28"/>
  </clipPath>
  <clipPath id="p3de79634f3">
   <rect x="436.475" y="26.88" width="344.725" height="288.28"/>
  </clipPath>
 </defs>
</svg>
