<?xml version="1.0" encoding="utf-8" standalone="no"?>
<!DOCTYPE svg PUBLIC "-//W3C//DTD SVG 1.1//EN"
  "http://www.w3.org/Graphics/SVG/1.1/DTD/svg11.dtd">
<svg xmlns:xlink="http://www.w3.org/1999/xlink" width="1152pt" height="576pt" viewBox="0 0 1152 576" xmlns="http://www.w3.org/2000/svg" version="1.1">
 <metadata>
  <rdf:RDF xmlns:dc="http://purl.org/dc/elements/1.1/" xmlns:cc="http://creativecommons.org/ns#" xmlns:rdf="http://www.w3.org/1999/02/22-rdf-syntax-ns#">
   <cc:Work>
    <dc:type rdf:resource="http://purl.org/dc/dcmitype/StillImage"/>
    <dc:date>2023-08-11T00:26:24.770903</dc:date>
    <dc:format>image/svg+xml</dc:format>
    <dc:creator>
     <cc:Agent>
      <dc:title>Matplotlib v3.5.3, https://matplotlib.org/</dc:title>
     </cc:Agent>
    </dc:creator>
   </cc:Work>
  </rdf:RDF>
 </metadata>
 <defs>
  <style type="text/css">*{stroke-linejoin: round; stroke-linecap: butt}</style>
 </defs>
 <g id="figure_1">
  <g id="patch_1">
   <path d="M 0 576 
L 1152 576 
L 1152 0 
L 0 0 
z
" style="fill: #ffffff"/>
  </g>
  <g id="axes_1">
   <g id="patch_2">
    <path d="M 144 512.64 
L 1036.8 512.64 
L 1036.8 69.12 
L 144 69.12 
z
" style="fill: #ffffff"/>
   </g>
   <g id="matplotlib.axis_1">
    <g id="xtick_1">
     <g id="line2d_1">
      <defs>
       <path id="m834a889399" d="M 0 0 
L 0 3.5 
" style="stroke: #000000; stroke-width: 0.8"/>
      </defs>
      <g>
       <use xlink:href="#m834a889399" x="260.524402" y="512.64" style="stroke: #000000; stroke-width: 0.8"/>
      </g>
     </g>
     <g id="text_1">
      <!-- 400 -->
      <g transform="translate(250.980652 527.238438)scale(0.1 -0.1)">
       <defs>
        <path id="DejaVuSans-34" d="M 2419 4116 
L 825 1625 
L 2419 1625 
L 2419 4116 
z
M 2253 4666 
L 3047 4666 
L 3047 1625 
L 3713 1625 
L 3713 1100 
L 3047 1100 
L 3047 0 
L 2419 0 
L 2419 1100 
L 313 1100 
L 313 1709 
L 2253 4666 
z
" transform="scale(0.015625)"/>
        <path id="DejaVuSans-30" d="M 2034 4250 
Q 1547 4250 1301 3770 
Q 1056 3291 1056 2328 
Q 1056 1369 1301 889 
Q 1547 409 2034 409 
Q 2525 409 2770 889 
Q 3016 1369 3016 2328 
Q 3016 3291 2770 3770 
Q 2525 4250 2034 4250 
z
M 2034 4750 
Q 2819 4750 3233 4129 
Q 3647 3509 3647 2328 
Q 3647 1150 3233 529 
Q 2819 -91 2034 -91 
Q 1250 -91 836 529 
Q 422 1150 422 2328 
Q 422 3509 836 4129 
Q 1250 4750 2034 4750 
z
" transform="scale(0.015625)"/>
       </defs>
       <use xlink:href="#DejaVuSans-34"/>
       <use xlink:href="#DejaVuSans-30" x="63.623047"/>
       <use xlink:href="#DejaVuSans-30" x="127.246094"/>
      </g>
     </g>
    </g>
    <g id="xtick_2">
     <g id="line2d_2">
      <g>
       <use xlink:href="#m834a889399" x="379.184689" y="512.64" style="stroke: #000000; stroke-width: 0.8"/>
      </g>
     </g>
     <g id="text_2">
      <!-- 500 -->
      <g transform="translate(369.640939 527.238438)scale(0.1 -0.1)">
       <defs>
        <path id="DejaVuSans-35" d="M 691 4666 
L 3169 4666 
L 3169 4134 
L 1269 4134 
L 1269 2991 
Q 1406 3038 1543 3061 
Q 1681 3084 1819 3084 
Q 2600 3084 3056 2656 
Q 3513 2228 3513 1497 
Q 3513 744 3044 326 
Q 2575 -91 1722 -91 
Q 1428 -91 1123 -41 
Q 819 9 494 109 
L 494 744 
Q 775 591 1075 516 
Q 1375 441 1709 441 
Q 2250 441 2565 725 
Q 2881 1009 2881 1497 
Q 2881 1984 2565 2268 
Q 2250 2553 1709 2553 
Q 1456 2553 1204 2497 
Q 953 2441 691 2322 
L 691 4666 
z
" transform="scale(0.015625)"/>
       </defs>
       <use xlink:href="#DejaVuSans-35"/>
       <use xlink:href="#DejaVuSans-30" x="63.623047"/>
       <use xlink:href="#DejaVuSans-30" x="127.246094"/>
      </g>
     </g>
    </g>
    <g id="xtick_3">
     <g id="line2d_3">
      <g>
       <use xlink:href="#m834a889399" x="497.844976" y="512.64" style="stroke: #000000; stroke-width: 0.8"/>
      </g>
     </g>
     <g id="text_3">
      <!-- 600 -->
      <g transform="translate(488.301226 527.238438)scale(0.1 -0.1)">
       <defs>
        <path id="DejaVuSans-36" d="M 2113 2584 
Q 1688 2584 1439 2293 
Q 1191 2003 1191 1497 
Q 1191 994 1439 701 
Q 1688 409 2113 409 
Q 2538 409 2786 701 
Q 3034 994 3034 1497 
Q 3034 2003 2786 2293 
Q 2538 2584 2113 2584 
z
M 3366 4563 
L 3366 3988 
Q 3128 4100 2886 4159 
Q 2644 4219 2406 4219 
Q 1781 4219 1451 3797 
Q 1122 3375 1075 2522 
Q 1259 2794 1537 2939 
Q 1816 3084 2150 3084 
Q 2853 3084 3261 2657 
Q 3669 2231 3669 1497 
Q 3669 778 3244 343 
Q 2819 -91 2113 -91 
Q 1303 -91 875 529 
Q 447 1150 447 2328 
Q 447 3434 972 4092 
Q 1497 4750 2381 4750 
Q 2619 4750 2861 4703 
Q 3103 4656 3366 4563 
z
" transform="scale(0.015625)"/>
       </defs>
       <use xlink:href="#DejaVuSans-36"/>
       <use xlink:href="#DejaVuSans-30" x="63.623047"/>
       <use xlink:href="#DejaVuSans-30" x="127.246094"/>
      </g>
     </g>
    </g>
    <g id="xtick_4">
     <g id="line2d_4">
      <g>
       <use xlink:href="#m834a889399" x="616.505263" y="512.64" style="stroke: #000000; stroke-width: 0.8"/>
      </g>
     </g>
     <g id="text_4">
      <!-- 700 -->
      <g transform="translate(606.961513 527.238438)scale(0.1 -0.1)">
       <defs>
        <path id="DejaVuSans-37" d="M 525 4666 
L 3525 4666 
L 3525 4397 
L 1831 0 
L 1172 0 
L 2766 4134 
L 525 4134 
L 525 4666 
z
" transform="scale(0.015625)"/>
       </defs>
       <use xlink:href="#DejaVuSans-37"/>
       <use xlink:href="#DejaVuSans-30" x="63.623047"/>
       <use xlink:href="#DejaVuSans-30" x="127.246094"/>
      </g>
     </g>
    </g>
    <g id="xtick_5">
     <g id="line2d_5">
      <g>
       <use xlink:href="#m834a889399" x="735.16555" y="512.64" style="stroke: #000000; stroke-width: 0.8"/>
      </g>
     </g>
     <g id="text_5">
      <!-- 800 -->
      <g transform="translate(725.6218 527.238438)scale(0.1 -0.1)">
       <defs>
        <path id="DejaVuSans-38" d="M 2034 2216 
Q 1584 2216 1326 1975 
Q 1069 1734 1069 1313 
Q 1069 891 1326 650 
Q 1584 409 2034 409 
Q 2484 409 2743 651 
Q 3003 894 3003 1313 
Q 3003 1734 2745 1975 
Q 2488 2216 2034 2216 
z
M 1403 2484 
Q 997 2584 770 2862 
Q 544 3141 544 3541 
Q 544 4100 942 4425 
Q 1341 4750 2034 4750 
Q 2731 4750 3128 4425 
Q 3525 4100 3525 3541 
Q 3525 3141 3298 2862 
Q 3072 2584 2669 2484 
Q 3125 2378 3379 2068 
Q 3634 1759 3634 1313 
Q 3634 634 3220 271 
Q 2806 -91 2034 -91 
Q 1263 -91 848 271 
Q 434 634 434 1313 
Q 434 1759 690 2068 
Q 947 2378 1403 2484 
z
M 1172 3481 
Q 1172 3119 1398 2916 
Q 1625 2713 2034 2713 
Q 2441 2713 2670 2916 
Q 2900 3119 2900 3481 
Q 2900 3844 2670 4047 
Q 2441 4250 2034 4250 
Q 1625 4250 1398 4047 
Q 1172 3844 1172 3481 
z
" transform="scale(0.015625)"/>
       </defs>
       <use xlink:href="#DejaVuSans-38"/>
       <use xlink:href="#DejaVuSans-30" x="63.623047"/>
       <use xlink:href="#DejaVuSans-30" x="127.246094"/>
      </g>
     </g>
    </g>
    <g id="xtick_6">
     <g id="line2d_6">
      <g>
       <use xlink:href="#m834a889399" x="853.825837" y="512.64" style="stroke: #000000; stroke-width: 0.8"/>
      </g>
     </g>
     <g id="text_6">
      <!-- 900 -->
      <g transform="translate(844.282087 527.238438)scale(0.1 -0.1)">
       <defs>
        <path id="DejaVuSans-39" d="M 703 97 
L 703 672 
Q 941 559 1184 500 
Q 1428 441 1663 441 
Q 2288 441 2617 861 
Q 2947 1281 2994 2138 
Q 2813 1869 2534 1725 
Q 2256 1581 1919 1581 
Q 1219 1581 811 2004 
Q 403 2428 403 3163 
Q 403 3881 828 4315 
Q 1253 4750 1959 4750 
Q 2769 4750 3195 4129 
Q 3622 3509 3622 2328 
Q 3622 1225 3098 567 
Q 2575 -91 1691 -91 
Q 1453 -91 1209 -44 
Q 966 3 703 97 
z
M 1959 2075 
Q 2384 2075 2632 2365 
Q 2881 2656 2881 3163 
Q 2881 3666 2632 3958 
Q 2384 4250 1959 4250 
Q 1534 4250 1286 3958 
Q 1038 3666 1038 3163 
Q 1038 2656 1286 2365 
Q 1534 2075 1959 2075 
z
" transform="scale(0.015625)"/>
       </defs>
       <use xlink:href="#DejaVuSans-39"/>
       <use xlink:href="#DejaVuSans-30" x="63.623047"/>
       <use xlink:href="#DejaVuSans-30" x="127.246094"/>
      </g>
     </g>
    </g>
    <g id="xtick_7">
     <g id="line2d_7">
      <g>
       <use xlink:href="#m834a889399" x="972.486124" y="512.64" style="stroke: #000000; stroke-width: 0.8"/>
      </g>
     </g>
     <g id="text_7">
      <!-- 1000 -->
      <g transform="translate(959.761124 527.238438)scale(0.1 -0.1)">
       <defs>
        <path id="DejaVuSans-31" d="M 794 531 
L 1825 531 
L 1825 4091 
L 703 3866 
L 703 4441 
L 1819 4666 
L 2450 4666 
L 2450 531 
L 3481 531 
L 3481 0 
L 794 0 
L 794 531 
z
" transform="scale(0.015625)"/>
       </defs>
       <use xlink:href="#DejaVuSans-31"/>
       <use xlink:href="#DejaVuSans-30" x="63.623047"/>
       <use xlink:href="#DejaVuSans-30" x="127.246094"/>
       <use xlink:href="#DejaVuSans-30" x="190.869141"/>
      </g>
     </g>
    </g>
    <g id="text_8">
     <!-- Wavelength [nm] -->
     <g transform="translate(538.569375 542.43625)scale(0.12 -0.12)">
      <defs>
       <path id="DejaVuSans-57" d="M 213 4666 
L 850 4666 
L 1831 722 
L 2809 4666 
L 3519 4666 
L 4500 722 
L 5478 4666 
L 6119 4666 
L 4947 0 
L 4153 0 
L 3169 4050 
L 2175 0 
L 1381 0 
L 213 4666 
z
" transform="scale(0.015625)"/>
       <path id="DejaVuSans-61" d="M 2194 1759 
Q 1497 1759 1228 1600 
Q 959 1441 959 1056 
Q 959 750 1161 570 
Q 1363 391 1709 391 
Q 2188 391 2477 730 
Q 2766 1069 2766 1631 
L 2766 1759 
L 2194 1759 
z
M 3341 1997 
L 3341 0 
L 2766 0 
L 2766 531 
Q 2569 213 2275 61 
Q 1981 -91 1556 -91 
Q 1019 -91 701 211 
Q 384 513 384 1019 
Q 384 1609 779 1909 
Q 1175 2209 1959 2209 
L 2766 2209 
L 2766 2266 
Q 2766 2663 2505 2880 
Q 2244 3097 1772 3097 
Q 1472 3097 1187 3025 
Q 903 2953 641 2809 
L 641 3341 
Q 956 3463 1253 3523 
Q 1550 3584 1831 3584 
Q 2591 3584 2966 3190 
Q 3341 2797 3341 1997 
z
" transform="scale(0.015625)"/>
       <path id="DejaVuSans-76" d="M 191 3500 
L 800 3500 
L 1894 563 
L 2988 3500 
L 3597 3500 
L 2284 0 
L 1503 0 
L 191 3500 
z
" transform="scale(0.015625)"/>
       <path id="DejaVuSans-65" d="M 3597 1894 
L 3597 1613 
L 953 1613 
Q 991 1019 1311 708 
Q 1631 397 2203 397 
Q 2534 397 2845 478 
Q 3156 559 3463 722 
L 3463 178 
Q 3153 47 2828 -22 
Q 2503 -91 2169 -91 
Q 1331 -91 842 396 
Q 353 884 353 1716 
Q 353 2575 817 3079 
Q 1281 3584 2069 3584 
Q 2775 3584 3186 3129 
Q 3597 2675 3597 1894 
z
M 3022 2063 
Q 3016 2534 2758 2815 
Q 2500 3097 2075 3097 
Q 1594 3097 1305 2825 
Q 1016 2553 972 2059 
L 3022 2063 
z
" transform="scale(0.015625)"/>
       <path id="DejaVuSans-6c" d="M 603 4863 
L 1178 4863 
L 1178 0 
L 603 0 
L 603 4863 
z
" transform="scale(0.015625)"/>
       <path id="DejaVuSans-6e" d="M 3513 2113 
L 3513 0 
L 2938 0 
L 2938 2094 
Q 2938 2591 2744 2837 
Q 2550 3084 2163 3084 
Q 1697 3084 1428 2787 
Q 1159 2491 1159 1978 
L 1159 0 
L 581 0 
L 581 3500 
L 1159 3500 
L 1159 2956 
Q 1366 3272 1645 3428 
Q 1925 3584 2291 3584 
Q 2894 3584 3203 3211 
Q 3513 2838 3513 2113 
z
" transform="scale(0.015625)"/>
       <path id="DejaVuSans-67" d="M 2906 1791 
Q 2906 2416 2648 2759 
Q 2391 3103 1925 3103 
Q 1463 3103 1205 2759 
Q 947 2416 947 1791 
Q 947 1169 1205 825 
Q 1463 481 1925 481 
Q 2391 481 2648 825 
Q 2906 1169 2906 1791 
z
M 3481 434 
Q 3481 -459 3084 -895 
Q 2688 -1331 1869 -1331 
Q 1566 -1331 1297 -1286 
Q 1028 -1241 775 -1147 
L 775 -588 
Q 1028 -725 1275 -790 
Q 1522 -856 1778 -856 
Q 2344 -856 2625 -561 
Q 2906 -266 2906 331 
L 2906 616 
Q 2728 306 2450 153 
Q 2172 0 1784 0 
Q 1141 0 747 490 
Q 353 981 353 1791 
Q 353 2603 747 3093 
Q 1141 3584 1784 3584 
Q 2172 3584 2450 3431 
Q 2728 3278 2906 2969 
L 2906 3500 
L 3481 3500 
L 3481 434 
z
" transform="scale(0.015625)"/>
       <path id="DejaVuSans-74" d="M 1172 4494 
L 1172 3500 
L 2356 3500 
L 2356 3053 
L 1172 3053 
L 1172 1153 
Q 1172 725 1289 603 
Q 1406 481 1766 481 
L 2356 481 
L 2356 0 
L 1766 0 
Q 1100 0 847 248 
Q 594 497 594 1153 
L 594 3053 
L 172 3053 
L 172 3500 
L 594 3500 
L 594 4494 
L 1172 4494 
z
" transform="scale(0.015625)"/>
       <path id="DejaVuSans-68" d="M 3513 2113 
L 3513 0 
L 2938 0 
L 2938 2094 
Q 2938 2591 2744 2837 
Q 2550 3084 2163 3084 
Q 1697 3084 1428 2787 
Q 1159 2491 1159 1978 
L 1159 0 
L 581 0 
L 581 4863 
L 1159 4863 
L 1159 2956 
Q 1366 3272 1645 3428 
Q 1925 3584 2291 3584 
Q 2894 3584 3203 3211 
Q 3513 2838 3513 2113 
z
" transform="scale(0.015625)"/>
       <path id="DejaVuSans-20" transform="scale(0.015625)"/>
       <path id="DejaVuSans-5b" d="M 550 4863 
L 1875 4863 
L 1875 4416 
L 1125 4416 
L 1125 -397 
L 1875 -397 
L 1875 -844 
L 550 -844 
L 550 4863 
z
" transform="scale(0.015625)"/>
       <path id="DejaVuSans-6d" d="M 3328 2828 
Q 3544 3216 3844 3400 
Q 4144 3584 4550 3584 
Q 5097 3584 5394 3201 
Q 5691 2819 5691 2113 
L 5691 0 
L 5113 0 
L 5113 2094 
Q 5113 2597 4934 2840 
Q 4756 3084 4391 3084 
Q 3944 3084 3684 2787 
Q 3425 2491 3425 1978 
L 3425 0 
L 2847 0 
L 2847 2094 
Q 2847 2600 2669 2842 
Q 2491 3084 2119 3084 
Q 1678 3084 1418 2786 
Q 1159 2488 1159 1978 
L 1159 0 
L 581 0 
L 581 3500 
L 1159 3500 
L 1159 2956 
Q 1356 3278 1631 3431 
Q 1906 3584 2284 3584 
Q 2666 3584 2933 3390 
Q 3200 3197 3328 2828 
z
" transform="scale(0.015625)"/>
       <path id="DejaVuSans-5d" d="M 1947 4863 
L 1947 -844 
L 622 -844 
L 622 -397 
L 1369 -397 
L 1369 4416 
L 622 4416 
L 622 4863 
L 1947 4863 
z
" transform="scale(0.015625)"/>
      </defs>
      <use xlink:href="#DejaVuSans-57"/>
      <use xlink:href="#DejaVuSans-61" x="92.501953"/>
      <use xlink:href="#DejaVuSans-76" x="153.78125"/>
      <use xlink:href="#DejaVuSans-65" x="212.960938"/>
      <use xlink:href="#DejaVuSans-6c" x="274.484375"/>
      <use xlink:href="#DejaVuSans-65" x="302.267578"/>
      <use xlink:href="#DejaVuSans-6e" x="363.791016"/>
      <use xlink:href="#DejaVuSans-67" x="427.169922"/>
      <use xlink:href="#DejaVuSans-74" x="490.646484"/>
      <use xlink:href="#DejaVuSans-68" x="529.855469"/>
      <use xlink:href="#DejaVuSans-20" x="593.234375"/>
      <use xlink:href="#DejaVuSans-5b" x="625.021484"/>
      <use xlink:href="#DejaVuSans-6e" x="664.035156"/>
      <use xlink:href="#DejaVuSans-6d" x="727.414062"/>
      <use xlink:href="#DejaVuSans-5d" x="824.826172"/>
     </g>
    </g>
   </g>
   <g id="matplotlib.axis_2">
    <g id="ytick_1">
     <g id="line2d_8">
      <defs>
       <path id="me8bddb25f8" d="M 0 0 
L -3.5 0 
" style="stroke: #000000; stroke-width: 0.8"/>
      </defs>
      <g>
       <use xlink:href="#me8bddb25f8" x="144" y="463.38613" style="stroke: #000000; stroke-width: 0.8"/>
      </g>
     </g>
     <g id="text_9">
      <!-- 0.0 -->
      <g transform="translate(121.096875 467.185349)scale(0.1 -0.1)">
       <defs>
        <path id="DejaVuSans-2e" d="M 684 794 
L 1344 794 
L 1344 0 
L 684 0 
L 684 794 
z
" transform="scale(0.015625)"/>
       </defs>
       <use xlink:href="#DejaVuSans-30"/>
       <use xlink:href="#DejaVuSans-2e" x="63.623047"/>
       <use xlink:href="#DejaVuSans-30" x="95.410156"/>
      </g>
     </g>
    </g>
    <g id="ytick_2">
     <g id="line2d_9">
      <g>
       <use xlink:href="#me8bddb25f8" x="144" y="389.917862" style="stroke: #000000; stroke-width: 0.8"/>
      </g>
     </g>
     <g id="text_10">
      <!-- 0.2 -->
      <g transform="translate(121.096875 393.717081)scale(0.1 -0.1)">
       <defs>
        <path id="DejaVuSans-32" d="M 1228 531 
L 3431 531 
L 3431 0 
L 469 0 
L 469 531 
Q 828 903 1448 1529 
Q 2069 2156 2228 2338 
Q 2531 2678 2651 2914 
Q 2772 3150 2772 3378 
Q 2772 3750 2511 3984 
Q 2250 4219 1831 4219 
Q 1534 4219 1204 4116 
Q 875 4013 500 3803 
L 500 4441 
Q 881 4594 1212 4672 
Q 1544 4750 1819 4750 
Q 2544 4750 2975 4387 
Q 3406 4025 3406 3419 
Q 3406 3131 3298 2873 
Q 3191 2616 2906 2266 
Q 2828 2175 2409 1742 
Q 1991 1309 1228 531 
z
" transform="scale(0.015625)"/>
       </defs>
       <use xlink:href="#DejaVuSans-30"/>
       <use xlink:href="#DejaVuSans-2e" x="63.623047"/>
       <use xlink:href="#DejaVuSans-32" x="95.410156"/>
      </g>
     </g>
    </g>
    <g id="ytick_3">
     <g id="line2d_10">
      <g>
       <use xlink:href="#me8bddb25f8" x="144" y="316.449595" style="stroke: #000000; stroke-width: 0.8"/>
      </g>
     </g>
     <g id="text_11">
      <!-- 0.4 -->
      <g transform="translate(121.096875 320.248813)scale(0.1 -0.1)">
       <use xlink:href="#DejaVuSans-30"/>
       <use xlink:href="#DejaVuSans-2e" x="63.623047"/>
       <use xlink:href="#DejaVuSans-34" x="95.410156"/>
      </g>
     </g>
    </g>
    <g id="ytick_4">
     <g id="line2d_11">
      <g>
       <use xlink:href="#me8bddb25f8" x="144" y="242.981327" style="stroke: #000000; stroke-width: 0.8"/>
      </g>
     </g>
     <g id="text_12">
      <!-- 0.6 -->
      <g transform="translate(121.096875 246.780546)scale(0.1 -0.1)">
       <use xlink:href="#DejaVuSans-30"/>
       <use xlink:href="#DejaVuSans-2e" x="63.623047"/>
       <use xlink:href="#DejaVuSans-36" x="95.410156"/>
      </g>
     </g>
    </g>
    <g id="ytick_5">
     <g id="line2d_12">
      <g>
       <use xlink:href="#me8bddb25f8" x="144" y="169.513059" style="stroke: #000000; stroke-width: 0.8"/>
      </g>
     </g>
     <g id="text_13">
      <!-- 0.8 -->
      <g transform="translate(121.096875 173.312278)scale(0.1 -0.1)">
       <use xlink:href="#DejaVuSans-30"/>
       <use xlink:href="#DejaVuSans-2e" x="63.623047"/>
       <use xlink:href="#DejaVuSans-38" x="95.410156"/>
      </g>
     </g>
    </g>
    <g id="ytick_6">
     <g id="line2d_13">
      <g>
       <use xlink:href="#me8bddb25f8" x="144" y="96.044792" style="stroke: #000000; stroke-width: 0.8"/>
      </g>
     </g>
     <g id="text_14">
      <!-- 1.0 -->
      <g transform="translate(121.096875 99.84401)scale(0.1 -0.1)">
       <use xlink:href="#DejaVuSans-31"/>
       <use xlink:href="#DejaVuSans-2e" x="63.623047"/>
       <use xlink:href="#DejaVuSans-30" x="95.410156"/>
      </g>
     </g>
    </g>
    <g id="text_15">
     <!-- Scaled Flux -->
     <g transform="translate(114.60125 325.21125)rotate(-90)scale(0.12 -0.12)">
      <defs>
       <path id="DejaVuSans-53" d="M 3425 4513 
L 3425 3897 
Q 3066 4069 2747 4153 
Q 2428 4238 2131 4238 
Q 1616 4238 1336 4038 
Q 1056 3838 1056 3469 
Q 1056 3159 1242 3001 
Q 1428 2844 1947 2747 
L 2328 2669 
Q 3034 2534 3370 2195 
Q 3706 1856 3706 1288 
Q 3706 609 3251 259 
Q 2797 -91 1919 -91 
Q 1588 -91 1214 -16 
Q 841 59 441 206 
L 441 856 
Q 825 641 1194 531 
Q 1563 422 1919 422 
Q 2459 422 2753 634 
Q 3047 847 3047 1241 
Q 3047 1584 2836 1778 
Q 2625 1972 2144 2069 
L 1759 2144 
Q 1053 2284 737 2584 
Q 422 2884 422 3419 
Q 422 4038 858 4394 
Q 1294 4750 2059 4750 
Q 2388 4750 2728 4690 
Q 3069 4631 3425 4513 
z
" transform="scale(0.015625)"/>
       <path id="DejaVuSans-63" d="M 3122 3366 
L 3122 2828 
Q 2878 2963 2633 3030 
Q 2388 3097 2138 3097 
Q 1578 3097 1268 2742 
Q 959 2388 959 1747 
Q 959 1106 1268 751 
Q 1578 397 2138 397 
Q 2388 397 2633 464 
Q 2878 531 3122 666 
L 3122 134 
Q 2881 22 2623 -34 
Q 2366 -91 2075 -91 
Q 1284 -91 818 406 
Q 353 903 353 1747 
Q 353 2603 823 3093 
Q 1294 3584 2113 3584 
Q 2378 3584 2631 3529 
Q 2884 3475 3122 3366 
z
" transform="scale(0.015625)"/>
       <path id="DejaVuSans-64" d="M 2906 2969 
L 2906 4863 
L 3481 4863 
L 3481 0 
L 2906 0 
L 2906 525 
Q 2725 213 2448 61 
Q 2172 -91 1784 -91 
Q 1150 -91 751 415 
Q 353 922 353 1747 
Q 353 2572 751 3078 
Q 1150 3584 1784 3584 
Q 2172 3584 2448 3432 
Q 2725 3281 2906 2969 
z
M 947 1747 
Q 947 1113 1208 752 
Q 1469 391 1925 391 
Q 2381 391 2643 752 
Q 2906 1113 2906 1747 
Q 2906 2381 2643 2742 
Q 2381 3103 1925 3103 
Q 1469 3103 1208 2742 
Q 947 2381 947 1747 
z
" transform="scale(0.015625)"/>
       <path id="DejaVuSans-46" d="M 628 4666 
L 3309 4666 
L 3309 4134 
L 1259 4134 
L 1259 2759 
L 3109 2759 
L 3109 2228 
L 1259 2228 
L 1259 0 
L 628 0 
L 628 4666 
z
" transform="scale(0.015625)"/>
       <path id="DejaVuSans-75" d="M 544 1381 
L 544 3500 
L 1119 3500 
L 1119 1403 
Q 1119 906 1312 657 
Q 1506 409 1894 409 
Q 2359 409 2629 706 
Q 2900 1003 2900 1516 
L 2900 3500 
L 3475 3500 
L 3475 0 
L 2900 0 
L 2900 538 
Q 2691 219 2414 64 
Q 2138 -91 1772 -91 
Q 1169 -91 856 284 
Q 544 659 544 1381 
z
M 1991 3584 
L 1991 3584 
z
" transform="scale(0.015625)"/>
       <path id="DejaVuSans-78" d="M 3513 3500 
L 2247 1797 
L 3578 0 
L 2900 0 
L 1881 1375 
L 863 0 
L 184 0 
L 1544 1831 
L 300 3500 
L 978 3500 
L 1906 2253 
L 2834 3500 
L 3513 3500 
z
" transform="scale(0.015625)"/>
      </defs>
      <use xlink:href="#DejaVuSans-53"/>
      <use xlink:href="#DejaVuSans-63" x="63.476562"/>
      <use xlink:href="#DejaVuSans-61" x="118.457031"/>
      <use xlink:href="#DejaVuSans-6c" x="179.736328"/>
      <use xlink:href="#DejaVuSans-65" x="207.519531"/>
      <use xlink:href="#DejaVuSans-64" x="269.042969"/>
      <use xlink:href="#DejaVuSans-20" x="332.519531"/>
      <use xlink:href="#DejaVuSans-46" x="364.306641"/>
      <use xlink:href="#DejaVuSans-6c" x="421.826172"/>
      <use xlink:href="#DejaVuSans-75" x="449.609375"/>
      <use xlink:href="#DejaVuSans-78" x="512.988281"/>
     </g>
    </g>
   </g>
   <g id="line2d_14">
    <path d="M 184.581818 445.394849 
L 186.955024 447.515107 
L 189.32823 455.225236 
L 191.701435 457.522806 
L 194.074641 453.222645 
L 196.447847 449.66128 
L 198.821053 450.509177 
L 201.194258 451.781507 
L 203.567464 448.56904 
L 205.94067 444.876679 
L 208.313876 447.636227 
L 210.687081 451.741421 
L 213.060287 450.599448 
L 215.433493 447.41617 
L 217.806699 447.098502 
L 220.179904 449.749741 
L 222.55311 451.690959 
L 224.926316 451.208638 
L 227.299522 450.606077 
L 229.672727 452.118507 
L 232.045933 454.388921 
L 234.419139 454.409999 
L 236.792344 452.848061 
L 239.16555 452.862356 
L 241.538756 454.596158 
L 243.911962 455.257788 
L 246.285167 454.154909 
L 248.658373 454.051725 
L 251.031579 456.853757 
L 253.404785 461.112564 
L 255.77799 463.38613 
L 258.151196 461.708071 
L 260.524402 457.292505 
L 262.897608 453.153834 
L 265.270813 451.730001 
L 267.644019 452.764095 
L 270.017225 454.081699 
L 272.390431 453.668781 
L 274.763636 451.348083 
L 277.136842 448.666306 
L 279.510048 447.743477 
L 281.883254 449.286287 
L 284.256459 452.177742 
L 286.629665 454.322621 
L 289.002871 454.121498 
L 291.376077 451.467058 
L 293.749282 447.79516 
L 296.122488 444.835536 
L 298.495694 443.735326 
L 300.8689 444.501347 
L 303.242105 446.152258 
L 305.615311 447.582508 
L 307.988517 448.329404 
L 310.361722 448.450906 
L 312.734928 448.396564 
L 315.108134 448.51777 
L 317.48134 448.805079 
L 319.854545 448.911095 
L 322.227751 448.391939 
L 324.600957 447.092259 
L 326.974163 445.343251 
L 329.347368 443.761494 
L 331.720574 443.139613 
L 334.09378 443.877025 
L 336.466986 445.910368 
L 338.840191 448.709654 
L 341.213397 451.301758 
L 343.586603 452.946921 
L 345.959809 453.096371 
L 348.333014 451.733016 
L 350.70622 449.318936 
L 353.079426 446.573765 
L 355.452632 444.165046 
L 357.825837 442.717131 
L 360.199043 442.308762 
L 362.572249 442.90839 
L 367.31866 445.202127 
L 369.691866 446.005352 
L 372.065072 446.276407 
L 374.438278 445.987754 
L 376.811483 445.248656 
L 379.184689 444.323415 
L 381.557895 443.586697 
L 383.9311 443.04511 
L 386.304306 442.828413 
L 391.050718 442.788978 
L 393.423923 442.616131 
L 395.797129 442.110422 
L 398.170335 441.211979 
L 402.916746 438.651504 
L 405.289952 437.291382 
L 407.663158 436.154862 
L 410.036364 435.477627 
L 412.409569 435.299081 
L 414.782775 435.62169 
L 417.155981 436.453583 
L 421.902392 438.616797 
L 424.275598 439.545093 
L 426.648804 440.180867 
L 429.02201 440.339115 
L 431.395215 439.986101 
L 433.768421 439.30614 
L 436.141627 438.316445 
L 440.888038 436.042934 
L 443.261244 435.220868 
L 445.63445 434.638322 
L 448.007656 434.451549 
L 450.380861 434.6988 
L 452.754067 435.295153 
L 457.500478 437.060899 
L 459.873684 437.985741 
L 462.24689 438.675388 
L 464.620096 439.04775 
L 466.993301 439.199087 
L 469.366507 439.034948 
L 471.739713 438.656859 
L 476.486124 437.263748 
L 478.85933 436.534808 
L 485.978947 434.081666 
L 488.352153 433.240761 
L 490.725359 432.700198 
L 495.47177 432.017897 
L 497.844976 431.851461 
L 500.218182 431.849673 
L 502.591388 432.088077 
L 507.337799 432.89825 
L 509.711005 433.307052 
L 512.084211 433.574674 
L 514.457416 433.65498 
L 516.830622 433.504896 
L 519.203828 433.02538 
L 521.577033 432.412496 
L 523.950239 431.412282 
L 526.323445 429.887232 
L 528.696651 428.168815 
L 531.069856 426.214459 
L 538.189474 419.7841 
L 540.562679 419.437068 
L 542.935885 419.653988 
L 545.309091 419.550629 
L 547.682297 421.8506 
L 550.055502 427.993799 
L 552.428708 431.95612 
L 554.801914 429.187527 
L 557.17512 417.402476 
L 561.921531 380.042245 
L 564.294737 367.416391 
L 566.667943 365.799526 
L 569.041148 375.330939 
L 571.414354 392.200371 
L 573.78756 410.686096 
L 576.160766 425.732824 
L 578.533971 434.579134 
L 580.907177 437.401996 
L 583.280383 436.257517 
L 588.026794 430.552262 
L 590.4 428.225041 
L 592.773206 426.36791 
L 599.892823 421.450351 
L 602.266029 419.462389 
L 604.639234 416.77761 
L 607.01244 413.179672 
L 611.758852 403.772148 
L 614.132057 400.121012 
L 616.505263 398.820318 
L 618.878469 400.179048 
L 621.251675 404.286793 
L 625.998086 415.234578 
L 628.371292 419.720631 
L 630.744498 422.661642 
L 633.117703 424.180344 
L 635.490909 424.67726 
L 637.864115 424.536201 
L 640.237321 423.805362 
L 642.610526 421.776578 
L 644.983732 418.264833 
L 647.356938 412.881069 
L 649.730144 405.68618 
L 656.849761 381.633073 
L 663.969378 358.661466 
L 668.715789 341.503776 
L 671.088995 333.533607 
L 673.462201 327.567731 
L 675.835407 324.245466 
L 678.208612 324.8814 
L 680.581818 328.877783 
L 682.955024 336.303185 
L 685.32823 345.582495 
L 692.447847 376.005504 
L 694.821053 384.685491 
L 697.194258 392.029885 
L 699.567464 397.5286 
L 701.94067 401.214419 
L 704.313876 402.643743 
L 706.687081 401.578119 
L 709.060287 398.326899 
L 711.433493 393.498084 
L 716.179904 382.63603 
L 718.55311 378.078015 
L 720.926316 374.663678 
L 725.672727 369.46783 
L 728.045933 365.939488 
L 730.419139 360.686335 
L 732.792344 353.54772 
L 735.16555 344.295832 
L 742.285167 313.204647 
L 744.658373 304.777313 
L 747.031579 298.364561 
L 749.404785 293.719441 
L 754.151196 288.398105 
L 756.524402 286.53447 
L 758.897608 284.422675 
L 761.270813 282.997308 
L 763.644019 282.16352 
L 766.017225 282.126042 
L 768.390431 284.033013 
L 770.763636 288.268497 
L 773.136842 294.551298 
L 775.510048 302.95655 
L 780.256459 321.117431 
L 782.629665 329.884464 
L 785.002871 336.987249 
L 787.376077 342.892661 
L 789.749282 345.733594 
L 792.122488 346.704304 
L 794.495694 345.946351 
L 796.8689 344.302614 
L 799.242105 341.297741 
L 801.615311 337.407671 
L 803.988517 332.416652 
L 806.361722 326.886674 
L 808.734928 320.610301 
L 811.108134 313.143963 
L 813.48134 304.947831 
L 815.854545 295.257459 
L 818.227751 287.726434 
L 820.600957 279.160815 
L 822.974163 272.65647 
L 825.347368 267.279077 
L 827.720574 263.624627 
L 830.09378 260.568305 
L 832.466986 260.390514 
L 834.840191 261.447073 
L 837.213397 263.390238 
L 839.586603 264.944291 
L 841.959809 265.457324 
L 844.333014 265.261368 
L 846.70622 263.785418 
L 849.079426 259.761791 
L 851.452632 255.22887 
L 853.825837 248.939371 
L 856.199043 241.832697 
L 858.572249 235.243327 
L 860.945455 229.062842 
L 863.31866 222.125579 
L 865.691866 217.941076 
L 868.065072 214.714172 
L 870.438278 212.360199 
L 872.811483 211.26674 
L 875.184689 213.542844 
L 877.557895 215.659357 
L 879.9311 216.917932 
L 884.677512 226.101822 
L 887.050718 228.880086 
L 889.423923 233.049826 
L 891.797129 236.887874 
L 894.170335 239.049114 
L 896.543541 240.403933 
L 898.916746 240.383122 
L 901.289952 240.530784 
L 903.663158 239.628439 
L 906.036364 234.972655 
L 908.409569 233.208967 
L 910.782775 230.003818 
L 913.155981 223.807525 
L 915.529187 221.219062 
L 917.902392 217.312491 
L 920.275598 211.715984 
L 922.648804 208.484043 
L 925.02201 204.87964 
L 927.395215 201.528429 
L 929.768421 197.629487 
L 932.141627 196.814563 
L 934.514833 193.944819 
L 936.888038 190.162027 
L 939.261244 190.594005 
L 941.63445 186.398066 
L 944.007656 184.311247 
L 946.380861 185.217845 
L 948.754067 180.20843 
L 951.127273 181.946956 
L 953.500478 179.882314 
L 955.873684 178.977136 
L 958.24689 181.095347 
L 960.620096 176.898611 
L 962.993301 178.588441 
L 967.739713 172.148762 
L 970.112919 171.230709 
L 972.486124 166.444013 
L 974.85933 162.121059 
L 977.232536 158.618947 
L 979.605742 149.674757 
L 981.978947 145.476334 
L 984.352153 136.514449 
L 986.725359 125.451819 
L 989.098565 120.799698 
L 991.47177 106.972476 
L 993.844976 105.827614 
L 996.218182 96.044792 
L 996.218182 96.044792 
" clip-path="url(#pe9671df576)" style="fill: none; stroke: #0000ff; stroke-width: 1.5; stroke-linecap: square"/>
   </g>
   <g id="line2d_15">
    <path d="M 184.581818 430.155251 
L 186.955024 483.246198 
L 189.32823 452.500725 
L 191.701435 473.578949 
L 194.074641 449.672624 
L 198.821053 444.308151 
L 201.194258 459.400797 
L 203.567464 434.125584 
L 205.94067 431.967027 
L 208.313876 442.398023 
L 210.687081 458.522465 
L 213.060287 464.129728 
L 215.433493 479.022051 
L 217.806699 432.306216 
L 220.179904 461.622336 
L 222.55311 467.765093 
L 224.926316 450.000916 
L 227.299522 446.539159 
L 229.672727 439.866527 
L 232.045933 445.728764 
L 234.419139 455.307108 
L 236.792344 444.781659 
L 239.16555 449.36878 
L 241.538756 447.901125 
L 243.911962 467.678074 
L 246.285167 475.783624 
L 248.658373 468.817025 
L 251.031579 492.48 
L 253.404785 432.99001 
L 255.77799 482.961427 
L 258.151196 426.586415 
L 260.524402 434.760646 
L 262.897608 454.694256 
L 265.270813 447.27223 
L 267.644019 456.681319 
L 270.017225 445.165024 
L 272.390431 466.98541 
L 274.763636 443.576055 
L 277.136842 484.340264 
L 279.510048 474.438484 
L 281.883254 458.71762 
L 284.256459 429.356502 
L 286.629665 452.693933 
L 289.002871 455.129221 
L 291.376077 433.786411 
L 293.749282 436.891219 
L 296.122488 446.854381 
L 298.495694 463.093985 
L 300.8689 435.824709 
L 303.242105 474.686775 
L 305.615311 442.663208 
L 307.988517 417.646528 
L 310.361722 459.538448 
L 312.734928 413.67324 
L 315.108134 470.831446 
L 317.48134 454.050198 
L 319.854545 433.161626 
L 322.227751 434.477047 
L 324.600957 436.45594 
L 326.974163 433.477249 
L 329.347368 456.190734 
L 331.720574 452.8508 
L 334.09378 428.985295 
L 336.466986 467.608444 
L 338.840191 468.35628 
L 341.213397 445.804231 
L 343.586603 432.563296 
L 345.959809 424.497949 
L 348.333014 464.498262 
L 350.70622 462.192772 
L 353.079426 438.476798 
L 355.452632 458.560011 
L 357.825837 464.184036 
L 360.199043 482.549581 
L 362.572249 443.240925 
L 364.945455 433.991631 
L 367.31866 418.559904 
L 369.691866 480.665188 
L 372.065072 457.005313 
L 374.438278 472.145009 
L 376.811483 453.527129 
L 379.184689 425.543434 
L 381.557895 428.962703 
L 383.9311 453.231971 
L 386.304306 424.76079 
L 388.677512 462.735698 
L 391.050718 437.476594 
L 393.423923 435.492616 
L 395.797129 453.312985 
L 398.170335 445.36799 
L 400.543541 416.260233 
L 402.916746 424.048098 
L 405.289952 416.988102 
L 407.663158 420.761886 
L 410.036364 444.884124 
L 412.409569 437.078311 
L 414.782775 417.637541 
L 417.155981 435.414649 
L 419.529187 437.015894 
L 421.902392 448.543933 
L 424.275598 431.383319 
L 426.648804 446.562823 
L 429.02201 442.990423 
L 431.395215 407.789151 
L 433.768421 436.407304 
L 436.141627 438.456014 
L 438.514833 448.198799 
L 440.888038 409.300192 
L 443.261244 409.777239 
L 445.63445 451.06352 
L 448.007656 428.547559 
L 450.380861 426.459021 
L 452.754067 448.362308 
L 455.127273 414.045265 
L 457.500478 438.739255 
L 459.873684 460.078662 
L 462.24689 448.618147 
L 464.620096 420.152136 
L 466.993301 429.45162 
L 469.366507 460.646963 
L 471.739713 423.654277 
L 474.112919 449.381462 
L 476.486124 413.141882 
L 478.85933 432.833144 
L 481.232536 433.173999 
L 483.605742 385.747048 
L 485.978947 381.45165 
L 488.352153 404.19929 
L 490.725359 445.746914 
L 493.098565 408.323916 
L 495.47177 465.593989 
L 497.844976 418.930764 
L 500.218182 422.761564 
L 502.591388 446.907391 
L 504.964593 444.3026 
L 507.337799 421.715633 
L 509.711005 430.39768 
L 512.084211 426.037553 
L 514.457416 457.049906 
L 516.830622 450.77784 
L 519.203828 446.151269 
L 523.950239 401.204492 
L 526.323445 454.772682 
L 528.696651 428.137522 
L 531.069856 408.642465 
L 533.443062 421.143225 
L 535.816268 428.29848 
L 538.189474 413.612132 
L 540.562679 415.016217 
L 542.935885 448.316815 
L 545.309091 390.371524 
L 547.682297 450.624411 
L 550.055502 410.778973 
L 552.428708 407.38575 
L 554.801914 454.692688 
L 557.17512 395.112707 
L 559.548325 385.907415 
L 561.921531 390.42916 
L 564.294737 391.227626 
L 566.667943 354.797871 
L 569.041148 377.181017 
L 571.414354 374.478888 
L 573.78756 407.286089 
L 576.160766 438.053144 
L 578.533971 443.6111 
L 580.907177 433.100022 
L 583.280383 434.998691 
L 585.653589 410.745439 
L 588.026794 458.100653 
L 590.4 402.860211 
L 592.773206 416.884783 
L 595.146411 436.91886 
L 597.519617 393.433699 
L 599.892823 442.348246 
L 602.266029 437.526812 
L 604.639234 430.430955 
L 607.01244 416.741696 
L 609.385646 430.204512 
L 611.758852 420.952173 
L 614.132057 437.60425 
L 616.505263 373.87445 
L 618.878469 433.47233 
L 621.251675 380.829601 
L 623.62488 417.819481 
L 625.998086 426.592468 
L 628.371292 437.516108 
L 630.744498 418.985116 
L 633.117703 436.068386 
L 635.490909 432.598068 
L 637.864115 398.480493 
L 640.237321 414.848437 
L 642.610526 454.559969 
L 644.983732 423.243624 
L 647.356938 403.288161 
L 652.103349 382.139927 
L 654.476555 386.14393 
L 656.849761 401.311654 
L 659.222967 404.50314 
L 661.596172 367.721711 
L 663.969378 393.772349 
L 666.342584 383.754693 
L 668.715789 329.890866 
L 671.088995 342.94573 
L 673.462201 337.781824 
L 675.835407 286.299808 
L 678.208612 339.12704 
L 680.581818 325.241681 
L 682.955024 330.427803 
L 685.32823 305.402109 
L 687.701435 373.941389 
L 690.074641 342.352085 
L 692.447847 394.458189 
L 694.821053 402.304853 
L 697.194258 367.920476 
L 699.567464 417.788365 
L 701.94067 403.277524 
L 704.313876 391.62899 
L 706.687081 409.631341 
L 709.060287 409.881824 
L 711.433493 392.815762 
L 713.806699 382.154629 
L 716.179904 362.048725 
L 718.55311 347.420108 
L 720.926316 359.638113 
L 723.299522 333.5601 
L 725.672727 354.303637 
L 728.045933 399.939865 
L 730.419139 373.849573 
L 732.792344 356.847012 
L 735.16555 342.481694 
L 737.538756 322.619352 
L 739.911962 320.409818 
L 742.285167 303.841523 
L 744.658373 318.162313 
L 747.031579 299.866786 
L 749.404785 299.564305 
L 751.77799 282.762608 
L 754.151196 301.786641 
L 756.524402 250.121253 
L 758.897608 306.484959 
L 761.270813 283.327137 
L 763.644019 294.366692 
L 766.017225 291.528702 
L 768.390431 286.544136 
L 770.763636 258.902304 
L 773.136842 287.846817 
L 775.510048 287.084289 
L 777.883254 305.88383 
L 780.256459 290.6106 
L 782.629665 343.650873 
L 785.002871 314.354042 
L 787.376077 359.296288 
L 789.749282 339.758199 
L 792.122488 361.234983 
L 794.495694 334.953065 
L 796.8689 329.401863 
L 799.242105 363.111272 
L 801.615311 319.748496 
L 803.988517 346.584 
L 806.361722 323.656798 
L 808.734928 320.301699 
L 811.108134 314.748876 
L 813.48134 299.673127 
L 815.854545 323.949371 
L 818.227751 275.319234 
L 820.600957 261.210394 
L 822.974163 241.586266 
L 825.347368 261.300977 
L 827.720574 286.777521 
L 830.09378 305.793767 
L 832.466986 243.294514 
L 834.840191 255.756137 
L 837.213397 280.655516 
L 839.586603 266.869501 
L 841.959809 240.171957 
L 844.333014 236.987721 
L 846.70622 294.70423 
L 849.079426 267.665384 
L 851.452632 275.854917 
L 853.825837 268.328637 
L 856.199043 241.282948 
L 858.572249 192.365105 
L 860.945455 218.60507 
L 863.31866 240.794718 
L 865.691866 247.612971 
L 868.065072 257.195585 
L 870.438278 201.357462 
L 872.811483 206.38164 
L 875.184689 174.49995 
L 877.557895 213.665397 
L 879.9311 189.508264 
L 882.304306 227.484842 
L 884.677512 224.608059 
L 887.050718 209.558036 
L 889.423923 202.369863 
L 891.797129 224.103814 
L 894.170335 235.973617 
L 896.543541 257.268772 
L 898.916746 235.33551 
L 901.289952 219.149709 
L 903.663158 209.816017 
L 906.036364 249.048702 
L 908.409569 191.895531 
L 910.782775 196.398714 
L 913.155981 225.972797 
L 915.529187 215.441599 
L 917.902392 208.744316 
L 920.275598 197.14497 
L 922.648804 203.14464 
L 925.02201 202.512126 
L 927.395215 203.235127 
L 929.768421 211.107703 
L 932.141627 202.708723 
L 936.888038 180.329186 
L 939.261244 205.763587 
L 941.63445 212.290297 
L 944.007656 192.339665 
L 946.380861 218.007607 
L 948.754067 185.347372 
L 951.127273 176.447004 
L 953.500478 152.007254 
L 955.873684 203.095602 
L 958.24689 145.79306 
L 960.620096 202.549729 
L 962.993301 189.479896 
L 965.366507 146.055385 
L 967.739713 174.3536 
L 970.112919 172.183956 
L 972.486124 200.165356 
L 974.85933 156.283507 
L 977.232536 154.490712 
L 979.605742 147.729803 
L 981.978947 160.658831 
L 984.352153 139.465662 
L 986.725359 89.28 
L 989.098565 128.840901 
L 991.47177 115.06312 
L 993.844976 102.455388 
L 996.218182 91.909408 
L 996.218182 91.909408 
" clip-path="url(#pe9671df576)" style="fill: none; stroke: #008000; stroke-width: 1.5; stroke-linecap: square"/>
   </g>
   <g id="patch_3">
    <path d="M 144 512.64 
L 144 69.12 
" style="fill: none; stroke: #000000; stroke-width: 0.8; stroke-linejoin: miter; stroke-linecap: square"/>
   </g>
   <g id="patch_4">
    <path d="M 1036.8 512.64 
L 1036.8 69.12 
" style="fill: none; stroke: #000000; stroke-width: 0.8; stroke-linejoin: miter; stroke-linecap: square"/>
   </g>
   <g id="patch_5">
    <path d="M 144 512.64 
L 1036.8 512.64 
" style="fill: none; stroke: #000000; stroke-width: 0.8; stroke-linejoin: miter; stroke-linecap: square"/>
   </g>
   <g id="patch_6">
    <path d="M 144 69.12 
L 1036.8 69.12 
" style="fill: none; stroke: #000000; stroke-width: 0.8; stroke-linejoin: miter; stroke-linecap: square"/>
   </g>
   <g id="text_16">
    <!-- SY (EM* AS 323) -->
    <g transform="translate(541.189687 63.12)scale(0.12 -0.12)">
     <defs>
      <path id="DejaVuSans-59" d="M -13 4666 
L 666 4666 
L 1959 2747 
L 3244 4666 
L 3922 4666 
L 2272 2222 
L 2272 0 
L 1638 0 
L 1638 2222 
L -13 4666 
z
" transform="scale(0.015625)"/>
      <path id="DejaVuSans-28" d="M 1984 4856 
Q 1566 4138 1362 3434 
Q 1159 2731 1159 2009 
Q 1159 1288 1364 580 
Q 1569 -128 1984 -844 
L 1484 -844 
Q 1016 -109 783 600 
Q 550 1309 550 2009 
Q 550 2706 781 3412 
Q 1013 4119 1484 4856 
L 1984 4856 
z
" transform="scale(0.015625)"/>
      <path id="DejaVuSans-45" d="M 628 4666 
L 3578 4666 
L 3578 4134 
L 1259 4134 
L 1259 2753 
L 3481 2753 
L 3481 2222 
L 1259 2222 
L 1259 531 
L 3634 531 
L 3634 0 
L 628 0 
L 628 4666 
z
" transform="scale(0.015625)"/>
      <path id="DejaVuSans-4d" d="M 628 4666 
L 1569 4666 
L 2759 1491 
L 3956 4666 
L 4897 4666 
L 4897 0 
L 4281 0 
L 4281 4097 
L 3078 897 
L 2444 897 
L 1241 4097 
L 1241 0 
L 628 0 
L 628 4666 
z
" transform="scale(0.015625)"/>
      <path id="DejaVuSans-2a" d="M 3009 3897 
L 1888 3291 
L 3009 2681 
L 2828 2375 
L 1778 3009 
L 1778 1831 
L 1422 1831 
L 1422 3009 
L 372 2375 
L 191 2681 
L 1313 3291 
L 191 3897 
L 372 4206 
L 1422 3572 
L 1422 4750 
L 1778 4750 
L 1778 3572 
L 2828 4206 
L 3009 3897 
z
" transform="scale(0.015625)"/>
      <path id="DejaVuSans-41" d="M 2188 4044 
L 1331 1722 
L 3047 1722 
L 2188 4044 
z
M 1831 4666 
L 2547 4666 
L 4325 0 
L 3669 0 
L 3244 1197 
L 1141 1197 
L 716 0 
L 50 0 
L 1831 4666 
z
" transform="scale(0.015625)"/>
      <path id="DejaVuSans-33" d="M 2597 2516 
Q 3050 2419 3304 2112 
Q 3559 1806 3559 1356 
Q 3559 666 3084 287 
Q 2609 -91 1734 -91 
Q 1441 -91 1130 -33 
Q 819 25 488 141 
L 488 750 
Q 750 597 1062 519 
Q 1375 441 1716 441 
Q 2309 441 2620 675 
Q 2931 909 2931 1356 
Q 2931 1769 2642 2001 
Q 2353 2234 1838 2234 
L 1294 2234 
L 1294 2753 
L 1863 2753 
Q 2328 2753 2575 2939 
Q 2822 3125 2822 3475 
Q 2822 3834 2567 4026 
Q 2313 4219 1838 4219 
Q 1578 4219 1281 4162 
Q 984 4106 628 3988 
L 628 4550 
Q 988 4650 1302 4700 
Q 1616 4750 1894 4750 
Q 2613 4750 3031 4423 
Q 3450 4097 3450 3541 
Q 3450 3153 3228 2886 
Q 3006 2619 2597 2516 
z
" transform="scale(0.015625)"/>
      <path id="DejaVuSans-29" d="M 513 4856 
L 1013 4856 
Q 1481 4119 1714 3412 
Q 1947 2706 1947 2009 
Q 1947 1309 1714 600 
Q 1481 -109 1013 -844 
L 513 -844 
Q 928 -128 1133 580 
Q 1338 1288 1338 2009 
Q 1338 2731 1133 3434 
Q 928 4138 513 4856 
z
" transform="scale(0.015625)"/>
     </defs>
     <use xlink:href="#DejaVuSans-53"/>
     <use xlink:href="#DejaVuSans-59" x="63.476562"/>
     <use xlink:href="#DejaVuSans-20" x="124.560547"/>
     <use xlink:href="#DejaVuSans-28" x="156.347656"/>
     <use xlink:href="#DejaVuSans-45" x="195.361328"/>
     <use xlink:href="#DejaVuSans-4d" x="258.544922"/>
     <use xlink:href="#DejaVuSans-2a" x="344.824219"/>
     <use xlink:href="#DejaVuSans-20" x="394.824219"/>
     <use xlink:href="#DejaVuSans-41" x="426.611328"/>
     <use xlink:href="#DejaVuSans-53" x="495.019531"/>
     <use xlink:href="#DejaVuSans-20" x="558.496094"/>
     <use xlink:href="#DejaVuSans-33" x="590.283203"/>
     <use xlink:href="#DejaVuSans-32" x="653.90625"/>
     <use xlink:href="#DejaVuSans-33" x="717.529297"/>
     <use xlink:href="#DejaVuSans-29" x="781.152344"/>
    </g>
   </g>
   <g id="legend_1">
    <g id="patch_7">
     <path d="M 152.4 113.9475 
L 302.01 113.9475 
Q 304.41 113.9475 304.41 111.5475 
L 304.41 77.52 
Q 304.41 75.12 302.01 75.12 
L 152.4 75.12 
Q 150 75.12 150 77.52 
L 150 111.5475 
Q 150 113.9475 152.4 113.9475 
z
" style="fill: #ffffff; opacity: 0.8; stroke: #cccccc; stroke-linejoin: miter"/>
    </g>
    <g id="line2d_16">
     <path d="M 154.8 84.838125 
L 166.8 84.838125 
L 178.8 84.838125 
" style="fill: none; stroke: #0000ff; stroke-width: 1.5; stroke-linecap: square"/>
    </g>
    <g id="text_17">
     <!-- Original Spectra -->
     <g transform="translate(188.4 89.038125)scale(0.12 -0.12)">
      <defs>
       <path id="DejaVuSans-4f" d="M 2522 4238 
Q 1834 4238 1429 3725 
Q 1025 3213 1025 2328 
Q 1025 1447 1429 934 
Q 1834 422 2522 422 
Q 3209 422 3611 934 
Q 4013 1447 4013 2328 
Q 4013 3213 3611 3725 
Q 3209 4238 2522 4238 
z
M 2522 4750 
Q 3503 4750 4090 4092 
Q 4678 3434 4678 2328 
Q 4678 1225 4090 567 
Q 3503 -91 2522 -91 
Q 1538 -91 948 565 
Q 359 1222 359 2328 
Q 359 3434 948 4092 
Q 1538 4750 2522 4750 
z
" transform="scale(0.015625)"/>
       <path id="DejaVuSans-72" d="M 2631 2963 
Q 2534 3019 2420 3045 
Q 2306 3072 2169 3072 
Q 1681 3072 1420 2755 
Q 1159 2438 1159 1844 
L 1159 0 
L 581 0 
L 581 3500 
L 1159 3500 
L 1159 2956 
Q 1341 3275 1631 3429 
Q 1922 3584 2338 3584 
Q 2397 3584 2469 3576 
Q 2541 3569 2628 3553 
L 2631 2963 
z
" transform="scale(0.015625)"/>
       <path id="DejaVuSans-69" d="M 603 3500 
L 1178 3500 
L 1178 0 
L 603 0 
L 603 3500 
z
M 603 4863 
L 1178 4863 
L 1178 4134 
L 603 4134 
L 603 4863 
z
" transform="scale(0.015625)"/>
       <path id="DejaVuSans-70" d="M 1159 525 
L 1159 -1331 
L 581 -1331 
L 581 3500 
L 1159 3500 
L 1159 2969 
Q 1341 3281 1617 3432 
Q 1894 3584 2278 3584 
Q 2916 3584 3314 3078 
Q 3713 2572 3713 1747 
Q 3713 922 3314 415 
Q 2916 -91 2278 -91 
Q 1894 -91 1617 61 
Q 1341 213 1159 525 
z
M 3116 1747 
Q 3116 2381 2855 2742 
Q 2594 3103 2138 3103 
Q 1681 3103 1420 2742 
Q 1159 2381 1159 1747 
Q 1159 1113 1420 752 
Q 1681 391 2138 391 
Q 2594 391 2855 752 
Q 3116 1113 3116 1747 
z
" transform="scale(0.015625)"/>
      </defs>
      <use xlink:href="#DejaVuSans-4f"/>
      <use xlink:href="#DejaVuSans-72" x="78.710938"/>
      <use xlink:href="#DejaVuSans-69" x="119.824219"/>
      <use xlink:href="#DejaVuSans-67" x="147.607422"/>
      <use xlink:href="#DejaVuSans-69" x="211.083984"/>
      <use xlink:href="#DejaVuSans-6e" x="238.867188"/>
      <use xlink:href="#DejaVuSans-61" x="302.246094"/>
      <use xlink:href="#DejaVuSans-6c" x="363.525391"/>
      <use xlink:href="#DejaVuSans-20" x="391.308594"/>
      <use xlink:href="#DejaVuSans-53" x="423.095703"/>
      <use xlink:href="#DejaVuSans-70" x="486.572266"/>
      <use xlink:href="#DejaVuSans-65" x="550.048828"/>
      <use xlink:href="#DejaVuSans-63" x="611.572266"/>
      <use xlink:href="#DejaVuSans-74" x="666.552734"/>
      <use xlink:href="#DejaVuSans-72" x="705.761719"/>
      <use xlink:href="#DejaVuSans-61" x="746.875"/>
     </g>
    </g>
    <g id="line2d_17">
     <path d="M 154.8 102.451875 
L 166.8 102.451875 
L 178.8 102.451875 
" style="fill: none; stroke: #008000; stroke-width: 1.5; stroke-linecap: square"/>
    </g>
    <g id="text_18">
     <!-- Spectra with noise -->
     <g transform="translate(188.4 106.651875)scale(0.12 -0.12)">
      <defs>
       <path id="DejaVuSans-77" d="M 269 3500 
L 844 3500 
L 1563 769 
L 2278 3500 
L 2956 3500 
L 3675 769 
L 4391 3500 
L 4966 3500 
L 4050 0 
L 3372 0 
L 2619 2869 
L 1863 0 
L 1184 0 
L 269 3500 
z
" transform="scale(0.015625)"/>
       <path id="DejaVuSans-6f" d="M 1959 3097 
Q 1497 3097 1228 2736 
Q 959 2375 959 1747 
Q 959 1119 1226 758 
Q 1494 397 1959 397 
Q 2419 397 2687 759 
Q 2956 1122 2956 1747 
Q 2956 2369 2687 2733 
Q 2419 3097 1959 3097 
z
M 1959 3584 
Q 2709 3584 3137 3096 
Q 3566 2609 3566 1747 
Q 3566 888 3137 398 
Q 2709 -91 1959 -91 
Q 1206 -91 779 398 
Q 353 888 353 1747 
Q 353 2609 779 3096 
Q 1206 3584 1959 3584 
z
" transform="scale(0.015625)"/>
       <path id="DejaVuSans-73" d="M 2834 3397 
L 2834 2853 
Q 2591 2978 2328 3040 
Q 2066 3103 1784 3103 
Q 1356 3103 1142 2972 
Q 928 2841 928 2578 
Q 928 2378 1081 2264 
Q 1234 2150 1697 2047 
L 1894 2003 
Q 2506 1872 2764 1633 
Q 3022 1394 3022 966 
Q 3022 478 2636 193 
Q 2250 -91 1575 -91 
Q 1294 -91 989 -36 
Q 684 19 347 128 
L 347 722 
Q 666 556 975 473 
Q 1284 391 1588 391 
Q 1994 391 2212 530 
Q 2431 669 2431 922 
Q 2431 1156 2273 1281 
Q 2116 1406 1581 1522 
L 1381 1569 
Q 847 1681 609 1914 
Q 372 2147 372 2553 
Q 372 3047 722 3315 
Q 1072 3584 1716 3584 
Q 2034 3584 2315 3537 
Q 2597 3491 2834 3397 
z
" transform="scale(0.015625)"/>
      </defs>
      <use xlink:href="#DejaVuSans-53"/>
      <use xlink:href="#DejaVuSans-70" x="63.476562"/>
      <use xlink:href="#DejaVuSans-65" x="126.953125"/>
      <use xlink:href="#DejaVuSans-63" x="188.476562"/>
      <use xlink:href="#DejaVuSans-74" x="243.457031"/>
      <use xlink:href="#DejaVuSans-72" x="282.666016"/>
      <use xlink:href="#DejaVuSans-61" x="323.779297"/>
      <use xlink:href="#DejaVuSans-20" x="385.058594"/>
      <use xlink:href="#DejaVuSans-77" x="416.845703"/>
      <use xlink:href="#DejaVuSans-69" x="498.632812"/>
      <use xlink:href="#DejaVuSans-74" x="526.416016"/>
      <use xlink:href="#DejaVuSans-68" x="565.625"/>
      <use xlink:href="#DejaVuSans-20" x="629.003906"/>
      <use xlink:href="#DejaVuSans-6e" x="660.791016"/>
      <use xlink:href="#DejaVuSans-6f" x="724.169922"/>
      <use xlink:href="#DejaVuSans-69" x="785.351562"/>
      <use xlink:href="#DejaVuSans-73" x="813.134766"/>
      <use xlink:href="#DejaVuSans-65" x="865.234375"/>
     </g>
    </g>
   </g>
  </g>
 </g>
 <defs>
  <clipPath id="pe9671df576">
   <rect x="144" y="69.12" width="892.8" height="443.52"/>
  </clipPath>
 </defs>
</svg>
