<?xml version="1.0" encoding="utf-8" standalone="no"?>
<!DOCTYPE svg PUBLIC "-//W3C//DTD SVG 1.1//EN"
  "http://www.w3.org/Graphics/SVG/1.1/DTD/svg11.dtd">
<svg xmlns:xlink="http://www.w3.org/1999/xlink" width="720pt" height="432pt" viewBox="0 0 720 432" xmlns="http://www.w3.org/2000/svg" version="1.1">
 <metadata>
  <rdf:RDF xmlns:dc="http://purl.org/dc/elements/1.1/" xmlns:cc="http://creativecommons.org/ns#" xmlns:rdf="http://www.w3.org/1999/02/22-rdf-syntax-ns#">
   <cc:Work>
    <dc:type rdf:resource="http://purl.org/dc/dcmitype/StillImage"/>
    <dc:date>2024-02-26T13:43:21.266472</dc:date>
    <dc:format>image/svg+xml</dc:format>
    <dc:creator>
     <cc:Agent>
      <dc:title>Matplotlib v3.5.3, https://matplotlib.org/</dc:title>
     </cc:Agent>
    </dc:creator>
   </cc:Work>
  </rdf:RDF>
 </metadata>
 <defs>
  <style type="text/css">*{stroke-linejoin: round; stroke-linecap: butt}</style>
 </defs>
 <g id="figure_1">
  <g id="patch_1">
   <path d="M 0 432 
L 720 432 
L 720 0 
L 0 0 
z
" style="fill: #ffffff"/>
  </g>
  <g id="axes_1">
   <g id="patch_2">
    <path d="M 90 384.48 
L 648 384.48 
L 648 51.84 
L 90 51.84 
z
" style="fill: #ffffff"/>
   </g>
   <g id="matplotlib.axis_1">
    <g id="xtick_1">
     <g id="line2d_1">
      <defs>
       <path id="m69d378fbd8" d="M 0 0 
L 0 3.5 
" style="stroke: #000000; stroke-width: 0.8"/>
      </defs>
      <g>
       <use xlink:href="#m69d378fbd8" x="162.827751" y="384.48" style="stroke: #000000; stroke-width: 0.8"/>
      </g>
     </g>
     <g id="text_1">
      <!-- 400 -->
      <g transform="translate(153.284001 399.078438)scale(0.1 -0.1)">
       <defs>
        <path id="DejaVuSans-34" d="M 2419 4116 
L 825 1625 
L 2419 1625 
L 2419 4116 
z
M 2253 4666 
L 3047 4666 
L 3047 1625 
L 3713 1625 
L 3713 1100 
L 3047 1100 
L 3047 0 
L 2419 0 
L 2419 1100 
L 313 1100 
L 313 1709 
L 2253 4666 
z
" transform="scale(0.015625)"/>
        <path id="DejaVuSans-30" d="M 2034 4250 
Q 1547 4250 1301 3770 
Q 1056 3291 1056 2328 
Q 1056 1369 1301 889 
Q 1547 409 2034 409 
Q 2525 409 2770 889 
Q 3016 1369 3016 2328 
Q 3016 3291 2770 3770 
Q 2525 4250 2034 4250 
z
M 2034 4750 
Q 2819 4750 3233 4129 
Q 3647 3509 3647 2328 
Q 3647 1150 3233 529 
Q 2819 -91 2034 -91 
Q 1250 -91 836 529 
Q 422 1150 422 2328 
Q 422 3509 836 4129 
Q 1250 4750 2034 4750 
z
" transform="scale(0.015625)"/>
       </defs>
       <use xlink:href="#DejaVuSans-34"/>
       <use xlink:href="#DejaVuSans-30" x="63.623047"/>
       <use xlink:href="#DejaVuSans-30" x="127.246094"/>
      </g>
     </g>
    </g>
    <g id="xtick_2">
     <g id="line2d_2">
      <g>
       <use xlink:href="#m69d378fbd8" x="236.990431" y="384.48" style="stroke: #000000; stroke-width: 0.8"/>
      </g>
     </g>
     <g id="text_2">
      <!-- 500 -->
      <g transform="translate(227.446681 399.078438)scale(0.1 -0.1)">
       <defs>
        <path id="DejaVuSans-35" d="M 691 4666 
L 3169 4666 
L 3169 4134 
L 1269 4134 
L 1269 2991 
Q 1406 3038 1543 3061 
Q 1681 3084 1819 3084 
Q 2600 3084 3056 2656 
Q 3513 2228 3513 1497 
Q 3513 744 3044 326 
Q 2575 -91 1722 -91 
Q 1428 -91 1123 -41 
Q 819 9 494 109 
L 494 744 
Q 775 591 1075 516 
Q 1375 441 1709 441 
Q 2250 441 2565 725 
Q 2881 1009 2881 1497 
Q 2881 1984 2565 2268 
Q 2250 2553 1709 2553 
Q 1456 2553 1204 2497 
Q 953 2441 691 2322 
L 691 4666 
z
" transform="scale(0.015625)"/>
       </defs>
       <use xlink:href="#DejaVuSans-35"/>
       <use xlink:href="#DejaVuSans-30" x="63.623047"/>
       <use xlink:href="#DejaVuSans-30" x="127.246094"/>
      </g>
     </g>
    </g>
    <g id="xtick_3">
     <g id="line2d_3">
      <g>
       <use xlink:href="#m69d378fbd8" x="311.15311" y="384.48" style="stroke: #000000; stroke-width: 0.8"/>
      </g>
     </g>
     <g id="text_3">
      <!-- 600 -->
      <g transform="translate(301.60936 399.078438)scale(0.1 -0.1)">
       <defs>
        <path id="DejaVuSans-36" d="M 2113 2584 
Q 1688 2584 1439 2293 
Q 1191 2003 1191 1497 
Q 1191 994 1439 701 
Q 1688 409 2113 409 
Q 2538 409 2786 701 
Q 3034 994 3034 1497 
Q 3034 2003 2786 2293 
Q 2538 2584 2113 2584 
z
M 3366 4563 
L 3366 3988 
Q 3128 4100 2886 4159 
Q 2644 4219 2406 4219 
Q 1781 4219 1451 3797 
Q 1122 3375 1075 2522 
Q 1259 2794 1537 2939 
Q 1816 3084 2150 3084 
Q 2853 3084 3261 2657 
Q 3669 2231 3669 1497 
Q 3669 778 3244 343 
Q 2819 -91 2113 -91 
Q 1303 -91 875 529 
Q 447 1150 447 2328 
Q 447 3434 972 4092 
Q 1497 4750 2381 4750 
Q 2619 4750 2861 4703 
Q 3103 4656 3366 4563 
z
" transform="scale(0.015625)"/>
       </defs>
       <use xlink:href="#DejaVuSans-36"/>
       <use xlink:href="#DejaVuSans-30" x="63.623047"/>
       <use xlink:href="#DejaVuSans-30" x="127.246094"/>
      </g>
     </g>
    </g>
    <g id="xtick_4">
     <g id="line2d_4">
      <g>
       <use xlink:href="#m69d378fbd8" x="385.315789" y="384.48" style="stroke: #000000; stroke-width: 0.8"/>
      </g>
     </g>
     <g id="text_4">
      <!-- 700 -->
      <g transform="translate(375.772039 399.078438)scale(0.1 -0.1)">
       <defs>
        <path id="DejaVuSans-37" d="M 525 4666 
L 3525 4666 
L 3525 4397 
L 1831 0 
L 1172 0 
L 2766 4134 
L 525 4134 
L 525 4666 
z
" transform="scale(0.015625)"/>
       </defs>
       <use xlink:href="#DejaVuSans-37"/>
       <use xlink:href="#DejaVuSans-30" x="63.623047"/>
       <use xlink:href="#DejaVuSans-30" x="127.246094"/>
      </g>
     </g>
    </g>
    <g id="xtick_5">
     <g id="line2d_5">
      <g>
       <use xlink:href="#m69d378fbd8" x="459.478469" y="384.48" style="stroke: #000000; stroke-width: 0.8"/>
      </g>
     </g>
     <g id="text_5">
      <!-- 800 -->
      <g transform="translate(449.934719 399.078438)scale(0.1 -0.1)">
       <defs>
        <path id="DejaVuSans-38" d="M 2034 2216 
Q 1584 2216 1326 1975 
Q 1069 1734 1069 1313 
Q 1069 891 1326 650 
Q 1584 409 2034 409 
Q 2484 409 2743 651 
Q 3003 894 3003 1313 
Q 3003 1734 2745 1975 
Q 2488 2216 2034 2216 
z
M 1403 2484 
Q 997 2584 770 2862 
Q 544 3141 544 3541 
Q 544 4100 942 4425 
Q 1341 4750 2034 4750 
Q 2731 4750 3128 4425 
Q 3525 4100 3525 3541 
Q 3525 3141 3298 2862 
Q 3072 2584 2669 2484 
Q 3125 2378 3379 2068 
Q 3634 1759 3634 1313 
Q 3634 634 3220 271 
Q 2806 -91 2034 -91 
Q 1263 -91 848 271 
Q 434 634 434 1313 
Q 434 1759 690 2068 
Q 947 2378 1403 2484 
z
M 1172 3481 
Q 1172 3119 1398 2916 
Q 1625 2713 2034 2713 
Q 2441 2713 2670 2916 
Q 2900 3119 2900 3481 
Q 2900 3844 2670 4047 
Q 2441 4250 2034 4250 
Q 1625 4250 1398 4047 
Q 1172 3844 1172 3481 
z
" transform="scale(0.015625)"/>
       </defs>
       <use xlink:href="#DejaVuSans-38"/>
       <use xlink:href="#DejaVuSans-30" x="63.623047"/>
       <use xlink:href="#DejaVuSans-30" x="127.246094"/>
      </g>
     </g>
    </g>
    <g id="xtick_6">
     <g id="line2d_6">
      <g>
       <use xlink:href="#m69d378fbd8" x="533.641148" y="384.48" style="stroke: #000000; stroke-width: 0.8"/>
      </g>
     </g>
     <g id="text_6">
      <!-- 900 -->
      <g transform="translate(524.097398 399.078438)scale(0.1 -0.1)">
       <defs>
        <path id="DejaVuSans-39" d="M 703 97 
L 703 672 
Q 941 559 1184 500 
Q 1428 441 1663 441 
Q 2288 441 2617 861 
Q 2947 1281 2994 2138 
Q 2813 1869 2534 1725 
Q 2256 1581 1919 1581 
Q 1219 1581 811 2004 
Q 403 2428 403 3163 
Q 403 3881 828 4315 
Q 1253 4750 1959 4750 
Q 2769 4750 3195 4129 
Q 3622 3509 3622 2328 
Q 3622 1225 3098 567 
Q 2575 -91 1691 -91 
Q 1453 -91 1209 -44 
Q 966 3 703 97 
z
M 1959 2075 
Q 2384 2075 2632 2365 
Q 2881 2656 2881 3163 
Q 2881 3666 2632 3958 
Q 2384 4250 1959 4250 
Q 1534 4250 1286 3958 
Q 1038 3666 1038 3163 
Q 1038 2656 1286 2365 
Q 1534 2075 1959 2075 
z
" transform="scale(0.015625)"/>
       </defs>
       <use xlink:href="#DejaVuSans-39"/>
       <use xlink:href="#DejaVuSans-30" x="63.623047"/>
       <use xlink:href="#DejaVuSans-30" x="127.246094"/>
      </g>
     </g>
    </g>
    <g id="xtick_7">
     <g id="line2d_7">
      <g>
       <use xlink:href="#m69d378fbd8" x="607.803828" y="384.48" style="stroke: #000000; stroke-width: 0.8"/>
      </g>
     </g>
     <g id="text_7">
      <!-- 1000 -->
      <g transform="translate(595.078828 399.078438)scale(0.1 -0.1)">
       <defs>
        <path id="DejaVuSans-31" d="M 794 531 
L 1825 531 
L 1825 4091 
L 703 3866 
L 703 4441 
L 1819 4666 
L 2450 4666 
L 2450 531 
L 3481 531 
L 3481 0 
L 794 0 
L 794 531 
z
" transform="scale(0.015625)"/>
       </defs>
       <use xlink:href="#DejaVuSans-31"/>
       <use xlink:href="#DejaVuSans-30" x="63.623047"/>
       <use xlink:href="#DejaVuSans-30" x="127.246094"/>
       <use xlink:href="#DejaVuSans-30" x="190.869141"/>
      </g>
     </g>
    </g>
    <g id="text_8">
     <!-- Wavelength -->
     <g transform="translate(330.43875 415.036094)scale(0.13 -0.13)">
      <defs>
       <path id="DejaVuSans-57" d="M 213 4666 
L 850 4666 
L 1831 722 
L 2809 4666 
L 3519 4666 
L 4500 722 
L 5478 4666 
L 6119 4666 
L 4947 0 
L 4153 0 
L 3169 4050 
L 2175 0 
L 1381 0 
L 213 4666 
z
" transform="scale(0.015625)"/>
       <path id="DejaVuSans-61" d="M 2194 1759 
Q 1497 1759 1228 1600 
Q 959 1441 959 1056 
Q 959 750 1161 570 
Q 1363 391 1709 391 
Q 2188 391 2477 730 
Q 2766 1069 2766 1631 
L 2766 1759 
L 2194 1759 
z
M 3341 1997 
L 3341 0 
L 2766 0 
L 2766 531 
Q 2569 213 2275 61 
Q 1981 -91 1556 -91 
Q 1019 -91 701 211 
Q 384 513 384 1019 
Q 384 1609 779 1909 
Q 1175 2209 1959 2209 
L 2766 2209 
L 2766 2266 
Q 2766 2663 2505 2880 
Q 2244 3097 1772 3097 
Q 1472 3097 1187 3025 
Q 903 2953 641 2809 
L 641 3341 
Q 956 3463 1253 3523 
Q 1550 3584 1831 3584 
Q 2591 3584 2966 3190 
Q 3341 2797 3341 1997 
z
" transform="scale(0.015625)"/>
       <path id="DejaVuSans-76" d="M 191 3500 
L 800 3500 
L 1894 563 
L 2988 3500 
L 3597 3500 
L 2284 0 
L 1503 0 
L 191 3500 
z
" transform="scale(0.015625)"/>
       <path id="DejaVuSans-65" d="M 3597 1894 
L 3597 1613 
L 953 1613 
Q 991 1019 1311 708 
Q 1631 397 2203 397 
Q 2534 397 2845 478 
Q 3156 559 3463 722 
L 3463 178 
Q 3153 47 2828 -22 
Q 2503 -91 2169 -91 
Q 1331 -91 842 396 
Q 353 884 353 1716 
Q 353 2575 817 3079 
Q 1281 3584 2069 3584 
Q 2775 3584 3186 3129 
Q 3597 2675 3597 1894 
z
M 3022 2063 
Q 3016 2534 2758 2815 
Q 2500 3097 2075 3097 
Q 1594 3097 1305 2825 
Q 1016 2553 972 2059 
L 3022 2063 
z
" transform="scale(0.015625)"/>
       <path id="DejaVuSans-6c" d="M 603 4863 
L 1178 4863 
L 1178 0 
L 603 0 
L 603 4863 
z
" transform="scale(0.015625)"/>
       <path id="DejaVuSans-6e" d="M 3513 2113 
L 3513 0 
L 2938 0 
L 2938 2094 
Q 2938 2591 2744 2837 
Q 2550 3084 2163 3084 
Q 1697 3084 1428 2787 
Q 1159 2491 1159 1978 
L 1159 0 
L 581 0 
L 581 3500 
L 1159 3500 
L 1159 2956 
Q 1366 3272 1645 3428 
Q 1925 3584 2291 3584 
Q 2894 3584 3203 3211 
Q 3513 2838 3513 2113 
z
" transform="scale(0.015625)"/>
       <path id="DejaVuSans-67" d="M 2906 1791 
Q 2906 2416 2648 2759 
Q 2391 3103 1925 3103 
Q 1463 3103 1205 2759 
Q 947 2416 947 1791 
Q 947 1169 1205 825 
Q 1463 481 1925 481 
Q 2391 481 2648 825 
Q 2906 1169 2906 1791 
z
M 3481 434 
Q 3481 -459 3084 -895 
Q 2688 -1331 1869 -1331 
Q 1566 -1331 1297 -1286 
Q 1028 -1241 775 -1147 
L 775 -588 
Q 1028 -725 1275 -790 
Q 1522 -856 1778 -856 
Q 2344 -856 2625 -561 
Q 2906 -266 2906 331 
L 2906 616 
Q 2728 306 2450 153 
Q 2172 0 1784 0 
Q 1141 0 747 490 
Q 353 981 353 1791 
Q 353 2603 747 3093 
Q 1141 3584 1784 3584 
Q 2172 3584 2450 3431 
Q 2728 3278 2906 2969 
L 2906 3500 
L 3481 3500 
L 3481 434 
z
" transform="scale(0.015625)"/>
       <path id="DejaVuSans-74" d="M 1172 4494 
L 1172 3500 
L 2356 3500 
L 2356 3053 
L 1172 3053 
L 1172 1153 
Q 1172 725 1289 603 
Q 1406 481 1766 481 
L 2356 481 
L 2356 0 
L 1766 0 
Q 1100 0 847 248 
Q 594 497 594 1153 
L 594 3053 
L 172 3053 
L 172 3500 
L 594 3500 
L 594 4494 
L 1172 4494 
z
" transform="scale(0.015625)"/>
       <path id="DejaVuSans-68" d="M 3513 2113 
L 3513 0 
L 2938 0 
L 2938 2094 
Q 2938 2591 2744 2837 
Q 2550 3084 2163 3084 
Q 1697 3084 1428 2787 
Q 1159 2491 1159 1978 
L 1159 0 
L 581 0 
L 581 4863 
L 1159 4863 
L 1159 2956 
Q 1366 3272 1645 3428 
Q 1925 3584 2291 3584 
Q 2894 3584 3203 3211 
Q 3513 2838 3513 2113 
z
" transform="scale(0.015625)"/>
      </defs>
      <use xlink:href="#DejaVuSans-57"/>
      <use xlink:href="#DejaVuSans-61" x="92.501953"/>
      <use xlink:href="#DejaVuSans-76" x="153.78125"/>
      <use xlink:href="#DejaVuSans-65" x="212.960938"/>
      <use xlink:href="#DejaVuSans-6c" x="274.484375"/>
      <use xlink:href="#DejaVuSans-65" x="302.267578"/>
      <use xlink:href="#DejaVuSans-6e" x="363.791016"/>
      <use xlink:href="#DejaVuSans-67" x="427.169922"/>
      <use xlink:href="#DejaVuSans-74" x="490.646484"/>
      <use xlink:href="#DejaVuSans-68" x="529.855469"/>
     </g>
    </g>
   </g>
   <g id="matplotlib.axis_2">
    <g id="ytick_1">
     <g id="line2d_8">
      <defs>
       <path id="me5c45e9323" d="M 0 0 
L -3.5 0 
" style="stroke: #000000; stroke-width: 0.8"/>
      </defs>
      <g>
       <use xlink:href="#me5c45e9323" x="90" y="369.36" style="stroke: #000000; stroke-width: 0.8"/>
      </g>
     </g>
     <g id="text_9">
      <!-- 0.0 -->
      <g transform="translate(67.096875 373.159219)scale(0.1 -0.1)">
       <defs>
        <path id="DejaVuSans-2e" d="M 684 794 
L 1344 794 
L 1344 0 
L 684 0 
L 684 794 
z
" transform="scale(0.015625)"/>
       </defs>
       <use xlink:href="#DejaVuSans-30"/>
       <use xlink:href="#DejaVuSans-2e" x="63.623047"/>
       <use xlink:href="#DejaVuSans-30" x="95.410156"/>
      </g>
     </g>
    </g>
    <g id="ytick_2">
     <g id="line2d_9">
      <g>
       <use xlink:href="#me5c45e9323" x="90" y="308.88" style="stroke: #000000; stroke-width: 0.8"/>
      </g>
     </g>
     <g id="text_10">
      <!-- 0.2 -->
      <g transform="translate(67.096875 312.679219)scale(0.1 -0.1)">
       <defs>
        <path id="DejaVuSans-32" d="M 1228 531 
L 3431 531 
L 3431 0 
L 469 0 
L 469 531 
Q 828 903 1448 1529 
Q 2069 2156 2228 2338 
Q 2531 2678 2651 2914 
Q 2772 3150 2772 3378 
Q 2772 3750 2511 3984 
Q 2250 4219 1831 4219 
Q 1534 4219 1204 4116 
Q 875 4013 500 3803 
L 500 4441 
Q 881 4594 1212 4672 
Q 1544 4750 1819 4750 
Q 2544 4750 2975 4387 
Q 3406 4025 3406 3419 
Q 3406 3131 3298 2873 
Q 3191 2616 2906 2266 
Q 2828 2175 2409 1742 
Q 1991 1309 1228 531 
z
" transform="scale(0.015625)"/>
       </defs>
       <use xlink:href="#DejaVuSans-30"/>
       <use xlink:href="#DejaVuSans-2e" x="63.623047"/>
       <use xlink:href="#DejaVuSans-32" x="95.410156"/>
      </g>
     </g>
    </g>
    <g id="ytick_3">
     <g id="line2d_10">
      <g>
       <use xlink:href="#me5c45e9323" x="90" y="248.4" style="stroke: #000000; stroke-width: 0.8"/>
      </g>
     </g>
     <g id="text_11">
      <!-- 0.4 -->
      <g transform="translate(67.096875 252.199219)scale(0.1 -0.1)">
       <use xlink:href="#DejaVuSans-30"/>
       <use xlink:href="#DejaVuSans-2e" x="63.623047"/>
       <use xlink:href="#DejaVuSans-34" x="95.410156"/>
      </g>
     </g>
    </g>
    <g id="ytick_4">
     <g id="line2d_11">
      <g>
       <use xlink:href="#me5c45e9323" x="90" y="187.92" style="stroke: #000000; stroke-width: 0.8"/>
      </g>
     </g>
     <g id="text_12">
      <!-- 0.6 -->
      <g transform="translate(67.096875 191.719219)scale(0.1 -0.1)">
       <use xlink:href="#DejaVuSans-30"/>
       <use xlink:href="#DejaVuSans-2e" x="63.623047"/>
       <use xlink:href="#DejaVuSans-36" x="95.410156"/>
      </g>
     </g>
    </g>
    <g id="ytick_5">
     <g id="line2d_12">
      <g>
       <use xlink:href="#me5c45e9323" x="90" y="127.44" style="stroke: #000000; stroke-width: 0.8"/>
      </g>
     </g>
     <g id="text_13">
      <!-- 0.8 -->
      <g transform="translate(67.096875 131.239219)scale(0.1 -0.1)">
       <use xlink:href="#DejaVuSans-30"/>
       <use xlink:href="#DejaVuSans-2e" x="63.623047"/>
       <use xlink:href="#DejaVuSans-38" x="95.410156"/>
      </g>
     </g>
    </g>
    <g id="ytick_6">
     <g id="line2d_13">
      <g>
       <use xlink:href="#me5c45e9323" x="90" y="66.96" style="stroke: #000000; stroke-width: 0.8"/>
      </g>
     </g>
     <g id="text_14">
      <!-- 1.0 -->
      <g transform="translate(67.096875 70.759219)scale(0.1 -0.1)">
       <use xlink:href="#DejaVuSans-31"/>
       <use xlink:href="#DejaVuSans-2e" x="63.623047"/>
       <use xlink:href="#DejaVuSans-30" x="95.410156"/>
      </g>
     </g>
    </g>
    <g id="text_15">
     <!-- Scaled Flux -->
     <g transform="translate(60.393281 255.352187)rotate(-90)scale(0.13 -0.13)">
      <defs>
       <path id="DejaVuSans-53" d="M 3425 4513 
L 3425 3897 
Q 3066 4069 2747 4153 
Q 2428 4238 2131 4238 
Q 1616 4238 1336 4038 
Q 1056 3838 1056 3469 
Q 1056 3159 1242 3001 
Q 1428 2844 1947 2747 
L 2328 2669 
Q 3034 2534 3370 2195 
Q 3706 1856 3706 1288 
Q 3706 609 3251 259 
Q 2797 -91 1919 -91 
Q 1588 -91 1214 -16 
Q 841 59 441 206 
L 441 856 
Q 825 641 1194 531 
Q 1563 422 1919 422 
Q 2459 422 2753 634 
Q 3047 847 3047 1241 
Q 3047 1584 2836 1778 
Q 2625 1972 2144 2069 
L 1759 2144 
Q 1053 2284 737 2584 
Q 422 2884 422 3419 
Q 422 4038 858 4394 
Q 1294 4750 2059 4750 
Q 2388 4750 2728 4690 
Q 3069 4631 3425 4513 
z
" transform="scale(0.015625)"/>
       <path id="DejaVuSans-63" d="M 3122 3366 
L 3122 2828 
Q 2878 2963 2633 3030 
Q 2388 3097 2138 3097 
Q 1578 3097 1268 2742 
Q 959 2388 959 1747 
Q 959 1106 1268 751 
Q 1578 397 2138 397 
Q 2388 397 2633 464 
Q 2878 531 3122 666 
L 3122 134 
Q 2881 22 2623 -34 
Q 2366 -91 2075 -91 
Q 1284 -91 818 406 
Q 353 903 353 1747 
Q 353 2603 823 3093 
Q 1294 3584 2113 3584 
Q 2378 3584 2631 3529 
Q 2884 3475 3122 3366 
z
" transform="scale(0.015625)"/>
       <path id="DejaVuSans-64" d="M 2906 2969 
L 2906 4863 
L 3481 4863 
L 3481 0 
L 2906 0 
L 2906 525 
Q 2725 213 2448 61 
Q 2172 -91 1784 -91 
Q 1150 -91 751 415 
Q 353 922 353 1747 
Q 353 2572 751 3078 
Q 1150 3584 1784 3584 
Q 2172 3584 2448 3432 
Q 2725 3281 2906 2969 
z
M 947 1747 
Q 947 1113 1208 752 
Q 1469 391 1925 391 
Q 2381 391 2643 752 
Q 2906 1113 2906 1747 
Q 2906 2381 2643 2742 
Q 2381 3103 1925 3103 
Q 1469 3103 1208 2742 
Q 947 2381 947 1747 
z
" transform="scale(0.015625)"/>
       <path id="DejaVuSans-20" transform="scale(0.015625)"/>
       <path id="DejaVuSans-46" d="M 628 4666 
L 3309 4666 
L 3309 4134 
L 1259 4134 
L 1259 2759 
L 3109 2759 
L 3109 2228 
L 1259 2228 
L 1259 0 
L 628 0 
L 628 4666 
z
" transform="scale(0.015625)"/>
       <path id="DejaVuSans-75" d="M 544 1381 
L 544 3500 
L 1119 3500 
L 1119 1403 
Q 1119 906 1312 657 
Q 1506 409 1894 409 
Q 2359 409 2629 706 
Q 2900 1003 2900 1516 
L 2900 3500 
L 3475 3500 
L 3475 0 
L 2900 0 
L 2900 538 
Q 2691 219 2414 64 
Q 2138 -91 1772 -91 
Q 1169 -91 856 284 
Q 544 659 544 1381 
z
M 1991 3584 
L 1991 3584 
z
" transform="scale(0.015625)"/>
       <path id="DejaVuSans-78" d="M 3513 3500 
L 2247 1797 
L 3578 0 
L 2900 0 
L 1881 1375 
L 863 0 
L 184 0 
L 1544 1831 
L 300 3500 
L 978 3500 
L 1906 2253 
L 2834 3500 
L 3513 3500 
z
" transform="scale(0.015625)"/>
      </defs>
      <use xlink:href="#DejaVuSans-53"/>
      <use xlink:href="#DejaVuSans-63" x="63.476562"/>
      <use xlink:href="#DejaVuSans-61" x="118.457031"/>
      <use xlink:href="#DejaVuSans-6c" x="179.736328"/>
      <use xlink:href="#DejaVuSans-65" x="207.519531"/>
      <use xlink:href="#DejaVuSans-64" x="269.042969"/>
      <use xlink:href="#DejaVuSans-20" x="332.519531"/>
      <use xlink:href="#DejaVuSans-46" x="364.306641"/>
      <use xlink:href="#DejaVuSans-6c" x="421.826172"/>
      <use xlink:href="#DejaVuSans-75" x="449.609375"/>
      <use xlink:href="#DejaVuSans-78" x="512.988281"/>
     </g>
    </g>
   </g>
   <g id="line2d_14">
    <path d="M 115.363636 354.549352 
L 116.84689 356.294774 
L 118.330144 362.641849 
L 119.813397 364.533238 
L 121.296651 360.993292 
L 122.779904 358.061531 
L 124.263158 358.759531 
L 125.746411 359.806929 
L 127.229665 357.162385 
L 128.712919 354.122788 
L 130.196172 356.394482 
L 131.679426 359.773929 
L 133.162679 358.833843 
L 134.645933 356.213329 
L 136.129187 355.95182 
L 137.61244 358.134353 
L 139.095694 359.732388 
L 142.062201 358.8393 
L 143.545455 360.084352 
L 145.028708 361.953385 
L 146.511962 361.970737 
L 147.995215 360.684929 
L 149.478469 360.696697 
L 150.961722 362.123985 
L 152.444976 362.668647 
L 153.92823 361.760743 
L 155.411483 361.6758 
L 156.894737 363.982469 
L 158.37799 367.488372 
L 159.861244 369.36 
L 161.344498 367.978601 
L 164.311005 360.936645 
L 165.794258 359.764528 
L 167.277512 360.615807 
L 168.760766 361.700476 
L 170.244019 361.360556 
L 171.727273 359.450128 
L 173.210526 357.242456 
L 174.69378 356.482771 
L 176.177033 357.752832 
L 177.660287 360.133114 
L 179.143541 361.898806 
L 180.626794 361.733238 
L 182.110048 359.54807 
L 183.593301 356.525318 
L 185.076555 354.088918 
L 186.559809 353.183211 
L 188.043062 353.813809 
L 189.526316 355.17286 
L 191.009569 356.35026 
L 192.492823 356.965115 
L 193.976077 357.065136 
L 195.45933 357.020401 
L 196.942584 357.120179 
L 198.425837 357.356695 
L 199.909091 357.443969 
L 201.392344 357.016594 
L 202.875598 355.946681 
L 205.842105 353.204754 
L 207.325359 352.692813 
L 208.808612 353.29986 
L 210.291866 354.973733 
L 213.258373 359.411993 
L 214.741627 360.766312 
L 216.22488 360.889342 
L 217.708134 359.76701 
L 219.191388 357.77971 
L 220.674641 355.51985 
L 222.157895 353.536963 
L 223.641148 352.34502 
L 225.124402 352.008846 
L 226.607656 352.502468 
L 229.574163 354.3907 
L 231.057416 355.051925 
L 232.54067 355.275062 
L 234.023923 355.037438 
L 235.507177 354.429004 
L 236.990431 353.667334 
L 238.473684 353.060859 
L 239.956938 352.615017 
L 241.440191 352.436629 
L 244.406699 352.404166 
L 245.889952 352.261876 
L 247.373206 351.84557 
L 248.856459 351.105961 
L 251.822967 348.998145 
L 253.30622 347.878476 
L 254.789474 346.942879 
L 256.272727 346.38537 
L 257.755981 346.238389 
L 259.239234 346.503964 
L 260.722488 347.18879 
L 263.688995 348.969574 
L 265.172249 349.733759 
L 266.655502 350.257136 
L 268.138756 350.387408 
L 269.62201 350.096802 
L 271.105263 349.53705 
L 274.07177 347.78474 
L 275.555024 346.850738 
L 277.038278 346.174003 
L 278.521531 345.694443 
L 280.004785 345.540689 
L 281.488038 345.74423 
L 282.971292 346.235156 
L 285.937799 347.68874 
L 287.421053 348.450081 
L 288.904306 349.017807 
L 290.38756 349.32434 
L 291.870813 349.448923 
L 293.354067 349.313802 
L 294.837321 349.002554 
L 297.803828 347.855727 
L 300.770335 346.552711 
L 305.220096 344.543954 
L 306.703349 344.098956 
L 309.669856 343.537277 
L 311.15311 343.400265 
L 312.636364 343.398793 
L 315.602871 343.889558 
L 318.569378 344.598525 
L 320.052632 344.818835 
L 321.535885 344.884944 
L 323.019139 344.761393 
L 325.985646 343.862116 
L 327.4689 343.038727 
L 328.952153 341.783287 
L 330.435407 340.368664 
L 333.401914 337.008232 
L 336.368421 333.466262 
L 337.851675 333.180581 
L 339.334928 333.359152 
L 340.818182 333.274066 
L 342.301435 335.16743 
L 343.784689 340.224589 
L 345.267943 343.486421 
L 346.751196 341.207281 
L 348.23445 331.505679 
L 351.200957 300.750268 
L 352.684211 290.356506 
L 354.167464 289.025483 
L 355.650718 296.871862 
L 357.133971 310.75899 
L 358.617225 325.976671 
L 360.100478 338.363326 
L 361.583732 345.645719 
L 363.066986 347.969535 
L 364.550239 347.027386 
L 367.516746 342.330748 
L 369 340.41495 
L 371.966507 337.500904 
L 374.933014 334.83794 
L 376.416268 333.201425 
L 377.899522 330.991281 
L 379.382775 328.029414 
L 382.349282 320.285022 
L 383.832536 317.279361 
L 385.315789 316.208613 
L 386.799043 317.327137 
L 388.282297 320.708684 
L 391.248804 329.721038 
L 392.732057 333.414013 
L 394.215311 335.83509 
L 395.698565 337.085305 
L 397.181818 337.494372 
L 398.665072 337.378251 
L 400.148325 336.776615 
L 401.631579 335.106495 
L 403.114833 332.215582 
L 404.598086 327.7836 
L 406.08134 321.860677 
L 412.014354 295.749504 
L 414.980861 283.149342 
L 419.430622 262.463774 
L 420.913876 257.55259 
L 422.397129 254.817659 
L 423.880383 255.341168 
L 425.363636 258.631041 
L 426.84689 264.743725 
L 428.330144 272.382569 
L 432.779904 297.427172 
L 434.263158 304.572646 
L 435.746411 310.618644 
L 437.229665 315.145254 
L 438.712919 318.179467 
L 440.196172 319.356105 
L 441.679426 318.478869 
L 443.162679 315.802424 
L 444.645933 311.827283 
L 447.61244 302.885504 
L 449.095694 299.133289 
L 450.578947 296.322564 
L 453.545455 292.045277 
L 455.028708 289.140702 
L 456.511962 284.81624 
L 457.995215 278.939642 
L 459.478469 271.323372 
L 463.92823 245.728718 
L 465.411483 238.791231 
L 466.894737 233.512173 
L 468.37799 229.688252 
L 471.344498 225.307661 
L 472.827751 223.773494 
L 474.311005 222.035038 
L 475.794258 220.861658 
L 477.277512 220.175273 
L 478.760766 220.14442 
L 480.244019 221.714263 
L 481.727273 225.200967 
L 483.210526 230.373048 
L 484.69378 237.292357 
L 487.660287 252.242621 
L 489.143541 259.459753 
L 490.626794 265.306855 
L 492.110048 270.168264 
L 493.593301 272.506956 
L 495.076555 273.306056 
L 496.559809 272.6821 
L 498.043062 271.328955 
L 499.526316 268.855306 
L 501.009569 265.652951 
L 502.492823 261.544282 
L 503.976077 256.991935 
L 505.45933 251.825146 
L 506.942584 245.678763 
L 508.425837 238.931604 
L 509.909091 230.954368 
L 511.392344 224.754734 
L 512.875598 217.703409 
L 514.358852 212.34895 
L 515.842105 207.922213 
L 517.325359 204.913823 
L 518.808612 202.397821 
L 520.291866 202.251461 
L 521.77512 203.121233 
L 523.258373 204.720871 
L 524.741627 206.000188 
L 526.22488 206.422523 
L 527.708134 206.261209 
L 529.191388 205.046189 
L 530.674641 201.733889 
L 532.157895 198.002331 
L 533.641148 192.824736 
L 536.607656 181.549982 
L 538.090909 176.462129 
L 539.574163 170.751286 
L 541.057416 167.306551 
L 542.54067 164.650123 
L 544.023923 162.712303 
L 545.507177 161.812154 
L 548.473684 165.428212 
L 549.956938 166.464286 
L 552.923445 174.02458 
L 554.406699 176.311681 
L 557.373206 182.903793 
L 558.856459 184.682953 
L 560.339713 185.798257 
L 561.822967 185.781125 
L 563.30622 185.902682 
L 564.789474 185.159861 
L 566.272727 181.32716 
L 567.755981 179.875271 
L 569.239234 177.236751 
L 570.722488 172.135886 
L 572.205742 170.005031 
L 573.688995 166.789092 
L 575.172249 162.181977 
L 576.655502 159.521403 
L 581.105263 150.585796 
L 582.588517 149.914941 
L 584.07177 147.552531 
L 585.555024 144.438489 
L 587.038278 144.794099 
L 588.521531 141.33995 
L 590.004785 139.622054 
L 591.488038 140.368377 
L 592.971292 136.244564 
L 594.454545 137.67574 
L 595.937799 135.976101 
L 597.421053 135.230947 
L 598.904306 136.974685 
L 600.38756 133.519879 
L 601.870813 134.910968 
L 604.837321 129.609744 
L 606.320574 128.853991 
L 607.803828 124.913522 
L 609.287081 121.354813 
L 610.770335 118.47183 
L 612.253589 111.108861 
L 613.736842 107.652666 
L 615.220096 100.27513 
L 616.703349 91.168234 
L 618.186603 87.33855 
L 619.669856 75.955807 
L 621.15311 75.013342 
L 622.636364 66.96 
L 622.636364 66.96 
" clip-path="url(#p5b4a290d08)" style="fill: none; stroke: #0000ff; stroke-width: 1.5; stroke-linecap: square"/>
   </g>
   <g id="line2d_15">
    <path d="M 115.363636 366.916631 
L 116.84689 353.289134 
L 118.330144 344.206329 
L 119.813397 350.943951 
L 121.296651 361.61198 
L 122.779904 360.62326 
L 124.263158 350.639176 
L 125.746411 349.394718 
L 127.229665 361.575894 
L 128.712919 369.36 
L 130.196172 361.516306 
L 131.679426 355.158756 
L 133.162679 359.899848 
L 134.645933 366.784584 
L 136.129187 365.47448 
L 137.61244 357.94605 
L 139.095694 353.625302 
L 140.578947 356.050756 
L 142.062201 359.827756 
L 143.545455 361.036972 
L 145.028708 361.850574 
L 146.511962 363.526867 
L 147.995215 362.301227 
L 150.961722 348.698203 
L 152.444976 347.790624 
L 155.411483 356.6358 
L 156.894737 357.98413 
L 158.37799 357.971671 
L 159.861244 358.931309 
L 161.344498 361.065631 
L 162.827751 362.868576 
L 164.311005 363.170426 
L 165.794258 362.453204 
L 167.277512 362.046857 
L 168.760766 362.68184 
L 170.244019 363.814845 
L 171.727273 364.319442 
L 173.210526 363.691793 
L 174.69378 362.611602 
L 176.177033 362.216217 
L 177.660287 363.006782 
L 179.143541 364.29417 
L 180.626794 364.692942 
L 182.110048 363.226274 
L 183.593301 360.15042 
L 185.076555 356.771216 
L 186.559809 354.613338 
L 188.043062 354.45908 
L 189.526316 355.903942 
L 191.009569 357.808205 
L 192.492823 359.145864 
L 193.976077 359.520774 
L 195.45933 359.352872 
L 196.942584 359.453956 
L 198.425837 360.425103 
L 201.392344 364.146519 
L 202.875598 365.20095 
L 204.358852 364.648379 
L 205.842105 362.365888 
L 208.808612 355.33461 
L 210.291866 352.511225 
L 211.77512 351.010136 
L 213.258373 350.654983 
L 214.741627 350.837047 
L 216.22488 350.565208 
L 217.708134 348.929995 
L 219.191388 345.367182 
L 220.674641 339.753145 
L 222.157895 332.30272 
L 223.641148 323.666234 
L 228.090909 296.259777 
L 229.574163 288.200389 
L 231.057416 281.184952 
L 232.54067 275.705334 
L 234.023923 272.081851 
L 235.507177 270.502574 
L 236.990431 271.302058 
L 238.473684 275.009265 
L 239.956938 281.0894 
L 241.440191 289.457172 
L 244.406699 310.056808 
L 245.889952 320.647964 
L 247.373206 330.30613 
L 248.856459 338.413208 
L 250.339713 344.624354 
L 251.822967 348.906069 
L 253.30622 351.380306 
L 254.789474 352.473995 
L 256.272727 352.718364 
L 259.239234 352.569797 
L 260.722488 352.952086 
L 262.205742 353.845764 
L 263.688995 355.189105 
L 268.138756 360.117975 
L 269.62201 361.212384 
L 271.105263 361.749892 
L 272.588517 361.655033 
L 274.07177 360.97872 
L 275.555024 359.851689 
L 280.004785 355.888994 
L 281.488038 355.034697 
L 282.971292 354.645401 
L 284.454545 354.759786 
L 285.937799 355.347706 
L 287.421053 356.336764 
L 290.38756 358.883552 
L 291.870813 360.171758 
L 293.354067 361.246839 
L 294.837321 361.998072 
L 296.320574 362.327082 
L 297.803828 362.233899 
L 299.287081 361.762451 
L 300.770335 360.948702 
L 302.253589 359.908606 
L 308.186603 355.225436 
L 309.669856 354.292221 
L 311.15311 353.544448 
L 312.636364 352.993458 
L 314.119617 352.65381 
L 320.052632 351.719563 
L 321.535885 351.060558 
L 323.019139 350.036516 
L 324.502392 348.548051 
L 325.985646 346.651846 
L 327.4689 344.205278 
L 328.952153 341.103014 
L 330.435407 337.517115 
L 331.91866 333.422914 
L 334.885167 323.989733 
L 336.368421 318.735686 
L 337.851675 314.756805 
L 339.334928 312.55484 
L 340.818182 314.366559 
L 342.301435 324.822599 
L 343.784689 336.633627 
L 345.267943 331.168862 
L 346.751196 301.349132 
L 348.23445 246.000512 
L 351.200957 109.940217 
L 352.684211 69.350855 
L 354.167464 66.96 
L 355.650718 102.03762 
L 357.133971 162.044101 
L 358.617225 228.671959 
L 360.100478 285.422199 
L 361.583732 322.88504 
L 363.066986 340.697913 
L 364.550239 344.539588 
L 366.033493 341.824859 
L 367.516746 338.143647 
L 369 336.135217 
L 370.483254 335.76929 
L 371.966507 336.107757 
L 373.449761 336.646431 
L 374.933014 337.48453 
L 376.416268 338.904149 
L 379.382775 342.54848 
L 380.866029 343.089521 
L 382.349282 342.085361 
L 383.832536 339.858812 
L 385.315789 337.430415 
L 386.799043 335.749956 
L 388.282297 335.534864 
L 389.76555 336.46127 
L 391.248804 337.720529 
L 392.732057 338.6368 
L 394.215311 338.770171 
L 395.698565 338.264259 
L 397.181818 337.555047 
L 398.665072 337.041882 
L 400.148325 336.763027 
L 401.631579 336.121918 
L 403.114833 334.800087 
L 404.598086 332.513917 
L 406.08134 329.54957 
L 407.564593 326.965796 
L 409.047847 325.827584 
L 410.5311 326.752159 
L 412.014354 329.710765 
L 413.497608 334.212565 
L 414.980861 339.147747 
L 416.464115 343.438518 
L 417.947368 346.497988 
L 419.430622 348.204701 
L 420.913876 348.974928 
L 422.397129 349.342295 
L 423.880383 349.876984 
L 425.363636 350.659281 
L 426.84689 351.596719 
L 428.330144 352.259517 
L 429.813397 352.351549 
L 431.296651 351.847053 
L 434.263158 349.887618 
L 435.746411 349.203435 
L 437.229665 349.018329 
L 438.712919 349.393363 
L 441.679426 350.603873 
L 443.162679 350.837714 
L 444.645933 350.685417 
L 447.61244 349.944231 
L 449.095694 349.885954 
L 450.578947 350.290991 
L 452.062201 351.083619 
L 453.545455 352.045275 
L 455.028708 352.828268 
L 456.511962 353.181789 
L 457.995215 353.030797 
L 459.478469 352.413003 
L 462.444976 350.928916 
L 463.92823 350.534861 
L 465.411483 350.589998 
L 468.37799 351.504762 
L 469.861244 351.923444 
L 471.344498 351.889578 
L 472.827751 351.461325 
L 477.277512 348.925935 
L 478.760766 348.451204 
L 480.244019 348.478978 
L 481.727273 348.983371 
L 486.177033 351.235692 
L 487.660287 351.404955 
L 489.143541 351.202884 
L 492.110048 349.985905 
L 493.593301 349.266913 
L 495.076555 348.803129 
L 496.559809 348.667513 
L 498.043062 348.909632 
L 501.009569 349.601369 
L 502.492823 349.671236 
L 503.976077 349.436398 
L 505.45933 348.854317 
L 508.425837 346.997357 
L 509.909091 346.04693 
L 511.392344 345.727311 
L 512.875598 345.683511 
L 514.358852 346.22399 
L 517.325359 347.941808 
L 518.808612 348.508591 
L 520.291866 348.699888 
L 521.77512 348.182526 
L 523.258373 346.891076 
L 524.741627 344.811152 
L 526.22488 342.104429 
L 530.674641 333.405859 
L 532.157895 331.268677 
L 533.641148 329.671325 
L 535.124402 328.725899 
L 536.607656 328.51047 
L 539.574163 329.134519 
L 544.023923 331.374945 
L 545.507177 332.009492 
L 546.990431 332.911243 
L 548.473684 333.62517 
L 549.956938 334.084663 
L 551.440191 334.828895 
L 552.923445 335.364992 
L 554.406699 335.297355 
L 555.889952 334.921807 
L 557.373206 333.85888 
L 558.856459 331.792136 
L 560.339713 328.790838 
L 561.822967 324.790401 
L 563.30622 320.226136 
L 564.789474 315.120072 
L 566.272727 309.092187 
L 569.239234 299.380207 
L 570.722488 294.753214 
L 572.205742 292.326461 
L 573.688995 290.756481 
L 575.172249 289.913188 
L 576.655502 290.91027 
L 578.138756 292.739157 
L 579.62201 295.351252 
L 581.105263 298.287502 
L 582.588517 302.208376 
L 584.07177 305.627414 
L 585.555024 308.733125 
L 587.038278 312.499767 
L 590.004785 317.925218 
L 591.488038 321.084308 
L 592.971292 323.161885 
L 594.454545 326.202644 
L 598.904306 333.218085 
L 601.870813 335.263895 
L 603.354067 334.717483 
L 604.837321 332.962021 
L 606.320574 330.124338 
L 607.803828 325.33612 
L 609.287081 319.150754 
L 610.770335 311.825183 
L 615.220096 283.174879 
L 616.703349 272.728682 
L 618.186603 265.049542 
L 619.669856 256.194379 
L 621.15311 253.157995 
L 622.636364 249.646963 
L 622.636364 249.646963 
" clip-path="url(#p5b4a290d08)" style="fill: none; stroke: #ffa500; stroke-width: 1.5; stroke-linecap: square"/>
   </g>
   <g id="line2d_16">
    <path d="M 115.363636 309.144376 
L 116.84689 314.399186 
L 118.330144 324.919965 
L 119.813397 332.529621 
L 121.296651 342.606719 
L 122.779904 359.519344 
L 124.263158 369.36 
L 125.746411 354.179612 
L 127.229665 324.248441 
L 128.712919 315.702098 
L 130.196172 339.460575 
L 131.679426 355.940843 
L 133.162679 346.776433 
L 134.645933 329.357477 
L 136.129187 325.454287 
L 137.61244 338.044837 
L 139.095694 353.559505 
L 140.578947 358.714327 
L 142.062201 351.461549 
L 145.028708 321.973155 
L 146.511962 316.381431 
L 147.995215 328.709551 
L 149.478469 352.955689 
L 150.961722 368.152181 
L 152.444976 361.898087 
L 153.92823 345.23027 
L 155.411483 337.352453 
L 156.894737 343.356742 
L 158.37799 352.828847 
L 159.861244 353.512518 
L 161.344498 343.047226 
L 162.827751 329.614519 
L 164.311005 323.470991 
L 165.794258 328.237496 
L 167.277512 338.170207 
L 168.760766 343.824323 
L 170.244019 339.865067 
L 171.727273 329.00085 
L 173.210526 319.239904 
L 174.69378 317.676278 
L 176.177033 325.156104 
L 177.660287 336.147122 
L 179.143541 342.942256 
L 180.626794 340.959352 
L 182.110048 331.422465 
L 183.593301 320.021988 
L 185.076555 312.78123 
L 186.559809 312.575377 
L 188.043062 317.934606 
L 189.526316 324.449922 
L 191.009569 327.82604 
L 192.492823 326.229728 
L 193.976077 320.6368 
L 195.45933 313.854968 
L 196.942584 308.636822 
L 198.425837 306.277766 
L 199.909091 306.252279 
L 201.392344 306.802599 
L 202.875598 306.15834 
L 204.358852 303.526817 
L 207.325359 294.739919 
L 208.808612 291.364167 
L 210.291866 289.993923 
L 211.77512 290.661096 
L 214.741627 293.872684 
L 216.22488 294.315992 
L 217.708134 293.21921 
L 219.191388 290.929291 
L 220.674641 288.250073 
L 222.157895 285.971368 
L 223.641148 284.95884 
L 225.124402 285.184339 
L 226.607656 286.539073 
L 228.090909 288.15389 
L 229.574163 289.23541 
L 231.057416 289.135109 
L 232.54067 287.708205 
L 234.023923 285.087248 
L 236.990431 278.119733 
L 238.473684 275.394485 
L 239.956938 273.599828 
L 241.440191 273.10355 
L 242.923445 273.663778 
L 244.406699 274.824122 
L 245.889952 276.143339 
L 247.373206 277.037189 
L 248.856459 277.115153 
L 250.339713 276.216025 
L 251.822967 274.503176 
L 253.30622 271.927004 
L 257.755981 262.722239 
L 259.239234 259.997354 
L 260.722488 257.843878 
L 263.688995 254.294885 
L 266.655502 250.968118 
L 268.138756 248.996104 
L 274.07177 239.446279 
L 275.555024 237.076083 
L 278.521531 233.713603 
L 280.004785 232.509616 
L 281.488038 231.731206 
L 284.454545 230.612226 
L 285.937799 229.85712 
L 287.421053 228.852869 
L 288.904306 227.184132 
L 291.870813 222.483705 
L 293.354067 219.92312 
L 296.320574 215.356294 
L 297.803828 213.55553 
L 303.736842 209.056344 
L 305.220096 207.526511 
L 308.186603 205.673764 
L 312.636364 201.79133 
L 314.119617 200.944944 
L 315.602871 200.281878 
L 321.535885 198.779501 
L 323.019139 198.264295 
L 324.502392 197.40836 
L 325.985646 196.905694 
L 327.4689 195.849688 
L 330.435407 191.619911 
L 334.885167 184.693438 
L 337.851675 180.613824 
L 339.334928 181.153021 
L 340.818182 185.775785 
L 342.301435 189.733985 
L 343.784689 189.31041 
L 345.267943 182.742152 
L 346.751196 175.26137 
L 348.23445 172.475647 
L 349.717703 176.870635 
L 351.200957 184.844424 
L 352.684211 189.511034 
L 354.167464 185.540099 
L 355.650718 173.371089 
L 357.133971 159.397048 
L 358.617225 151.546932 
L 360.100478 153.993896 
L 363.066986 173.842354 
L 364.550239 177.705702 
L 366.033493 173.10937 
L 367.516746 162.803205 
L 369 154.036204 
L 370.483254 151.779981 
L 371.966507 156.496664 
L 373.449761 164.339163 
L 374.933014 169.235496 
L 376.416268 167.254006 
L 377.899522 159.360947 
L 379.382775 150.557523 
L 380.866029 145.374334 
L 382.349282 147.209918 
L 385.315789 161.568044 
L 386.799043 163.668174 
L 388.282297 159.356549 
L 391.248804 140.027107 
L 392.732057 134.880851 
L 394.215311 136.272262 
L 395.698565 142.525656 
L 397.181818 149.399931 
L 398.665072 153.029042 
L 400.148325 151.960707 
L 403.114833 140.775989 
L 404.598086 138.011404 
L 406.08134 139.0292 
L 407.564593 143.622707 
L 409.047847 148.82579 
L 410.5311 151.060975 
L 412.014354 148.414922 
L 413.497608 142.373931 
L 414.980861 135.312503 
L 416.464115 130.001085 
L 417.947368 128.873822 
L 419.430622 131.558861 
L 420.913876 136.246456 
L 422.397129 139.357605 
L 423.880383 139.501427 
L 425.363636 135.201563 
L 426.84689 128.720829 
L 428.330144 121.733786 
L 429.813397 116.871864 
L 431.296651 116.272482 
L 432.779904 119.109946 
L 434.263158 123.571532 
L 435.746411 127.583821 
L 437.229665 128.720047 
L 438.712919 127.276675 
L 440.196172 123.528529 
L 441.679426 118.656015 
L 443.162679 114.704898 
L 444.645933 112.947861 
L 446.129187 114.042758 
L 447.61244 115.831983 
L 449.095694 117.983333 
L 450.578947 119.146768 
L 452.062201 118.543456 
L 453.545455 116.746914 
L 455.028708 114.37133 
L 456.511962 112.790355 
L 457.995215 113.310286 
L 459.478469 115.255917 
L 462.444976 121.674776 
L 463.92823 122.826235 
L 465.411483 122.047773 
L 466.894737 119.215149 
L 468.37799 114.98363 
L 469.861244 111.646246 
L 471.344498 108.620038 
L 472.827751 108.722327 
L 474.311005 110.995642 
L 475.794258 115.720397 
L 477.277512 120.846737 
L 478.760766 124.327673 
L 480.244019 125.543509 
L 481.727273 123.950562 
L 483.210526 119.535299 
L 487.660287 103.173426 
L 489.143541 101.645696 
L 490.626794 102.770717 
L 493.593301 112.325176 
L 495.076555 117.047419 
L 496.559809 120.268935 
L 498.043062 121.918531 
L 499.526316 120.398477 
L 501.009569 116.679409 
L 502.492823 111.314259 
L 503.976077 106.532106 
L 505.45933 103.190548 
L 506.942584 101.293353 
L 508.425837 101.494741 
L 509.909091 101.873742 
L 511.392344 105.873775 
L 512.875598 107.359328 
L 514.358852 108.602112 
L 515.842105 107.272521 
L 517.325359 103.687361 
L 518.808612 96.954743 
L 521.77512 85.115889 
L 523.258373 81.1307 
L 524.741627 78.910408 
L 526.22488 78.733355 
L 527.708134 81.496227 
L 532.157895 95.944084 
L 533.641148 99.494666 
L 535.124402 101.262141 
L 536.607656 101.869626 
L 538.090909 100.81178 
L 539.574163 96.992166 
L 544.023923 88.750377 
L 545.507177 87.247566 
L 548.473684 91.110963 
L 549.956938 92.180023 
L 551.440191 96.210688 
L 552.923445 99.85507 
L 554.406699 100.890133 
L 555.889952 102.551333 
L 557.373206 103.276308 
L 558.856459 102.00317 
L 560.339713 100.06008 
L 561.822967 97.340527 
L 563.30622 95.951971 
L 564.789474 94.934871 
L 566.272727 91.556674 
L 567.755981 92.883723 
L 569.239234 94.049326 
L 570.722488 93.167497 
L 572.205742 96.518591 
L 573.688995 98.638416 
L 575.172249 98.885262 
L 576.655502 100.839534 
L 578.138756 101.738175 
L 579.62201 102.137801 
L 581.105263 101.387013 
L 582.588517 102.816672 
L 584.07177 101.996574 
L 585.555024 100.048418 
L 587.038278 101.451553 
L 588.521531 98.480772 
L 590.004785 96.868343 
L 591.488038 97.237975 
L 592.971292 91.756032 
L 594.454545 91.352636 
L 595.937799 86.89068 
L 597.421053 82.880165 
L 598.904306 81.361026 
L 600.38756 74.306251 
L 601.870813 73.375489 
L 603.354067 69.248051 
L 604.837321 66.96 
L 606.320574 69.191386 
L 607.803828 70.561233 
L 609.287081 75.138376 
L 610.770335 82.90758 
L 612.253589 88.123849 
L 613.736842 98.181963 
L 615.220096 104.399929 
L 616.703349 107.64659 
L 618.186603 112.154818 
L 619.669856 105.910721 
L 621.15311 102.18507 
L 622.636364 86.009185 
L 622.636364 86.009185 
" clip-path="url(#p5b4a290d08)" style="fill: none; stroke: #008000; stroke-width: 1.5; stroke-linecap: square"/>
   </g>
   <g id="patch_3">
    <path d="M 90 384.48 
L 90 51.84 
" style="fill: none; stroke: #000000; stroke-width: 0.8; stroke-linejoin: miter; stroke-linecap: square"/>
   </g>
   <g id="patch_4">
    <path d="M 648 384.48 
L 648 51.84 
" style="fill: none; stroke: #000000; stroke-width: 0.8; stroke-linejoin: miter; stroke-linecap: square"/>
   </g>
   <g id="patch_5">
    <path d="M 90 384.48 
L 648 384.48 
" style="fill: none; stroke: #000000; stroke-width: 0.8; stroke-linejoin: miter; stroke-linecap: square"/>
   </g>
   <g id="patch_6">
    <path d="M 90 51.84 
L 648 51.84 
" style="fill: none; stroke: #000000; stroke-width: 0.8; stroke-linejoin: miter; stroke-linecap: square"/>
   </g>
   <g id="text_16">
    <!-- Normalized Stars -->
    <g transform="translate(309.075625 45.84)scale(0.14 -0.14)">
     <defs>
      <path id="DejaVuSans-4e" d="M 628 4666 
L 1478 4666 
L 3547 763 
L 3547 4666 
L 4159 4666 
L 4159 0 
L 3309 0 
L 1241 3903 
L 1241 0 
L 628 0 
L 628 4666 
z
" transform="scale(0.015625)"/>
      <path id="DejaVuSans-6f" d="M 1959 3097 
Q 1497 3097 1228 2736 
Q 959 2375 959 1747 
Q 959 1119 1226 758 
Q 1494 397 1959 397 
Q 2419 397 2687 759 
Q 2956 1122 2956 1747 
Q 2956 2369 2687 2733 
Q 2419 3097 1959 3097 
z
M 1959 3584 
Q 2709 3584 3137 3096 
Q 3566 2609 3566 1747 
Q 3566 888 3137 398 
Q 2709 -91 1959 -91 
Q 1206 -91 779 398 
Q 353 888 353 1747 
Q 353 2609 779 3096 
Q 1206 3584 1959 3584 
z
" transform="scale(0.015625)"/>
      <path id="DejaVuSans-72" d="M 2631 2963 
Q 2534 3019 2420 3045 
Q 2306 3072 2169 3072 
Q 1681 3072 1420 2755 
Q 1159 2438 1159 1844 
L 1159 0 
L 581 0 
L 581 3500 
L 1159 3500 
L 1159 2956 
Q 1341 3275 1631 3429 
Q 1922 3584 2338 3584 
Q 2397 3584 2469 3576 
Q 2541 3569 2628 3553 
L 2631 2963 
z
" transform="scale(0.015625)"/>
      <path id="DejaVuSans-6d" d="M 3328 2828 
Q 3544 3216 3844 3400 
Q 4144 3584 4550 3584 
Q 5097 3584 5394 3201 
Q 5691 2819 5691 2113 
L 5691 0 
L 5113 0 
L 5113 2094 
Q 5113 2597 4934 2840 
Q 4756 3084 4391 3084 
Q 3944 3084 3684 2787 
Q 3425 2491 3425 1978 
L 3425 0 
L 2847 0 
L 2847 2094 
Q 2847 2600 2669 2842 
Q 2491 3084 2119 3084 
Q 1678 3084 1418 2786 
Q 1159 2488 1159 1978 
L 1159 0 
L 581 0 
L 581 3500 
L 1159 3500 
L 1159 2956 
Q 1356 3278 1631 3431 
Q 1906 3584 2284 3584 
Q 2666 3584 2933 3390 
Q 3200 3197 3328 2828 
z
" transform="scale(0.015625)"/>
      <path id="DejaVuSans-69" d="M 603 3500 
L 1178 3500 
L 1178 0 
L 603 0 
L 603 3500 
z
M 603 4863 
L 1178 4863 
L 1178 4134 
L 603 4134 
L 603 4863 
z
" transform="scale(0.015625)"/>
      <path id="DejaVuSans-7a" d="M 353 3500 
L 3084 3500 
L 3084 2975 
L 922 459 
L 3084 459 
L 3084 0 
L 275 0 
L 275 525 
L 2438 3041 
L 353 3041 
L 353 3500 
z
" transform="scale(0.015625)"/>
      <path id="DejaVuSans-73" d="M 2834 3397 
L 2834 2853 
Q 2591 2978 2328 3040 
Q 2066 3103 1784 3103 
Q 1356 3103 1142 2972 
Q 928 2841 928 2578 
Q 928 2378 1081 2264 
Q 1234 2150 1697 2047 
L 1894 2003 
Q 2506 1872 2764 1633 
Q 3022 1394 3022 966 
Q 3022 478 2636 193 
Q 2250 -91 1575 -91 
Q 1294 -91 989 -36 
Q 684 19 347 128 
L 347 722 
Q 666 556 975 473 
Q 1284 391 1588 391 
Q 1994 391 2212 530 
Q 2431 669 2431 922 
Q 2431 1156 2273 1281 
Q 2116 1406 1581 1522 
L 1381 1569 
Q 847 1681 609 1914 
Q 372 2147 372 2553 
Q 372 3047 722 3315 
Q 1072 3584 1716 3584 
Q 2034 3584 2315 3537 
Q 2597 3491 2834 3397 
z
" transform="scale(0.015625)"/>
     </defs>
     <use xlink:href="#DejaVuSans-4e"/>
     <use xlink:href="#DejaVuSans-6f" x="74.804688"/>
     <use xlink:href="#DejaVuSans-72" x="135.986328"/>
     <use xlink:href="#DejaVuSans-6d" x="175.349609"/>
     <use xlink:href="#DejaVuSans-61" x="272.761719"/>
     <use xlink:href="#DejaVuSans-6c" x="334.041016"/>
     <use xlink:href="#DejaVuSans-69" x="361.824219"/>
     <use xlink:href="#DejaVuSans-7a" x="389.607422"/>
     <use xlink:href="#DejaVuSans-65" x="442.097656"/>
     <use xlink:href="#DejaVuSans-64" x="503.621094"/>
     <use xlink:href="#DejaVuSans-20" x="567.097656"/>
     <use xlink:href="#DejaVuSans-53" x="598.884766"/>
     <use xlink:href="#DejaVuSans-74" x="662.361328"/>
     <use xlink:href="#DejaVuSans-61" x="701.570312"/>
     <use xlink:href="#DejaVuSans-72" x="762.849609"/>
     <use xlink:href="#DejaVuSans-73" x="803.962891"/>
    </g>
   </g>
   <g id="legend_1">
    <g id="patch_7">
     <path d="M 97 103.874375 
L 299.151563 103.874375 
Q 301.151563 103.874375 301.151563 101.874375 
L 301.151563 58.84 
Q 301.151563 56.84 299.151563 56.84 
L 97 56.84 
Q 95 56.84 95 58.84 
L 95 101.874375 
Q 95 103.874375 97 103.874375 
z
" style="fill: #ffffff; opacity: 0.8; stroke: #cccccc; stroke-linejoin: miter"/>
    </g>
    <g id="line2d_17">
     <path d="M 99 64.938437 
L 109 64.938437 
L 119 64.938437 
" style="fill: none; stroke: #0000ff; stroke-width: 1.5; stroke-linecap: square"/>
    </g>
    <g id="text_17">
     <!-- SY (EM* AS 323) -->
     <g transform="translate(127 68.438437)scale(0.1 -0.1)">
      <defs>
       <path id="DejaVuSans-59" d="M -13 4666 
L 666 4666 
L 1959 2747 
L 3244 4666 
L 3922 4666 
L 2272 2222 
L 2272 0 
L 1638 0 
L 1638 2222 
L -13 4666 
z
" transform="scale(0.015625)"/>
       <path id="DejaVuSans-28" d="M 1984 4856 
Q 1566 4138 1362 3434 
Q 1159 2731 1159 2009 
Q 1159 1288 1364 580 
Q 1569 -128 1984 -844 
L 1484 -844 
Q 1016 -109 783 600 
Q 550 1309 550 2009 
Q 550 2706 781 3412 
Q 1013 4119 1484 4856 
L 1984 4856 
z
" transform="scale(0.015625)"/>
       <path id="DejaVuSans-45" d="M 628 4666 
L 3578 4666 
L 3578 4134 
L 1259 4134 
L 1259 2753 
L 3481 2753 
L 3481 2222 
L 1259 2222 
L 1259 531 
L 3634 531 
L 3634 0 
L 628 0 
L 628 4666 
z
" transform="scale(0.015625)"/>
       <path id="DejaVuSans-4d" d="M 628 4666 
L 1569 4666 
L 2759 1491 
L 3956 4666 
L 4897 4666 
L 4897 0 
L 4281 0 
L 4281 4097 
L 3078 897 
L 2444 897 
L 1241 4097 
L 1241 0 
L 628 0 
L 628 4666 
z
" transform="scale(0.015625)"/>
       <path id="DejaVuSans-2a" d="M 3009 3897 
L 1888 3291 
L 3009 2681 
L 2828 2375 
L 1778 3009 
L 1778 1831 
L 1422 1831 
L 1422 3009 
L 372 2375 
L 191 2681 
L 1313 3291 
L 191 3897 
L 372 4206 
L 1422 3572 
L 1422 4750 
L 1778 4750 
L 1778 3572 
L 2828 4206 
L 3009 3897 
z
" transform="scale(0.015625)"/>
       <path id="DejaVuSans-41" d="M 2188 4044 
L 1331 1722 
L 3047 1722 
L 2188 4044 
z
M 1831 4666 
L 2547 4666 
L 4325 0 
L 3669 0 
L 3244 1197 
L 1141 1197 
L 716 0 
L 50 0 
L 1831 4666 
z
" transform="scale(0.015625)"/>
       <path id="DejaVuSans-33" d="M 2597 2516 
Q 3050 2419 3304 2112 
Q 3559 1806 3559 1356 
Q 3559 666 3084 287 
Q 2609 -91 1734 -91 
Q 1441 -91 1130 -33 
Q 819 25 488 141 
L 488 750 
Q 750 597 1062 519 
Q 1375 441 1716 441 
Q 2309 441 2620 675 
Q 2931 909 2931 1356 
Q 2931 1769 2642 2001 
Q 2353 2234 1838 2234 
L 1294 2234 
L 1294 2753 
L 1863 2753 
Q 2328 2753 2575 2939 
Q 2822 3125 2822 3475 
Q 2822 3834 2567 4026 
Q 2313 4219 1838 4219 
Q 1578 4219 1281 4162 
Q 984 4106 628 3988 
L 628 4550 
Q 988 4650 1302 4700 
Q 1616 4750 1894 4750 
Q 2613 4750 3031 4423 
Q 3450 4097 3450 3541 
Q 3450 3153 3228 2886 
Q 3006 2619 2597 2516 
z
" transform="scale(0.015625)"/>
       <path id="DejaVuSans-29" d="M 513 4856 
L 1013 4856 
Q 1481 4119 1714 3412 
Q 1947 2706 1947 2009 
Q 1947 1309 1714 600 
Q 1481 -109 1013 -844 
L 513 -844 
Q 928 -128 1133 580 
Q 1338 1288 1338 2009 
Q 1338 2731 1133 3434 
Q 928 4138 513 4856 
z
" transform="scale(0.015625)"/>
      </defs>
      <use xlink:href="#DejaVuSans-53"/>
      <use xlink:href="#DejaVuSans-59" x="63.476562"/>
      <use xlink:href="#DejaVuSans-20" x="124.560547"/>
      <use xlink:href="#DejaVuSans-28" x="156.347656"/>
      <use xlink:href="#DejaVuSans-45" x="195.361328"/>
      <use xlink:href="#DejaVuSans-4d" x="258.544922"/>
      <use xlink:href="#DejaVuSans-2a" x="344.824219"/>
      <use xlink:href="#DejaVuSans-20" x="394.824219"/>
      <use xlink:href="#DejaVuSans-41" x="426.611328"/>
      <use xlink:href="#DejaVuSans-53" x="495.019531"/>
      <use xlink:href="#DejaVuSans-20" x="558.496094"/>
      <use xlink:href="#DejaVuSans-33" x="590.283203"/>
      <use xlink:href="#DejaVuSans-32" x="653.90625"/>
      <use xlink:href="#DejaVuSans-33" x="717.529297"/>
      <use xlink:href="#DejaVuSans-29" x="781.152344"/>
     </g>
    </g>
    <g id="line2d_18">
     <path d="M 99 79.616562 
L 109 79.616562 
L 119 79.616562 
" style="fill: none; stroke: #ffa500; stroke-width: 1.5; stroke-linecap: square"/>
    </g>
    <g id="text_18">
     <!-- PN (Hen 2-442) -->
     <g transform="translate(127 83.116562)scale(0.1 -0.1)">
      <defs>
       <path id="DejaVuSans-50" d="M 1259 4147 
L 1259 2394 
L 2053 2394 
Q 2494 2394 2734 2622 
Q 2975 2850 2975 3272 
Q 2975 3691 2734 3919 
Q 2494 4147 2053 4147 
L 1259 4147 
z
M 628 4666 
L 2053 4666 
Q 2838 4666 3239 4311 
Q 3641 3956 3641 3272 
Q 3641 2581 3239 2228 
Q 2838 1875 2053 1875 
L 1259 1875 
L 1259 0 
L 628 0 
L 628 4666 
z
" transform="scale(0.015625)"/>
       <path id="DejaVuSans-48" d="M 628 4666 
L 1259 4666 
L 1259 2753 
L 3553 2753 
L 3553 4666 
L 4184 4666 
L 4184 0 
L 3553 0 
L 3553 2222 
L 1259 2222 
L 1259 0 
L 628 0 
L 628 4666 
z
" transform="scale(0.015625)"/>
       <path id="DejaVuSans-2d" d="M 313 2009 
L 1997 2009 
L 1997 1497 
L 313 1497 
L 313 2009 
z
" transform="scale(0.015625)"/>
      </defs>
      <use xlink:href="#DejaVuSans-50"/>
      <use xlink:href="#DejaVuSans-4e" x="60.302734"/>
      <use xlink:href="#DejaVuSans-20" x="135.107422"/>
      <use xlink:href="#DejaVuSans-28" x="166.894531"/>
      <use xlink:href="#DejaVuSans-48" x="205.908203"/>
      <use xlink:href="#DejaVuSans-65" x="281.103516"/>
      <use xlink:href="#DejaVuSans-6e" x="342.626953"/>
      <use xlink:href="#DejaVuSans-20" x="406.005859"/>
      <use xlink:href="#DejaVuSans-32" x="437.792969"/>
      <use xlink:href="#DejaVuSans-2d" x="501.416016"/>
      <use xlink:href="#DejaVuSans-34" x="537.5"/>
      <use xlink:href="#DejaVuSans-34" x="601.123047"/>
      <use xlink:href="#DejaVuSans-32" x="664.746094"/>
      <use xlink:href="#DejaVuSans-29" x="728.369141"/>
     </g>
    </g>
    <g id="line2d_19">
     <path d="M 99 94.294687 
L 109 94.294687 
L 119 94.294687 
" style="fill: none; stroke: #008000; stroke-width: 1.5; stroke-linecap: square"/>
    </g>
    <g id="text_19">
     <!-- RG (2MASS J04390924+2847545) -->
     <g transform="translate(127 97.794687)scale(0.1 -0.1)">
      <defs>
       <path id="DejaVuSans-52" d="M 2841 2188 
Q 3044 2119 3236 1894 
Q 3428 1669 3622 1275 
L 4263 0 
L 3584 0 
L 2988 1197 
Q 2756 1666 2539 1819 
Q 2322 1972 1947 1972 
L 1259 1972 
L 1259 0 
L 628 0 
L 628 4666 
L 2053 4666 
Q 2853 4666 3247 4331 
Q 3641 3997 3641 3322 
Q 3641 2881 3436 2590 
Q 3231 2300 2841 2188 
z
M 1259 4147 
L 1259 2491 
L 2053 2491 
Q 2509 2491 2742 2702 
Q 2975 2913 2975 3322 
Q 2975 3731 2742 3939 
Q 2509 4147 2053 4147 
L 1259 4147 
z
" transform="scale(0.015625)"/>
       <path id="DejaVuSans-47" d="M 3809 666 
L 3809 1919 
L 2778 1919 
L 2778 2438 
L 4434 2438 
L 4434 434 
Q 4069 175 3628 42 
Q 3188 -91 2688 -91 
Q 1594 -91 976 548 
Q 359 1188 359 2328 
Q 359 3472 976 4111 
Q 1594 4750 2688 4750 
Q 3144 4750 3555 4637 
Q 3966 4525 4313 4306 
L 4313 3634 
Q 3963 3931 3569 4081 
Q 3175 4231 2741 4231 
Q 1884 4231 1454 3753 
Q 1025 3275 1025 2328 
Q 1025 1384 1454 906 
Q 1884 428 2741 428 
Q 3075 428 3337 486 
Q 3600 544 3809 666 
z
" transform="scale(0.015625)"/>
       <path id="DejaVuSans-4a" d="M 628 4666 
L 1259 4666 
L 1259 325 
Q 1259 -519 939 -900 
Q 619 -1281 -91 -1281 
L -331 -1281 
L -331 -750 
L -134 -750 
Q 284 -750 456 -515 
Q 628 -281 628 325 
L 628 4666 
z
" transform="scale(0.015625)"/>
       <path id="DejaVuSans-2b" d="M 2944 4013 
L 2944 2272 
L 4684 2272 
L 4684 1741 
L 2944 1741 
L 2944 0 
L 2419 0 
L 2419 1741 
L 678 1741 
L 678 2272 
L 2419 2272 
L 2419 4013 
L 2944 4013 
z
" transform="scale(0.015625)"/>
      </defs>
      <use xlink:href="#DejaVuSans-52"/>
      <use xlink:href="#DejaVuSans-47" x="69.482422"/>
      <use xlink:href="#DejaVuSans-20" x="146.972656"/>
      <use xlink:href="#DejaVuSans-28" x="178.759766"/>
      <use xlink:href="#DejaVuSans-32" x="217.773438"/>
      <use xlink:href="#DejaVuSans-4d" x="281.396484"/>
      <use xlink:href="#DejaVuSans-41" x="367.675781"/>
      <use xlink:href="#DejaVuSans-53" x="436.083984"/>
      <use xlink:href="#DejaVuSans-53" x="499.560547"/>
      <use xlink:href="#DejaVuSans-20" x="563.037109"/>
      <use xlink:href="#DejaVuSans-4a" x="594.824219"/>
      <use xlink:href="#DejaVuSans-30" x="624.316406"/>
      <use xlink:href="#DejaVuSans-34" x="687.939453"/>
      <use xlink:href="#DejaVuSans-33" x="751.5625"/>
      <use xlink:href="#DejaVuSans-39" x="815.185547"/>
      <use xlink:href="#DejaVuSans-30" x="878.808594"/>
      <use xlink:href="#DejaVuSans-39" x="942.431641"/>
      <use xlink:href="#DejaVuSans-32" x="1006.054688"/>
      <use xlink:href="#DejaVuSans-34" x="1069.677734"/>
      <use xlink:href="#DejaVuSans-2b" x="1133.300781"/>
      <use xlink:href="#DejaVuSans-32" x="1217.089844"/>
      <use xlink:href="#DejaVuSans-38" x="1280.712891"/>
      <use xlink:href="#DejaVuSans-34" x="1344.335938"/>
      <use xlink:href="#DejaVuSans-37" x="1407.958984"/>
      <use xlink:href="#DejaVuSans-35" x="1471.582031"/>
      <use xlink:href="#DejaVuSans-34" x="1535.205078"/>
      <use xlink:href="#DejaVuSans-35" x="1598.828125"/>
      <use xlink:href="#DejaVuSans-29" x="1662.451172"/>
     </g>
    </g>
   </g>
  </g>
 </g>
 <defs>
  <clipPath id="p5b4a290d08">
   <rect x="90" y="51.84" width="558" height="332.64"/>
  </clipPath>
 </defs>
</svg>
