<?xml version="1.0" encoding="utf-8" standalone="no"?>
<!DOCTYPE svg PUBLIC "-//W3C//DTD SVG 1.1//EN"
  "http://www.w3.org/Graphics/SVG/1.1/DTD/svg11.dtd">
<svg xmlns:xlink="http://www.w3.org/1999/xlink" width="720pt" height="432pt" viewBox="0 0 720 432" xmlns="http://www.w3.org/2000/svg" version="1.1">
 <metadata>
  <rdf:RDF xmlns:dc="http://purl.org/dc/elements/1.1/" xmlns:cc="http://creativecommons.org/ns#" xmlns:rdf="http://www.w3.org/1999/02/22-rdf-syntax-ns#">
   <cc:Work>
    <dc:type rdf:resource="http://purl.org/dc/dcmitype/StillImage"/>
    <dc:date>2024-02-26T13:43:09.688710</dc:date>
    <dc:format>image/svg+xml</dc:format>
    <dc:creator>
     <cc:Agent>
      <dc:title>Matplotlib v3.5.3, https://matplotlib.org/</dc:title>
     </cc:Agent>
    </dc:creator>
   </cc:Work>
  </rdf:RDF>
 </metadata>
 <defs>
  <style type="text/css">*{stroke-linejoin: round; stroke-linecap: butt}</style>
 </defs>
 <g id="figure_1">
  <g id="patch_1">
   <path d="M 0 432 
L 720 432 
L 720 0 
L 0 0 
z
" style="fill: #ffffff"/>
  </g>
  <g id="axes_1">
   <g id="patch_2">
    <path d="M 90 384.48 
L 648 384.48 
L 648 51.84 
L 90 51.84 
z
" style="fill: #ffffff"/>
   </g>
   <g id="matplotlib.axis_1">
    <g id="xtick_1">
     <g id="line2d_1">
      <defs>
       <path id="m9fff904cf2" d="M 0 0 
L 0 3.5 
" style="stroke: #000000; stroke-width: 0.8"/>
      </defs>
      <g>
       <use xlink:href="#m9fff904cf2" x="162.827751" y="384.48" style="stroke: #000000; stroke-width: 0.8"/>
      </g>
     </g>
     <g id="text_1">
      <!-- 400 -->
      <g transform="translate(153.284001 399.078438)scale(0.1 -0.1)">
       <defs>
        <path id="DejaVuSans-34" d="M 2419 4116 
L 825 1625 
L 2419 1625 
L 2419 4116 
z
M 2253 4666 
L 3047 4666 
L 3047 1625 
L 3713 1625 
L 3713 1100 
L 3047 1100 
L 3047 0 
L 2419 0 
L 2419 1100 
L 313 1100 
L 313 1709 
L 2253 4666 
z
" transform="scale(0.015625)"/>
        <path id="DejaVuSans-30" d="M 2034 4250 
Q 1547 4250 1301 3770 
Q 1056 3291 1056 2328 
Q 1056 1369 1301 889 
Q 1547 409 2034 409 
Q 2525 409 2770 889 
Q 3016 1369 3016 2328 
Q 3016 3291 2770 3770 
Q 2525 4250 2034 4250 
z
M 2034 4750 
Q 2819 4750 3233 4129 
Q 3647 3509 3647 2328 
Q 3647 1150 3233 529 
Q 2819 -91 2034 -91 
Q 1250 -91 836 529 
Q 422 1150 422 2328 
Q 422 3509 836 4129 
Q 1250 4750 2034 4750 
z
" transform="scale(0.015625)"/>
       </defs>
       <use xlink:href="#DejaVuSans-34"/>
       <use xlink:href="#DejaVuSans-30" x="63.623047"/>
       <use xlink:href="#DejaVuSans-30" x="127.246094"/>
      </g>
     </g>
    </g>
    <g id="xtick_2">
     <g id="line2d_2">
      <g>
       <use xlink:href="#m9fff904cf2" x="236.990431" y="384.48" style="stroke: #000000; stroke-width: 0.8"/>
      </g>
     </g>
     <g id="text_2">
      <!-- 500 -->
      <g transform="translate(227.446681 399.078438)scale(0.1 -0.1)">
       <defs>
        <path id="DejaVuSans-35" d="M 691 4666 
L 3169 4666 
L 3169 4134 
L 1269 4134 
L 1269 2991 
Q 1406 3038 1543 3061 
Q 1681 3084 1819 3084 
Q 2600 3084 3056 2656 
Q 3513 2228 3513 1497 
Q 3513 744 3044 326 
Q 2575 -91 1722 -91 
Q 1428 -91 1123 -41 
Q 819 9 494 109 
L 494 744 
Q 775 591 1075 516 
Q 1375 441 1709 441 
Q 2250 441 2565 725 
Q 2881 1009 2881 1497 
Q 2881 1984 2565 2268 
Q 2250 2553 1709 2553 
Q 1456 2553 1204 2497 
Q 953 2441 691 2322 
L 691 4666 
z
" transform="scale(0.015625)"/>
       </defs>
       <use xlink:href="#DejaVuSans-35"/>
       <use xlink:href="#DejaVuSans-30" x="63.623047"/>
       <use xlink:href="#DejaVuSans-30" x="127.246094"/>
      </g>
     </g>
    </g>
    <g id="xtick_3">
     <g id="line2d_3">
      <g>
       <use xlink:href="#m9fff904cf2" x="311.15311" y="384.48" style="stroke: #000000; stroke-width: 0.8"/>
      </g>
     </g>
     <g id="text_3">
      <!-- 600 -->
      <g transform="translate(301.60936 399.078438)scale(0.1 -0.1)">
       <defs>
        <path id="DejaVuSans-36" d="M 2113 2584 
Q 1688 2584 1439 2293 
Q 1191 2003 1191 1497 
Q 1191 994 1439 701 
Q 1688 409 2113 409 
Q 2538 409 2786 701 
Q 3034 994 3034 1497 
Q 3034 2003 2786 2293 
Q 2538 2584 2113 2584 
z
M 3366 4563 
L 3366 3988 
Q 3128 4100 2886 4159 
Q 2644 4219 2406 4219 
Q 1781 4219 1451 3797 
Q 1122 3375 1075 2522 
Q 1259 2794 1537 2939 
Q 1816 3084 2150 3084 
Q 2853 3084 3261 2657 
Q 3669 2231 3669 1497 
Q 3669 778 3244 343 
Q 2819 -91 2113 -91 
Q 1303 -91 875 529 
Q 447 1150 447 2328 
Q 447 3434 972 4092 
Q 1497 4750 2381 4750 
Q 2619 4750 2861 4703 
Q 3103 4656 3366 4563 
z
" transform="scale(0.015625)"/>
       </defs>
       <use xlink:href="#DejaVuSans-36"/>
       <use xlink:href="#DejaVuSans-30" x="63.623047"/>
       <use xlink:href="#DejaVuSans-30" x="127.246094"/>
      </g>
     </g>
    </g>
    <g id="xtick_4">
     <g id="line2d_4">
      <g>
       <use xlink:href="#m9fff904cf2" x="385.315789" y="384.48" style="stroke: #000000; stroke-width: 0.8"/>
      </g>
     </g>
     <g id="text_4">
      <!-- 700 -->
      <g transform="translate(375.772039 399.078438)scale(0.1 -0.1)">
       <defs>
        <path id="DejaVuSans-37" d="M 525 4666 
L 3525 4666 
L 3525 4397 
L 1831 0 
L 1172 0 
L 2766 4134 
L 525 4134 
L 525 4666 
z
" transform="scale(0.015625)"/>
       </defs>
       <use xlink:href="#DejaVuSans-37"/>
       <use xlink:href="#DejaVuSans-30" x="63.623047"/>
       <use xlink:href="#DejaVuSans-30" x="127.246094"/>
      </g>
     </g>
    </g>
    <g id="xtick_5">
     <g id="line2d_5">
      <g>
       <use xlink:href="#m9fff904cf2" x="459.478469" y="384.48" style="stroke: #000000; stroke-width: 0.8"/>
      </g>
     </g>
     <g id="text_5">
      <!-- 800 -->
      <g transform="translate(449.934719 399.078438)scale(0.1 -0.1)">
       <defs>
        <path id="DejaVuSans-38" d="M 2034 2216 
Q 1584 2216 1326 1975 
Q 1069 1734 1069 1313 
Q 1069 891 1326 650 
Q 1584 409 2034 409 
Q 2484 409 2743 651 
Q 3003 894 3003 1313 
Q 3003 1734 2745 1975 
Q 2488 2216 2034 2216 
z
M 1403 2484 
Q 997 2584 770 2862 
Q 544 3141 544 3541 
Q 544 4100 942 4425 
Q 1341 4750 2034 4750 
Q 2731 4750 3128 4425 
Q 3525 4100 3525 3541 
Q 3525 3141 3298 2862 
Q 3072 2584 2669 2484 
Q 3125 2378 3379 2068 
Q 3634 1759 3634 1313 
Q 3634 634 3220 271 
Q 2806 -91 2034 -91 
Q 1263 -91 848 271 
Q 434 634 434 1313 
Q 434 1759 690 2068 
Q 947 2378 1403 2484 
z
M 1172 3481 
Q 1172 3119 1398 2916 
Q 1625 2713 2034 2713 
Q 2441 2713 2670 2916 
Q 2900 3119 2900 3481 
Q 2900 3844 2670 4047 
Q 2441 4250 2034 4250 
Q 1625 4250 1398 4047 
Q 1172 3844 1172 3481 
z
" transform="scale(0.015625)"/>
       </defs>
       <use xlink:href="#DejaVuSans-38"/>
       <use xlink:href="#DejaVuSans-30" x="63.623047"/>
       <use xlink:href="#DejaVuSans-30" x="127.246094"/>
      </g>
     </g>
    </g>
    <g id="xtick_6">
     <g id="line2d_6">
      <g>
       <use xlink:href="#m9fff904cf2" x="533.641148" y="384.48" style="stroke: #000000; stroke-width: 0.8"/>
      </g>
     </g>
     <g id="text_6">
      <!-- 900 -->
      <g transform="translate(524.097398 399.078438)scale(0.1 -0.1)">
       <defs>
        <path id="DejaVuSans-39" d="M 703 97 
L 703 672 
Q 941 559 1184 500 
Q 1428 441 1663 441 
Q 2288 441 2617 861 
Q 2947 1281 2994 2138 
Q 2813 1869 2534 1725 
Q 2256 1581 1919 1581 
Q 1219 1581 811 2004 
Q 403 2428 403 3163 
Q 403 3881 828 4315 
Q 1253 4750 1959 4750 
Q 2769 4750 3195 4129 
Q 3622 3509 3622 2328 
Q 3622 1225 3098 567 
Q 2575 -91 1691 -91 
Q 1453 -91 1209 -44 
Q 966 3 703 97 
z
M 1959 2075 
Q 2384 2075 2632 2365 
Q 2881 2656 2881 3163 
Q 2881 3666 2632 3958 
Q 2384 4250 1959 4250 
Q 1534 4250 1286 3958 
Q 1038 3666 1038 3163 
Q 1038 2656 1286 2365 
Q 1534 2075 1959 2075 
z
" transform="scale(0.015625)"/>
       </defs>
       <use xlink:href="#DejaVuSans-39"/>
       <use xlink:href="#DejaVuSans-30" x="63.623047"/>
       <use xlink:href="#DejaVuSans-30" x="127.246094"/>
      </g>
     </g>
    </g>
    <g id="xtick_7">
     <g id="line2d_7">
      <g>
       <use xlink:href="#m9fff904cf2" x="607.803828" y="384.48" style="stroke: #000000; stroke-width: 0.8"/>
      </g>
     </g>
     <g id="text_7">
      <!-- 1000 -->
      <g transform="translate(595.078828 399.078438)scale(0.1 -0.1)">
       <defs>
        <path id="DejaVuSans-31" d="M 794 531 
L 1825 531 
L 1825 4091 
L 703 3866 
L 703 4441 
L 1819 4666 
L 2450 4666 
L 2450 531 
L 3481 531 
L 3481 0 
L 794 0 
L 794 531 
z
" transform="scale(0.015625)"/>
       </defs>
       <use xlink:href="#DejaVuSans-31"/>
       <use xlink:href="#DejaVuSans-30" x="63.623047"/>
       <use xlink:href="#DejaVuSans-30" x="127.246094"/>
       <use xlink:href="#DejaVuSans-30" x="190.869141"/>
      </g>
     </g>
    </g>
    <g id="text_8">
     <!-- Wavelength -->
     <g transform="translate(330.43875 415.036094)scale(0.13 -0.13)">
      <defs>
       <path id="DejaVuSans-57" d="M 213 4666 
L 850 4666 
L 1831 722 
L 2809 4666 
L 3519 4666 
L 4500 722 
L 5478 4666 
L 6119 4666 
L 4947 0 
L 4153 0 
L 3169 4050 
L 2175 0 
L 1381 0 
L 213 4666 
z
" transform="scale(0.015625)"/>
       <path id="DejaVuSans-61" d="M 2194 1759 
Q 1497 1759 1228 1600 
Q 959 1441 959 1056 
Q 959 750 1161 570 
Q 1363 391 1709 391 
Q 2188 391 2477 730 
Q 2766 1069 2766 1631 
L 2766 1759 
L 2194 1759 
z
M 3341 1997 
L 3341 0 
L 2766 0 
L 2766 531 
Q 2569 213 2275 61 
Q 1981 -91 1556 -91 
Q 1019 -91 701 211 
Q 384 513 384 1019 
Q 384 1609 779 1909 
Q 1175 2209 1959 2209 
L 2766 2209 
L 2766 2266 
Q 2766 2663 2505 2880 
Q 2244 3097 1772 3097 
Q 1472 3097 1187 3025 
Q 903 2953 641 2809 
L 641 3341 
Q 956 3463 1253 3523 
Q 1550 3584 1831 3584 
Q 2591 3584 2966 3190 
Q 3341 2797 3341 1997 
z
" transform="scale(0.015625)"/>
       <path id="DejaVuSans-76" d="M 191 3500 
L 800 3500 
L 1894 563 
L 2988 3500 
L 3597 3500 
L 2284 0 
L 1503 0 
L 191 3500 
z
" transform="scale(0.015625)"/>
       <path id="DejaVuSans-65" d="M 3597 1894 
L 3597 1613 
L 953 1613 
Q 991 1019 1311 708 
Q 1631 397 2203 397 
Q 2534 397 2845 478 
Q 3156 559 3463 722 
L 3463 178 
Q 3153 47 2828 -22 
Q 2503 -91 2169 -91 
Q 1331 -91 842 396 
Q 353 884 353 1716 
Q 353 2575 817 3079 
Q 1281 3584 2069 3584 
Q 2775 3584 3186 3129 
Q 3597 2675 3597 1894 
z
M 3022 2063 
Q 3016 2534 2758 2815 
Q 2500 3097 2075 3097 
Q 1594 3097 1305 2825 
Q 1016 2553 972 2059 
L 3022 2063 
z
" transform="scale(0.015625)"/>
       <path id="DejaVuSans-6c" d="M 603 4863 
L 1178 4863 
L 1178 0 
L 603 0 
L 603 4863 
z
" transform="scale(0.015625)"/>
       <path id="DejaVuSans-6e" d="M 3513 2113 
L 3513 0 
L 2938 0 
L 2938 2094 
Q 2938 2591 2744 2837 
Q 2550 3084 2163 3084 
Q 1697 3084 1428 2787 
Q 1159 2491 1159 1978 
L 1159 0 
L 581 0 
L 581 3500 
L 1159 3500 
L 1159 2956 
Q 1366 3272 1645 3428 
Q 1925 3584 2291 3584 
Q 2894 3584 3203 3211 
Q 3513 2838 3513 2113 
z
" transform="scale(0.015625)"/>
       <path id="DejaVuSans-67" d="M 2906 1791 
Q 2906 2416 2648 2759 
Q 2391 3103 1925 3103 
Q 1463 3103 1205 2759 
Q 947 2416 947 1791 
Q 947 1169 1205 825 
Q 1463 481 1925 481 
Q 2391 481 2648 825 
Q 2906 1169 2906 1791 
z
M 3481 434 
Q 3481 -459 3084 -895 
Q 2688 -1331 1869 -1331 
Q 1566 -1331 1297 -1286 
Q 1028 -1241 775 -1147 
L 775 -588 
Q 1028 -725 1275 -790 
Q 1522 -856 1778 -856 
Q 2344 -856 2625 -561 
Q 2906 -266 2906 331 
L 2906 616 
Q 2728 306 2450 153 
Q 2172 0 1784 0 
Q 1141 0 747 490 
Q 353 981 353 1791 
Q 353 2603 747 3093 
Q 1141 3584 1784 3584 
Q 2172 3584 2450 3431 
Q 2728 3278 2906 2969 
L 2906 3500 
L 3481 3500 
L 3481 434 
z
" transform="scale(0.015625)"/>
       <path id="DejaVuSans-74" d="M 1172 4494 
L 1172 3500 
L 2356 3500 
L 2356 3053 
L 1172 3053 
L 1172 1153 
Q 1172 725 1289 603 
Q 1406 481 1766 481 
L 2356 481 
L 2356 0 
L 1766 0 
Q 1100 0 847 248 
Q 594 497 594 1153 
L 594 3053 
L 172 3053 
L 172 3500 
L 594 3500 
L 594 4494 
L 1172 4494 
z
" transform="scale(0.015625)"/>
       <path id="DejaVuSans-68" d="M 3513 2113 
L 3513 0 
L 2938 0 
L 2938 2094 
Q 2938 2591 2744 2837 
Q 2550 3084 2163 3084 
Q 1697 3084 1428 2787 
Q 1159 2491 1159 1978 
L 1159 0 
L 581 0 
L 581 4863 
L 1159 4863 
L 1159 2956 
Q 1366 3272 1645 3428 
Q 1925 3584 2291 3584 
Q 2894 3584 3203 3211 
Q 3513 2838 3513 2113 
z
" transform="scale(0.015625)"/>
      </defs>
      <use xlink:href="#DejaVuSans-57"/>
      <use xlink:href="#DejaVuSans-61" x="92.501953"/>
      <use xlink:href="#DejaVuSans-76" x="153.78125"/>
      <use xlink:href="#DejaVuSans-65" x="212.960938"/>
      <use xlink:href="#DejaVuSans-6c" x="274.484375"/>
      <use xlink:href="#DejaVuSans-65" x="302.267578"/>
      <use xlink:href="#DejaVuSans-6e" x="363.791016"/>
      <use xlink:href="#DejaVuSans-67" x="427.169922"/>
      <use xlink:href="#DejaVuSans-74" x="490.646484"/>
      <use xlink:href="#DejaVuSans-68" x="529.855469"/>
     </g>
    </g>
   </g>
   <g id="matplotlib.axis_2">
    <g id="ytick_1">
     <g id="line2d_8">
      <defs>
       <path id="m5e53080441" d="M 0 0 
L -3.5 0 
" style="stroke: #000000; stroke-width: 0.8"/>
      </defs>
      <g>
       <use xlink:href="#m5e53080441" x="90" y="368.555686" style="stroke: #000000; stroke-width: 0.8"/>
      </g>
     </g>
     <g id="text_9">
      <!-- 0 -->
      <g transform="translate(76.6375 372.354905)scale(0.1 -0.1)">
       <use xlink:href="#DejaVuSans-30"/>
      </g>
     </g>
    </g>
    <g id="ytick_2">
     <g id="line2d_9">
      <g>
       <use xlink:href="#m5e53080441" x="90" y="321.754946" style="stroke: #000000; stroke-width: 0.8"/>
      </g>
     </g>
     <g id="text_10">
      <!-- 1 -->
      <g transform="translate(76.6375 325.554165)scale(0.1 -0.1)">
       <use xlink:href="#DejaVuSans-31"/>
      </g>
     </g>
    </g>
    <g id="ytick_3">
     <g id="line2d_10">
      <g>
       <use xlink:href="#m5e53080441" x="90" y="274.954206" style="stroke: #000000; stroke-width: 0.8"/>
      </g>
     </g>
     <g id="text_11">
      <!-- 2 -->
      <g transform="translate(76.6375 278.753425)scale(0.1 -0.1)">
       <defs>
        <path id="DejaVuSans-32" d="M 1228 531 
L 3431 531 
L 3431 0 
L 469 0 
L 469 531 
Q 828 903 1448 1529 
Q 2069 2156 2228 2338 
Q 2531 2678 2651 2914 
Q 2772 3150 2772 3378 
Q 2772 3750 2511 3984 
Q 2250 4219 1831 4219 
Q 1534 4219 1204 4116 
Q 875 4013 500 3803 
L 500 4441 
Q 881 4594 1212 4672 
Q 1544 4750 1819 4750 
Q 2544 4750 2975 4387 
Q 3406 4025 3406 3419 
Q 3406 3131 3298 2873 
Q 3191 2616 2906 2266 
Q 2828 2175 2409 1742 
Q 1991 1309 1228 531 
z
" transform="scale(0.015625)"/>
       </defs>
       <use xlink:href="#DejaVuSans-32"/>
      </g>
     </g>
    </g>
    <g id="ytick_4">
     <g id="line2d_11">
      <g>
       <use xlink:href="#m5e53080441" x="90" y="228.153466" style="stroke: #000000; stroke-width: 0.8"/>
      </g>
     </g>
     <g id="text_12">
      <!-- 3 -->
      <g transform="translate(76.6375 231.952684)scale(0.1 -0.1)">
       <defs>
        <path id="DejaVuSans-33" d="M 2597 2516 
Q 3050 2419 3304 2112 
Q 3559 1806 3559 1356 
Q 3559 666 3084 287 
Q 2609 -91 1734 -91 
Q 1441 -91 1130 -33 
Q 819 25 488 141 
L 488 750 
Q 750 597 1062 519 
Q 1375 441 1716 441 
Q 2309 441 2620 675 
Q 2931 909 2931 1356 
Q 2931 1769 2642 2001 
Q 2353 2234 1838 2234 
L 1294 2234 
L 1294 2753 
L 1863 2753 
Q 2328 2753 2575 2939 
Q 2822 3125 2822 3475 
Q 2822 3834 2567 4026 
Q 2313 4219 1838 4219 
Q 1578 4219 1281 4162 
Q 984 4106 628 3988 
L 628 4550 
Q 988 4650 1302 4700 
Q 1616 4750 1894 4750 
Q 2613 4750 3031 4423 
Q 3450 4097 3450 3541 
Q 3450 3153 3228 2886 
Q 3006 2619 2597 2516 
z
" transform="scale(0.015625)"/>
       </defs>
       <use xlink:href="#DejaVuSans-33"/>
      </g>
     </g>
    </g>
    <g id="ytick_5">
     <g id="line2d_12">
      <g>
       <use xlink:href="#m5e53080441" x="90" y="181.352725" style="stroke: #000000; stroke-width: 0.8"/>
      </g>
     </g>
     <g id="text_13">
      <!-- 4 -->
      <g transform="translate(76.6375 185.151944)scale(0.1 -0.1)">
       <use xlink:href="#DejaVuSans-34"/>
      </g>
     </g>
    </g>
    <g id="ytick_6">
     <g id="line2d_13">
      <g>
       <use xlink:href="#m5e53080441" x="90" y="134.551985" style="stroke: #000000; stroke-width: 0.8"/>
      </g>
     </g>
     <g id="text_14">
      <!-- 5 -->
      <g transform="translate(76.6375 138.351204)scale(0.1 -0.1)">
       <use xlink:href="#DejaVuSans-35"/>
      </g>
     </g>
    </g>
    <g id="ytick_7">
     <g id="line2d_14">
      <g>
       <use xlink:href="#m5e53080441" x="90" y="87.751245" style="stroke: #000000; stroke-width: 0.8"/>
      </g>
     </g>
     <g id="text_15">
      <!-- 6 -->
      <g transform="translate(76.6375 91.550464)scale(0.1 -0.1)">
       <use xlink:href="#DejaVuSans-36"/>
      </g>
     </g>
    </g>
    <g id="text_16">
     <!-- Flux -->
     <g transform="translate(69.933906 231.670859)rotate(-90)scale(0.13 -0.13)">
      <defs>
       <path id="DejaVuSans-46" d="M 628 4666 
L 3309 4666 
L 3309 4134 
L 1259 4134 
L 1259 2759 
L 3109 2759 
L 3109 2228 
L 1259 2228 
L 1259 0 
L 628 0 
L 628 4666 
z
" transform="scale(0.015625)"/>
       <path id="DejaVuSans-75" d="M 544 1381 
L 544 3500 
L 1119 3500 
L 1119 1403 
Q 1119 906 1312 657 
Q 1506 409 1894 409 
Q 2359 409 2629 706 
Q 2900 1003 2900 1516 
L 2900 3500 
L 3475 3500 
L 3475 0 
L 2900 0 
L 2900 538 
Q 2691 219 2414 64 
Q 2138 -91 1772 -91 
Q 1169 -91 856 284 
Q 544 659 544 1381 
z
M 1991 3584 
L 1991 3584 
z
" transform="scale(0.015625)"/>
       <path id="DejaVuSans-78" d="M 3513 3500 
L 2247 1797 
L 3578 0 
L 2900 0 
L 1881 1375 
L 863 0 
L 184 0 
L 1544 1831 
L 300 3500 
L 978 3500 
L 1906 2253 
L 2834 3500 
L 3513 3500 
z
" transform="scale(0.015625)"/>
      </defs>
      <use xlink:href="#DejaVuSans-46"/>
      <use xlink:href="#DejaVuSans-6c" x="57.519531"/>
      <use xlink:href="#DejaVuSans-75" x="85.302734"/>
      <use xlink:href="#DejaVuSans-78" x="148.681641"/>
     </g>
    </g>
    <g id="text_17">
     <!-- 1e−16 -->
     <g transform="translate(90 48.84)scale(0.1 -0.1)">
      <defs>
       <path id="DejaVuSans-2212" d="M 678 2272 
L 4684 2272 
L 4684 1741 
L 678 1741 
L 678 2272 
z
" transform="scale(0.015625)"/>
      </defs>
      <use xlink:href="#DejaVuSans-31"/>
      <use xlink:href="#DejaVuSans-65" x="63.623047"/>
      <use xlink:href="#DejaVuSans-2212" x="125.146484"/>
      <use xlink:href="#DejaVuSans-31" x="208.935547"/>
      <use xlink:href="#DejaVuSans-36" x="272.558594"/>
     </g>
    </g>
   </g>
   <g id="line2d_15">
    <path d="M 115.363636 343.454199 
L 116.84689 345.132284 
L 118.330144 351.23449 
L 119.813397 353.052909 
L 121.296651 349.649533 
L 122.779904 346.830879 
L 124.263158 347.50195 
L 125.746411 348.50894 
L 127.229665 345.966422 
L 128.712919 343.044092 
L 130.196172 345.228144 
L 131.679426 348.477213 
L 133.162679 347.573396 
L 134.645933 345.05398 
L 136.129187 344.80256 
L 137.61244 346.900892 
L 139.095694 348.437275 
L 142.062201 347.578642 
L 143.545455 348.775659 
L 145.028708 350.572586 
L 146.511962 350.589268 
L 147.995215 349.353067 
L 149.478469 349.364381 
L 150.961722 350.736604 
L 152.444976 351.260253 
L 153.92823 350.387376 
L 155.411483 350.305711 
L 156.894737 352.523388 
L 158.37799 355.894034 
L 159.861244 357.693455 
L 161.344498 356.36535 
L 164.311005 349.595072 
L 165.794258 348.468175 
L 167.277512 349.286612 
L 168.760766 350.329434 
L 170.244019 350.002628 
L 171.727273 348.165905 
L 173.210526 346.043404 
L 174.69378 345.313028 
L 176.177033 346.53409 
L 177.660287 348.822541 
L 179.143541 350.520112 
L 180.626794 350.360933 
L 182.110048 348.260068 
L 183.593301 345.353933 
L 185.076555 343.011529 
L 186.559809 342.140764 
L 188.043062 342.747034 
L 189.526316 344.053653 
L 191.009569 345.185629 
L 192.492823 345.776762 
L 193.976077 345.872925 
L 195.45933 345.829916 
L 196.942584 345.925844 
L 198.425837 346.153236 
L 199.909091 346.237143 
L 201.392344 345.826256 
L 202.875598 344.797619 
L 205.842105 342.161475 
L 207.325359 341.669285 
L 208.808612 342.252912 
L 210.291866 343.862208 
L 213.258373 348.129241 
L 214.741627 349.43131 
L 216.22488 349.549593 
L 217.708134 348.470561 
L 219.191388 346.55993 
L 220.674641 344.387256 
L 222.157895 342.480868 
L 223.641148 341.334911 
L 225.124402 341.011706 
L 226.607656 341.486283 
L 229.574163 343.301669 
L 231.057416 343.937384 
L 232.54067 344.151911 
L 234.023923 343.923455 
L 235.507177 343.338494 
L 236.990431 342.606209 
L 238.473684 342.023132 
L 239.956938 341.594491 
L 241.440191 341.422985 
L 244.406699 341.391774 
L 245.889952 341.254974 
L 247.373206 340.854729 
L 248.856459 340.143654 
L 251.822967 338.117157 
L 253.30622 337.040685 
L 254.789474 336.141183 
L 256.272727 335.605183 
L 257.755981 335.463872 
L 259.239234 335.719202 
L 260.722488 336.377606 
L 263.688995 338.089688 
L 265.172249 338.824392 
L 266.655502 339.327576 
L 268.138756 339.452823 
L 269.62201 339.173428 
L 271.105263 338.635271 
L 274.07177 336.950565 
L 275.555024 336.052596 
L 277.038278 335.40197 
L 278.521531 334.940912 
L 280.004785 334.79309 
L 281.488038 334.988777 
L 282.971292 335.460763 
L 285.937799 336.858268 
L 287.421053 337.590238 
L 288.904306 338.13606 
L 290.38756 338.430767 
L 291.870813 338.550544 
L 293.354067 338.420636 
L 294.837321 338.121396 
L 297.803828 337.018813 
L 300.770335 335.766068 
L 305.220096 333.834808 
L 306.703349 333.406978 
L 309.669856 332.866969 
L 311.15311 332.735242 
L 312.636364 332.733827 
L 315.602871 333.205659 
L 318.569378 333.887274 
L 320.052632 334.099085 
L 321.535885 334.162643 
L 323.019139 334.043859 
L 325.985646 333.179275 
L 327.4689 332.387653 
L 328.952153 331.180647 
L 330.435407 329.8206 
L 333.401914 326.589813 
L 336.368421 323.184491 
L 337.851675 322.909832 
L 339.334928 323.081514 
L 340.818182 322.99971 
L 342.301435 324.820029 
L 343.784689 329.682083 
L 345.267943 332.818075 
L 346.751196 330.626863 
L 348.23445 321.299547 
L 351.200957 291.730676 
L 352.684211 281.737904 
L 354.167464 280.458231 
L 355.650718 288.001898 
L 357.133971 301.353263 
L 358.617225 315.983848 
L 360.100478 327.892627 
L 361.583732 334.894067 
L 363.066986 337.12823 
L 364.550239 336.222429 
L 367.516746 331.706987 
L 369 329.865101 
L 371.966507 327.063477 
L 374.933014 324.503251 
L 376.416268 322.929872 
L 377.899522 320.804995 
L 379.382775 317.957396 
L 382.349282 310.511782 
L 383.832536 307.622079 
L 385.315789 306.592641 
L 386.799043 307.668012 
L 388.282297 310.919099 
L 391.248804 319.583758 
L 392.732057 323.134258 
L 394.215311 325.461931 
L 395.698565 326.663912 
L 397.181818 327.057198 
L 398.665072 326.945557 
L 400.148325 326.367132 
L 401.631579 324.761444 
L 403.114833 321.982063 
L 404.598086 317.721066 
L 406.08134 312.026649 
L 412.014354 286.92284 
L 414.980861 274.808791 
L 419.430622 254.921268 
L 420.913876 250.199557 
L 422.397129 247.57014 
L 423.880383 248.073452 
L 425.363636 251.236402 
L 426.84689 257.113259 
L 428.330144 264.457398 
L 432.779904 288.535784 
L 434.263158 295.405587 
L 435.746411 301.218331 
L 437.229665 305.570306 
L 438.712919 308.487459 
L 440.196172 309.618702 
L 441.679426 308.77531 
L 443.162679 306.202122 
L 444.645933 302.380341 
L 447.61244 293.783535 
L 449.095694 290.17608 
L 450.578947 287.473792 
L 453.545455 283.361522 
L 455.028708 280.569005 
L 456.511962 276.41138 
L 457.995215 270.7615 
L 459.478469 263.439065 
L 463.92823 238.831849 
L 465.411483 232.162009 
L 466.894737 227.086616 
L 468.37799 223.410221 
L 471.344498 219.198633 
L 472.827751 217.723654 
L 474.311005 216.052267 
L 475.794258 214.924156 
L 477.277512 214.264252 
L 478.760766 214.234589 
L 480.244019 215.743868 
L 481.727273 219.096055 
L 483.210526 224.068598 
L 484.69378 230.720961 
L 487.660287 245.094447 
L 489.143541 252.033143 
L 490.626794 257.654664 
L 492.110048 262.328521 
L 493.593301 264.576986 
L 495.076555 265.345257 
L 496.559809 264.745373 
L 498.043062 263.444432 
L 499.526316 261.066217 
L 501.009569 257.987408 
L 502.492823 254.03725 
L 503.976077 249.660532 
L 505.45933 244.693077 
L 506.942584 238.783821 
L 508.425837 232.296966 
L 509.909091 224.627491 
L 511.392344 218.667037 
L 512.875598 211.887752 
L 514.358852 206.739867 
L 515.842105 202.483912 
L 517.325359 199.591586 
L 518.808612 197.172651 
L 520.291866 197.031937 
L 521.77512 197.868154 
L 523.258373 199.406078 
L 524.741627 200.636039 
L 526.22488 201.04208 
L 527.708134 200.88699 
L 529.191388 199.718845 
L 530.674641 196.534333 
L 532.157895 192.946739 
L 533.641148 187.968894 
L 536.607656 177.129118 
L 538.090909 172.237554 
L 539.574163 166.747035 
L 541.057416 163.435197 
L 542.54067 160.881254 
L 544.023923 159.018194 
L 545.507177 158.152772 
L 548.473684 161.629323 
L 549.956938 162.625426 
L 552.923445 169.894045 
L 554.406699 172.09291 
L 557.373206 178.430699 
L 558.856459 180.14122 
L 560.339713 181.213495 
L 561.822967 181.197024 
L 563.30622 181.313892 
L 564.789474 180.599728 
L 566.272727 176.914893 
L 567.755981 175.519017 
L 569.239234 172.982291 
L 570.722488 168.078216 
L 572.205742 166.029569 
L 573.688995 162.937701 
L 575.172249 158.508328 
L 576.655502 155.950398 
L 581.105263 147.359526 
L 582.588517 146.714552 
L 584.07177 144.443284 
L 585.555024 141.449381 
L 587.038278 141.791272 
L 588.521531 138.470383 
L 590.004785 136.818763 
L 591.488038 137.536293 
L 592.971292 133.571576 
L 594.454545 134.947537 
L 595.937799 133.31347 
L 597.421053 132.597064 
L 598.904306 134.273529 
L 600.38756 130.952009 
L 601.870813 132.28943 
L 604.837321 127.192726 
L 606.320574 126.46613 
L 607.803828 122.677685 
L 609.287081 119.256269 
L 610.770335 116.484512 
L 612.253589 109.405605 
L 613.736842 106.082749 
L 615.220096 98.989838 
L 616.703349 90.234284 
L 618.186603 86.552349 
L 619.669856 75.60875 
L 621.15311 74.702645 
L 622.636364 66.96 
L 622.636364 66.96 
" clip-path="url(#p532777a853)" style="fill: none; stroke: #0000ff; stroke-width: 1.5; stroke-linecap: square"/>
   </g>
   <g id="line2d_16">
    <path d="M 115.363636 368.274254 
L 116.84689 366.682037 
L 118.330144 365.620815 
L 119.813397 366.408029 
L 121.296651 367.654466 
L 122.779904 367.538946 
L 124.263158 366.37242 
L 125.746411 366.227019 
L 127.229665 367.65025 
L 128.712919 368.559734 
L 130.196172 367.643288 
L 131.679426 366.900481 
L 133.162679 367.454423 
L 134.645933 368.258826 
L 136.129187 368.105755 
L 137.61244 367.226144 
L 139.095694 366.721314 
L 140.578947 367.004701 
L 142.062201 367.446 
L 146.511962 367.878199 
L 147.995215 367.734997 
L 150.961722 366.145639 
L 152.444976 366.039599 
L 155.411483 367.073057 
L 156.894737 367.230593 
L 158.37799 367.229138 
L 159.861244 367.341261 
L 162.827751 367.801285 
L 164.311005 367.836553 
L 167.277512 367.705277 
L 173.210526 367.897469 
L 176.177033 367.725064 
L 180.626794 368.014441 
L 182.110048 367.843078 
L 186.559809 366.836755 
L 188.043062 366.818732 
L 193.976077 367.410133 
L 196.942584 367.402326 
L 199.909091 367.72617 
L 202.875598 368.073796 
L 204.358852 368.009235 
L 205.842105 367.742552 
L 210.291866 366.591147 
L 211.77512 366.415762 
L 217.708134 366.172721 
L 219.191388 365.756447 
L 220.674641 365.100511 
L 222.157895 364.230014 
L 225.124402 362.131335 
L 228.090909 360.018809 
L 231.057416 358.257488 
L 232.54067 357.617257 
L 234.023923 357.193895 
L 235.507177 357.009374 
L 236.990431 357.102785 
L 238.473684 357.53593 
L 239.956938 358.246324 
L 241.440191 359.224002 
L 244.406699 361.630834 
L 247.373206 363.996736 
L 248.856459 364.943955 
L 250.339713 365.669656 
L 251.822967 366.169926 
L 253.30622 366.459012 
L 256.272727 366.615349 
L 260.722488 366.642657 
L 263.688995 366.904027 
L 269.62201 367.607778 
L 272.588517 367.659496 
L 275.555024 367.448796 
L 281.488038 366.885986 
L 284.454545 366.853866 
L 287.421053 367.038118 
L 294.837321 367.699577 
L 297.803828 367.72713 
L 302.253589 367.455446 
L 311.15311 366.711867 
L 315.602871 366.58351 
L 321.535885 366.421653 
L 324.502392 366.128096 
L 327.4689 365.620692 
L 330.435407 364.839257 
L 333.401914 363.828033 
L 337.851675 362.179975 
L 339.334928 361.922701 
L 340.818182 362.134379 
L 342.301435 363.356048 
L 343.784689 364.736031 
L 345.267943 364.097536 
L 346.751196 360.613442 
L 348.23445 354.146588 
L 351.200957 338.249499 
L 352.684211 333.507096 
L 354.167464 333.227752 
L 355.650718 337.326171 
L 357.133971 344.337242 
L 358.617225 352.121945 
L 360.100478 358.752562 
L 361.583732 363.129666 
L 363.066986 365.210897 
L 364.550239 365.659753 
L 369 364.677798 
L 371.966507 364.674589 
L 374.933014 364.83545 
L 380.866029 365.490329 
L 382.349282 365.373004 
L 386.799043 364.632785 
L 388.282297 364.607653 
L 394.215311 364.985662 
L 403.114833 364.521803 
L 406.08134 363.90834 
L 407.564593 363.606456 
L 409.047847 363.473469 
L 410.5311 363.581495 
L 412.014354 363.927174 
L 416.464115 365.531105 
L 417.947368 365.888569 
L 420.913876 366.177971 
L 425.363636 366.374769 
L 428.330144 366.561738 
L 431.296651 366.513546 
L 437.229665 366.183042 
L 446.129187 366.336341 
L 449.095694 366.284414 
L 453.545455 366.536706 
L 456.511962 366.669495 
L 459.478469 366.579671 
L 463.92823 366.360232 
L 468.37799 366.473553 
L 471.344498 366.518515 
L 475.794258 366.265063 
L 478.760766 366.11678 
L 481.727273 366.178958 
L 487.660287 366.461892 
L 492.110048 366.296092 
L 496.559809 366.142053 
L 503.976077 366.231889 
L 508.425837 365.946915 
L 511.392344 365.798524 
L 514.358852 365.856556 
L 520.291866 366.145836 
L 523.258373 365.934497 
L 526.22488 365.375232 
L 530.674641 364.358904 
L 533.641148 363.922566 
L 536.607656 363.786933 
L 541.057416 363.951122 
L 552.923445 364.587806 
L 555.889952 364.536025 
L 557.373206 364.411834 
L 560.339713 363.819691 
L 563.30622 362.819004 
L 570.722488 359.842784 
L 573.688995 359.375812 
L 575.172249 359.277282 
L 578.138756 359.607465 
L 581.105263 360.255725 
L 584.07177 361.11331 
L 591.488038 362.919271 
L 594.454545 363.51729 
L 598.904306 364.336964 
L 601.870813 364.575994 
L 603.354067 364.512152 
L 604.837321 364.307046 
L 606.320574 363.975495 
L 607.803828 363.416047 
L 609.287081 362.693358 
L 610.770335 361.837448 
L 615.220096 358.489988 
L 616.703349 357.269469 
L 618.186603 356.37225 
L 619.669856 355.337625 
L 622.636364 354.572635 
L 622.636364 354.572635 
" clip-path="url(#p532777a853)" style="fill: none; stroke: #ffa500; stroke-width: 1.5; stroke-linecap: square"/>
   </g>
   <g id="line2d_17">
    <path d="M 115.363636 366.887404 
L 116.84689 367.103179 
L 118.330144 367.535187 
L 121.296651 368.261447 
L 122.779904 368.955919 
L 124.263158 369.36 
L 125.746411 368.736657 
L 127.229665 367.507613 
L 128.712919 367.15668 
L 130.196172 368.132259 
L 131.679426 368.808978 
L 133.162679 368.432665 
L 134.645933 367.717402 
L 136.129187 367.557128 
L 137.61244 368.074126 
L 139.095694 368.711194 
L 140.578947 368.922864 
L 142.062201 368.625047 
L 145.028708 367.414184 
L 146.511962 367.184575 
L 147.995215 367.690797 
L 149.478469 368.6864 
L 150.961722 369.310404 
L 152.444976 369.053596 
L 153.92823 368.369176 
L 155.411483 368.045695 
L 156.894737 368.292245 
L 158.37799 368.681192 
L 159.861244 368.709265 
L 161.344498 368.279535 
L 162.827751 367.727957 
L 164.311005 367.475689 
L 165.794258 367.671413 
L 167.277512 368.079273 
L 168.760766 368.311445 
L 170.244019 368.148868 
L 173.210526 367.301951 
L 174.69378 367.237744 
L 176.177033 367.544884 
L 177.660287 367.996201 
L 179.143541 368.275225 
L 180.626794 368.193802 
L 185.076555 367.036742 
L 186.559809 367.028289 
L 191.009569 367.654518 
L 192.492823 367.588969 
L 198.425837 366.769695 
L 204.358852 366.656734 
L 208.808612 366.157307 
L 211.77512 366.128437 
L 216.22488 366.278516 
L 219.191388 366.13945 
L 223.641148 365.894289 
L 228.090909 366.025485 
L 231.057416 366.065777 
L 234.023923 365.899562 
L 239.956938 365.427861 
L 242.923445 365.430487 
L 248.856459 365.572209 
L 253.30622 365.359171 
L 262.205742 364.706894 
L 274.07177 364.025436 
L 280.004785 363.7406 
L 290.38756 363.426805 
L 299.287081 362.914836 
L 317.086124 362.402365 
L 327.4689 362.235257 
L 339.334928 361.631777 
L 342.301435 361.984132 
L 343.784689 361.966739 
L 346.751196 361.389852 
L 348.23445 361.275464 
L 349.717703 361.455932 
L 351.200957 361.783355 
L 352.684211 361.974977 
L 354.167464 361.811921 
L 358.617225 360.416081 
L 360.100478 360.516559 
L 363.066986 361.331584 
L 364.550239 361.490222 
L 366.033493 361.301486 
L 369 360.518297 
L 370.483254 360.425651 
L 371.966507 360.619329 
L 373.449761 360.941361 
L 374.933014 361.142416 
L 376.416268 361.061051 
L 380.866029 360.16262 
L 382.349282 360.237993 
L 385.315789 360.827572 
L 386.799043 360.913808 
L 388.282297 360.736763 
L 391.248804 359.94305 
L 392.732057 359.731733 
L 394.215311 359.788867 
L 398.665072 360.47694 
L 400.148325 360.433072 
L 403.114833 359.973801 
L 404.598086 359.860281 
L 406.08134 359.902074 
L 410.5311 360.396127 
L 412.014354 360.287474 
L 416.464115 359.531358 
L 417.947368 359.48507 
L 423.880383 359.921464 
L 426.84689 359.478788 
L 429.813397 358.992241 
L 431.296651 358.967629 
L 434.263158 359.267345 
L 435.746411 359.432099 
L 438.712919 359.419487 
L 444.645933 358.831112 
L 452.062201 359.060881 
L 457.995215 358.845994 
L 465.411483 359.204776 
L 472.827751 358.657602 
L 475.794258 358.944959 
L 478.760766 359.298394 
L 480.244019 359.348319 
L 481.727273 359.282909 
L 486.177033 358.637303 
L 487.660287 358.429751 
L 490.626794 358.413215 
L 496.559809 359.131733 
L 498.043062 359.199469 
L 501.009569 358.984339 
L 505.45933 358.430454 
L 508.425837 358.36082 
L 509.909091 358.376383 
L 512.875598 358.601634 
L 515.842105 358.59807 
L 517.325359 358.450854 
L 521.77512 357.688266 
L 524.741627 357.433454 
L 526.22488 357.426184 
L 529.191388 357.734342 
L 535.124402 358.351269 
L 538.090909 358.332776 
L 542.54067 357.944689 
L 545.507177 357.775798 
L 551.440191 358.143845 
L 554.406699 358.335994 
L 557.373206 358.433976 
L 564.789474 358.091456 
L 566.272727 357.95274 
L 579.62201 358.387226 
L 585.555024 358.301431 
L 587.038278 358.359047 
L 590.004785 358.170849 
L 591.488038 358.186027 
L 592.971292 357.960926 
L 594.454545 357.944362 
L 597.421053 357.596462 
L 598.904306 357.534082 
L 600.38756 357.244397 
L 601.870813 357.206177 
L 604.837321 356.942742 
L 609.287081 357.278566 
L 615.220096 358.480114 
L 618.186603 358.798548 
L 621.15311 358.389167 
L 622.636364 357.724947 
L 622.636364 357.724947 
" clip-path="url(#p532777a853)" style="fill: none; stroke: #008000; stroke-width: 1.5; stroke-linecap: square"/>
   </g>
   <g id="patch_3">
    <path d="M 90 384.48 
L 90 51.84 
" style="fill: none; stroke: #000000; stroke-width: 0.8; stroke-linejoin: miter; stroke-linecap: square"/>
   </g>
   <g id="patch_4">
    <path d="M 648 384.48 
L 648 51.84 
" style="fill: none; stroke: #000000; stroke-width: 0.8; stroke-linejoin: miter; stroke-linecap: square"/>
   </g>
   <g id="patch_5">
    <path d="M 90 384.48 
L 648 384.48 
" style="fill: none; stroke: #000000; stroke-width: 0.8; stroke-linejoin: miter; stroke-linecap: square"/>
   </g>
   <g id="patch_6">
    <path d="M 90 51.84 
L 648 51.84 
" style="fill: none; stroke: #000000; stroke-width: 0.8; stroke-linejoin: miter; stroke-linecap: square"/>
   </g>
   <g id="text_18">
    <!-- Stars -->
    <g transform="translate(350.997969 45.84)scale(0.14 -0.14)">
     <defs>
      <path id="DejaVuSans-53" d="M 3425 4513 
L 3425 3897 
Q 3066 4069 2747 4153 
Q 2428 4238 2131 4238 
Q 1616 4238 1336 4038 
Q 1056 3838 1056 3469 
Q 1056 3159 1242 3001 
Q 1428 2844 1947 2747 
L 2328 2669 
Q 3034 2534 3370 2195 
Q 3706 1856 3706 1288 
Q 3706 609 3251 259 
Q 2797 -91 1919 -91 
Q 1588 -91 1214 -16 
Q 841 59 441 206 
L 441 856 
Q 825 641 1194 531 
Q 1563 422 1919 422 
Q 2459 422 2753 634 
Q 3047 847 3047 1241 
Q 3047 1584 2836 1778 
Q 2625 1972 2144 2069 
L 1759 2144 
Q 1053 2284 737 2584 
Q 422 2884 422 3419 
Q 422 4038 858 4394 
Q 1294 4750 2059 4750 
Q 2388 4750 2728 4690 
Q 3069 4631 3425 4513 
z
" transform="scale(0.015625)"/>
      <path id="DejaVuSans-72" d="M 2631 2963 
Q 2534 3019 2420 3045 
Q 2306 3072 2169 3072 
Q 1681 3072 1420 2755 
Q 1159 2438 1159 1844 
L 1159 0 
L 581 0 
L 581 3500 
L 1159 3500 
L 1159 2956 
Q 1341 3275 1631 3429 
Q 1922 3584 2338 3584 
Q 2397 3584 2469 3576 
Q 2541 3569 2628 3553 
L 2631 2963 
z
" transform="scale(0.015625)"/>
      <path id="DejaVuSans-73" d="M 2834 3397 
L 2834 2853 
Q 2591 2978 2328 3040 
Q 2066 3103 1784 3103 
Q 1356 3103 1142 2972 
Q 928 2841 928 2578 
Q 928 2378 1081 2264 
Q 1234 2150 1697 2047 
L 1894 2003 
Q 2506 1872 2764 1633 
Q 3022 1394 3022 966 
Q 3022 478 2636 193 
Q 2250 -91 1575 -91 
Q 1294 -91 989 -36 
Q 684 19 347 128 
L 347 722 
Q 666 556 975 473 
Q 1284 391 1588 391 
Q 1994 391 2212 530 
Q 2431 669 2431 922 
Q 2431 1156 2273 1281 
Q 2116 1406 1581 1522 
L 1381 1569 
Q 847 1681 609 1914 
Q 372 2147 372 2553 
Q 372 3047 722 3315 
Q 1072 3584 1716 3584 
Q 2034 3584 2315 3537 
Q 2597 3491 2834 3397 
z
" transform="scale(0.015625)"/>
     </defs>
     <use xlink:href="#DejaVuSans-53"/>
     <use xlink:href="#DejaVuSans-74" x="63.476562"/>
     <use xlink:href="#DejaVuSans-61" x="102.685547"/>
     <use xlink:href="#DejaVuSans-72" x="163.964844"/>
     <use xlink:href="#DejaVuSans-73" x="205.078125"/>
    </g>
   </g>
   <g id="legend_1">
    <g id="patch_7">
     <path d="M 97 103.874375 
L 299.151563 103.874375 
Q 301.151563 103.874375 301.151563 101.874375 
L 301.151563 58.84 
Q 301.151563 56.84 299.151563 56.84 
L 97 56.84 
Q 95 56.84 95 58.84 
L 95 101.874375 
Q 95 103.874375 97 103.874375 
z
" style="fill: #ffffff; opacity: 0.8; stroke: #cccccc; stroke-linejoin: miter"/>
    </g>
    <g id="line2d_18">
     <path d="M 99 64.938437 
L 109 64.938437 
L 119 64.938437 
" style="fill: none; stroke: #0000ff; stroke-width: 1.5; stroke-linecap: square"/>
    </g>
    <g id="text_19">
     <!-- SY (EM* AS 323) -->
     <g transform="translate(127 68.438437)scale(0.1 -0.1)">
      <defs>
       <path id="DejaVuSans-59" d="M -13 4666 
L 666 4666 
L 1959 2747 
L 3244 4666 
L 3922 4666 
L 2272 2222 
L 2272 0 
L 1638 0 
L 1638 2222 
L -13 4666 
z
" transform="scale(0.015625)"/>
       <path id="DejaVuSans-20" transform="scale(0.015625)"/>
       <path id="DejaVuSans-28" d="M 1984 4856 
Q 1566 4138 1362 3434 
Q 1159 2731 1159 2009 
Q 1159 1288 1364 580 
Q 1569 -128 1984 -844 
L 1484 -844 
Q 1016 -109 783 600 
Q 550 1309 550 2009 
Q 550 2706 781 3412 
Q 1013 4119 1484 4856 
L 1984 4856 
z
" transform="scale(0.015625)"/>
       <path id="DejaVuSans-45" d="M 628 4666 
L 3578 4666 
L 3578 4134 
L 1259 4134 
L 1259 2753 
L 3481 2753 
L 3481 2222 
L 1259 2222 
L 1259 531 
L 3634 531 
L 3634 0 
L 628 0 
L 628 4666 
z
" transform="scale(0.015625)"/>
       <path id="DejaVuSans-4d" d="M 628 4666 
L 1569 4666 
L 2759 1491 
L 3956 4666 
L 4897 4666 
L 4897 0 
L 4281 0 
L 4281 4097 
L 3078 897 
L 2444 897 
L 1241 4097 
L 1241 0 
L 628 0 
L 628 4666 
z
" transform="scale(0.015625)"/>
       <path id="DejaVuSans-2a" d="M 3009 3897 
L 1888 3291 
L 3009 2681 
L 2828 2375 
L 1778 3009 
L 1778 1831 
L 1422 1831 
L 1422 3009 
L 372 2375 
L 191 2681 
L 1313 3291 
L 191 3897 
L 372 4206 
L 1422 3572 
L 1422 4750 
L 1778 4750 
L 1778 3572 
L 2828 4206 
L 3009 3897 
z
" transform="scale(0.015625)"/>
       <path id="DejaVuSans-41" d="M 2188 4044 
L 1331 1722 
L 3047 1722 
L 2188 4044 
z
M 1831 4666 
L 2547 4666 
L 4325 0 
L 3669 0 
L 3244 1197 
L 1141 1197 
L 716 0 
L 50 0 
L 1831 4666 
z
" transform="scale(0.015625)"/>
       <path id="DejaVuSans-29" d="M 513 4856 
L 1013 4856 
Q 1481 4119 1714 3412 
Q 1947 2706 1947 2009 
Q 1947 1309 1714 600 
Q 1481 -109 1013 -844 
L 513 -844 
Q 928 -128 1133 580 
Q 1338 1288 1338 2009 
Q 1338 2731 1133 3434 
Q 928 4138 513 4856 
z
" transform="scale(0.015625)"/>
      </defs>
      <use xlink:href="#DejaVuSans-53"/>
      <use xlink:href="#DejaVuSans-59" x="63.476562"/>
      <use xlink:href="#DejaVuSans-20" x="124.560547"/>
      <use xlink:href="#DejaVuSans-28" x="156.347656"/>
      <use xlink:href="#DejaVuSans-45" x="195.361328"/>
      <use xlink:href="#DejaVuSans-4d" x="258.544922"/>
      <use xlink:href="#DejaVuSans-2a" x="344.824219"/>
      <use xlink:href="#DejaVuSans-20" x="394.824219"/>
      <use xlink:href="#DejaVuSans-41" x="426.611328"/>
      <use xlink:href="#DejaVuSans-53" x="495.019531"/>
      <use xlink:href="#DejaVuSans-20" x="558.496094"/>
      <use xlink:href="#DejaVuSans-33" x="590.283203"/>
      <use xlink:href="#DejaVuSans-32" x="653.90625"/>
      <use xlink:href="#DejaVuSans-33" x="717.529297"/>
      <use xlink:href="#DejaVuSans-29" x="781.152344"/>
     </g>
    </g>
    <g id="line2d_19">
     <path d="M 99 79.616562 
L 109 79.616562 
L 119 79.616562 
" style="fill: none; stroke: #ffa500; stroke-width: 1.5; stroke-linecap: square"/>
    </g>
    <g id="text_20">
     <!-- PN (Hen 2-442) -->
     <g transform="translate(127 83.116562)scale(0.1 -0.1)">
      <defs>
       <path id="DejaVuSans-50" d="M 1259 4147 
L 1259 2394 
L 2053 2394 
Q 2494 2394 2734 2622 
Q 2975 2850 2975 3272 
Q 2975 3691 2734 3919 
Q 2494 4147 2053 4147 
L 1259 4147 
z
M 628 4666 
L 2053 4666 
Q 2838 4666 3239 4311 
Q 3641 3956 3641 3272 
Q 3641 2581 3239 2228 
Q 2838 1875 2053 1875 
L 1259 1875 
L 1259 0 
L 628 0 
L 628 4666 
z
" transform="scale(0.015625)"/>
       <path id="DejaVuSans-4e" d="M 628 4666 
L 1478 4666 
L 3547 763 
L 3547 4666 
L 4159 4666 
L 4159 0 
L 3309 0 
L 1241 3903 
L 1241 0 
L 628 0 
L 628 4666 
z
" transform="scale(0.015625)"/>
       <path id="DejaVuSans-48" d="M 628 4666 
L 1259 4666 
L 1259 2753 
L 3553 2753 
L 3553 4666 
L 4184 4666 
L 4184 0 
L 3553 0 
L 3553 2222 
L 1259 2222 
L 1259 0 
L 628 0 
L 628 4666 
z
" transform="scale(0.015625)"/>
       <path id="DejaVuSans-2d" d="M 313 2009 
L 1997 2009 
L 1997 1497 
L 313 1497 
L 313 2009 
z
" transform="scale(0.015625)"/>
      </defs>
      <use xlink:href="#DejaVuSans-50"/>
      <use xlink:href="#DejaVuSans-4e" x="60.302734"/>
      <use xlink:href="#DejaVuSans-20" x="135.107422"/>
      <use xlink:href="#DejaVuSans-28" x="166.894531"/>
      <use xlink:href="#DejaVuSans-48" x="205.908203"/>
      <use xlink:href="#DejaVuSans-65" x="281.103516"/>
      <use xlink:href="#DejaVuSans-6e" x="342.626953"/>
      <use xlink:href="#DejaVuSans-20" x="406.005859"/>
      <use xlink:href="#DejaVuSans-32" x="437.792969"/>
      <use xlink:href="#DejaVuSans-2d" x="501.416016"/>
      <use xlink:href="#DejaVuSans-34" x="537.5"/>
      <use xlink:href="#DejaVuSans-34" x="601.123047"/>
      <use xlink:href="#DejaVuSans-32" x="664.746094"/>
      <use xlink:href="#DejaVuSans-29" x="728.369141"/>
     </g>
    </g>
    <g id="line2d_20">
     <path d="M 99 94.294687 
L 109 94.294687 
L 119 94.294687 
" style="fill: none; stroke: #008000; stroke-width: 1.5; stroke-linecap: square"/>
    </g>
    <g id="text_21">
     <!-- RG (2MASS J04390924+2847545) -->
     <g transform="translate(127 97.794687)scale(0.1 -0.1)">
      <defs>
       <path id="DejaVuSans-52" d="M 2841 2188 
Q 3044 2119 3236 1894 
Q 3428 1669 3622 1275 
L 4263 0 
L 3584 0 
L 2988 1197 
Q 2756 1666 2539 1819 
Q 2322 1972 1947 1972 
L 1259 1972 
L 1259 0 
L 628 0 
L 628 4666 
L 2053 4666 
Q 2853 4666 3247 4331 
Q 3641 3997 3641 3322 
Q 3641 2881 3436 2590 
Q 3231 2300 2841 2188 
z
M 1259 4147 
L 1259 2491 
L 2053 2491 
Q 2509 2491 2742 2702 
Q 2975 2913 2975 3322 
Q 2975 3731 2742 3939 
Q 2509 4147 2053 4147 
L 1259 4147 
z
" transform="scale(0.015625)"/>
       <path id="DejaVuSans-47" d="M 3809 666 
L 3809 1919 
L 2778 1919 
L 2778 2438 
L 4434 2438 
L 4434 434 
Q 4069 175 3628 42 
Q 3188 -91 2688 -91 
Q 1594 -91 976 548 
Q 359 1188 359 2328 
Q 359 3472 976 4111 
Q 1594 4750 2688 4750 
Q 3144 4750 3555 4637 
Q 3966 4525 4313 4306 
L 4313 3634 
Q 3963 3931 3569 4081 
Q 3175 4231 2741 4231 
Q 1884 4231 1454 3753 
Q 1025 3275 1025 2328 
Q 1025 1384 1454 906 
Q 1884 428 2741 428 
Q 3075 428 3337 486 
Q 3600 544 3809 666 
z
" transform="scale(0.015625)"/>
       <path id="DejaVuSans-4a" d="M 628 4666 
L 1259 4666 
L 1259 325 
Q 1259 -519 939 -900 
Q 619 -1281 -91 -1281 
L -331 -1281 
L -331 -750 
L -134 -750 
Q 284 -750 456 -515 
Q 628 -281 628 325 
L 628 4666 
z
" transform="scale(0.015625)"/>
       <path id="DejaVuSans-2b" d="M 2944 4013 
L 2944 2272 
L 4684 2272 
L 4684 1741 
L 2944 1741 
L 2944 0 
L 2419 0 
L 2419 1741 
L 678 1741 
L 678 2272 
L 2419 2272 
L 2419 4013 
L 2944 4013 
z
" transform="scale(0.015625)"/>
      </defs>
      <use xlink:href="#DejaVuSans-52"/>
      <use xlink:href="#DejaVuSans-47" x="69.482422"/>
      <use xlink:href="#DejaVuSans-20" x="146.972656"/>
      <use xlink:href="#DejaVuSans-28" x="178.759766"/>
      <use xlink:href="#DejaVuSans-32" x="217.773438"/>
      <use xlink:href="#DejaVuSans-4d" x="281.396484"/>
      <use xlink:href="#DejaVuSans-41" x="367.675781"/>
      <use xlink:href="#DejaVuSans-53" x="436.083984"/>
      <use xlink:href="#DejaVuSans-53" x="499.560547"/>
      <use xlink:href="#DejaVuSans-20" x="563.037109"/>
      <use xlink:href="#DejaVuSans-4a" x="594.824219"/>
      <use xlink:href="#DejaVuSans-30" x="624.316406"/>
      <use xlink:href="#DejaVuSans-34" x="687.939453"/>
      <use xlink:href="#DejaVuSans-33" x="751.5625"/>
      <use xlink:href="#DejaVuSans-39" x="815.185547"/>
      <use xlink:href="#DejaVuSans-30" x="878.808594"/>
      <use xlink:href="#DejaVuSans-39" x="942.431641"/>
      <use xlink:href="#DejaVuSans-32" x="1006.054688"/>
      <use xlink:href="#DejaVuSans-34" x="1069.677734"/>
      <use xlink:href="#DejaVuSans-2b" x="1133.300781"/>
      <use xlink:href="#DejaVuSans-32" x="1217.089844"/>
      <use xlink:href="#DejaVuSans-38" x="1280.712891"/>
      <use xlink:href="#DejaVuSans-34" x="1344.335938"/>
      <use xlink:href="#DejaVuSans-37" x="1407.958984"/>
      <use xlink:href="#DejaVuSans-35" x="1471.582031"/>
      <use xlink:href="#DejaVuSans-34" x="1535.205078"/>
      <use xlink:href="#DejaVuSans-35" x="1598.828125"/>
      <use xlink:href="#DejaVuSans-29" x="1662.451172"/>
     </g>
    </g>
   </g>
  </g>
 </g>
 <defs>
  <clipPath id="p532777a853">
   <rect x="90" y="51.84" width="558" height="332.64"/>
  </clipPath>
 </defs>
</svg>
